<?xml version="1.0" encoding="UTF-8" standalone="no"?>
<!-- Created with Inkscape (http://www.inkscape.org/) -->

<svg
   width="1500"
   height="774"
   viewBox="0 0 396.87499 204.7875"
   version="1.1"
   id="svg1"
   xml:space="preserve"
   inkscape:version="1.3.2 (091e20e, 2023-11-25, custom)"
   sodipodi:docname="placeholder_illustration.svg"
   xmlns:inkscape="http://www.inkscape.org/namespaces/inkscape"
   xmlns:sodipodi="http://sodipodi.sourceforge.net/DTD/sodipodi-0.dtd"
   xmlns="http://www.w3.org/2000/svg"
   xmlns:svg="http://www.w3.org/2000/svg"><sodipodi:namedview
     id="namedview1"
     pagecolor="#ffffff"
     bordercolor="#666666"
     borderopacity="1.0"
     inkscape:showpageshadow="2"
     inkscape:pageopacity="0.0"
     inkscape:pagecheckerboard="0"
     inkscape:deskcolor="#d1d1d1"
     inkscape:document-units="mm"
     inkscape:zoom="0.69397447"
     inkscape:cx="745.70467"
     inkscape:cy="333.58576"
     inkscape:window-width="1920"
     inkscape:window-height="1017"
     inkscape:window-x="-8"
     inkscape:window-y="-8"
     inkscape:window-maximized="1"
     inkscape:current-layer="layer1" /><defs
     id="defs1" /><g
     inkscape:label="Layer 1"
     inkscape:groupmode="layer"
     id="layer1"><rect
       style="fill:#090909;fill-opacity:1;stroke:none;stroke-width:0.489333"
       id="rect1"
       width="402.60843"
       height="206.59099"
       x="-3.0500643"
       y="0" /><g
       id="g1"
       transform="matrix(0.26666665,0,0,0.26666665,-2.2367139,0)"><path
         d="m 729.19653,304.76197 c 4.1589,-4.1589 10.24762,-4.8131 13.59953,-1.46118 0.89707,0.89706 1.5072,1.99015 1.84,3.18981 -1.58641,1.99175 -3.38327,3.80439 -5.3593,5.40607 0.004,-1.77554 -0.58837,-3.43542 -1.81506,-4.66211 -2.534,-2.534 -6.9165,-2.36217 -10.33144,0.21291 0.54482,-0.94728 1.23565,-1.85488 2.06627,-2.6855 z m 26.51387,4.1448 -0.13989,-0.006 c 4.74031,0 8.5831,4.76796 8.5831,10.64954 0,0.70527 -0.0552,1.39453 -0.16016,2.06014 -1.18592,-3.60905 -4.06686,-6.15612 -7.43259,-6.15612 -0.65494,0 -1.29152,0.0964 -1.90082,0.27839 -0.42469,-0.79518 -0.96903,-1.53745 -1.6331,-2.20152 l 0.15366,0.163 c 0.83442,-1.2388 1.56259,-2.55362 2.17211,-3.93088 z m -0.76711,-18.90809 c 1.30183,0.28794 2.24813,1.4141 2.3075,2.74606 l 0.248,5.564 c 0.25309,5.67826 -1.36843,11.0059 -4.317,15.38422 l -0.15476,-0.16134 c -3.8594,-3.8594 -10.36032,-3.67498 -14.83695,0.30269 v 0 l 0.3838,0.004 c 2.04073,0.0575 3.98139,0.80681 5.44785,2.27326 1.24664,1.24665 1.97501,2.83598 2.20069,4.53815 -3.75859,2.52855 -8.23826,4.08849 -13.09551,4.30499 -0.75762,0.0338 -1.51637,0.0338 -2.27398,0 l -5.56401,-0.24801 c -1.62587,-0.0725 -2.88515,-1.44924 -2.81268,-3.07511 0.0594,-1.33196 1.00567,-2.45812 2.3075,-2.74606 13.30843,-2.94356 23.70232,-13.33744 26.64587,-26.64588 0.35148,-1.58908 1.92461,-2.59235 3.51368,-2.24088 z M 738.19,313.83437 c 4.47663,-3.97767 10.97755,-4.16209 14.83695,-0.30269 4.0223,4.02229 3.65221,10.9138 -0.8266,15.39262 -3.6147,3.61469 -8.8009,4.55315 -12.78202,2.66627 1.33607,-0.52739 2.61186,-1.34922 3.7214,-2.45876 3.83898,-3.83899 4.23384,-9.66836 0.88192,-13.02027 -1.46646,-1.46647 -3.40712,-2.21577 -5.44785,-2.27326 z"
         id="Combined-Shape"
         stroke="#000000"
         style="fill:#ffd42a;fill-rule:evenodd;stroke-width:2.44449;stroke-linecap:round" /><path
         style="font-weight:600;font-size:60.1091px;line-height:2;font-family:'Hellix TRIAL';-inkscape-font-specification:'Hellix TRIAL Semi-Bold';letter-spacing:0px;word-spacing:0px;fill:#f9f9f9;stroke-width:0.313068"
         d="m 509.60952,355.66814 v 16.89065 h -20.37699 v -16.89065 h -7.03276 v 42.07637 h 7.03276 v -18.4535 h 20.37699 v 18.4535 h 7.03276 v -42.07637 z m 28.19118,12.08193 c -8.5956,0 -15.26771,6.67211 -15.26771,15.32782 0,8.65571 6.67211,15.26771 15.26771,15.26771 8.53549,0 15.26771,-6.612 15.26771,-15.26771 0,-8.65571 -6.73222,-15.32782 -15.26771,-15.32782 z m -8.71582,15.32782 c 0,-5.04917 3.78687,-8.89615 8.71582,-8.89615 4.86883,0 8.65571,3.84698 8.65571,8.89615 0,4.98905 -3.78688,8.83603 -8.65571,8.83603 -4.92895,0 -8.71582,-3.84698 -8.71582,-8.83603 z m 36.2458,-27.40975 h -6.67211 v 42.07637 h 6.67211 z m 28.55178,23.02178 v 8.77593 c -1.44262,2.58469 -4.6284,4.50818 -7.99451,4.50818 -5.04917,0 -8.95626,-3.84698 -8.95626,-8.95625 0,-5.10928 3.90709,-8.89615 8.95626,-8.89615 3.36611,0 6.612,1.92349 7.99451,4.56829 z m -23.50266,4.32786 c 0,8.5956 6.13113,15.32782 14.12564,15.32782 3.9672,0 7.9344,-1.9836 9.37702,-4.68851 v 4.08742 h 6.67211 v -42.07637 h -6.67211 v 16.77044 c -1.44262,-2.70491 -5.40982,-4.68851 -9.37702,-4.68851 -7.99451,0 -14.12564,6.73222 -14.12564,15.26771 z m 54.03799,25.06549 h 7.2131 L 648.221,368.35116 h -7.21309 l -7.8743,20.01633 -7.87429,-20.01633 h -7.21309 l 11.66117,27.83051 z m 40.03268,-40.3332 c -8.5956,0 -15.26771,6.67211 -15.26771,15.32782 0,8.65571 6.67211,15.26771 15.26771,15.26771 8.5355,0 15.26772,-6.612 15.26772,-15.26771 0,-8.65571 -6.73222,-15.32782 -15.26772,-15.32782 z m -8.71582,15.32782 c 0,-5.04917 3.78688,-8.89615 8.71582,-8.89615 4.86884,0 8.65571,3.84698 8.65571,8.89615 0,4.98905 -3.78687,8.83603 -8.65571,8.83603 -4.92894,0 -8.71582,-3.84698 -8.71582,-8.83603 z m 50.55178,14.66662 h 6.73222 v -29.39335 h -6.73222 v 19.23491 c -1.50273,2.52458 -4.38796,4.08742 -7.33331,4.08742 -4.20764,0 -6.97266,-2.88524 -6.97266,-7.63386 v -15.68847 h -6.67211 v 16.77044 c 0,8.11472 4.6284,13.224 12.02182,13.224 3.66666,0 7.2131,-1.74317 8.95626,-4.56829 z m 13.76494,0 h 6.67211 v -18.75404 c 1.56283,-3.24589 4.74861,-5.04917 6.97265,-5.04917 1.14207,0 2.46447,0.24044 3.48633,0.60109 l 0.42076,-6.31145 c -0.84152,-0.30055 -1.9836,-0.48087 -3.36611,-0.48087 -2.70491,0 -6.01091,1.80327 -7.51363,4.6284 v -4.02731 h -6.67211 z m 42.25662,-25.30593 v -16.77044 h -6.67211 v 42.07637 h 6.67211 v -4.08742 c 1.44262,2.70491 5.40982,4.68851 9.37702,4.68851 7.99451,0 14.12564,-6.73222 14.12564,-15.32782 0,-8.53549 -6.13113,-15.26771 -14.12564,-15.26771 -3.9672,0 -7.9344,1.9836 -9.37702,4.68851 z m 0,15.02727 v -8.77593 c 1.38251,-2.6448 4.6284,-4.56829 7.99451,-4.56829 5.04917,0 8.95626,3.78687 8.95626,8.89615 0,5.10927 -3.90709,8.95625 -8.95626,8.95625 -3.36611,0 -6.55189,-1.92349 -7.99451,-4.50818 z m 57.28389,-19.11469 h -6.73222 v 4.08742 c -1.44262,-2.70491 -5.40982,-4.68851 -9.37702,-4.68851 -7.99451,0 -14.12564,6.73222 -14.12564,15.26771 0,8.5956 6.13113,15.32782 14.12564,15.32782 3.9672,0 7.9344,-1.9836 9.37702,-4.68851 v 4.08742 h 6.73222 z m -23.68299,14.66662 c 0,-5.10928 3.9071,-8.89615 8.95626,-8.89615 3.36611,0 6.612,1.92349 7.99451,4.56829 v 8.77593 c -1.44262,2.58469 -4.6284,4.50818 -7.99451,4.50818 -5.04916,0 -8.95626,-3.84698 -8.95626,-8.95625 z m 37.44795,-14.66662 h -6.73222 v 29.39335 h 6.73222 v -19.29502 c 1.56284,-2.46448 4.32786,-4.02731 7.2732,-4.02731 4.20764,0 6.97266,2.88523 6.97266,7.63385 v 15.68848 h 6.67211 v -16.77044 c 0,-8.11473 -4.6284,-13.224 -12.02182,-13.224 -3.66666,0 -7.09287,1.74316 -8.89615,4.50818 z m 56.74291,0 h -6.73222 v 4.08742 c -1.44261,-2.70491 -5.40981,-4.68851 -9.37702,-4.68851 -7.99451,0 -14.12563,6.73222 -14.12563,15.26771 0,8.5956 6.13112,15.32782 14.12563,15.32782 3.96721,0 7.93441,-1.9836 9.37702,-4.68851 v 4.08742 h 6.73222 z m -23.68298,14.66662 c 0,-5.10928 3.90709,-8.89615 8.95625,-8.89615 3.36611,0 6.61201,1.92349 7.99451,4.56829 v 8.77593 c -1.44261,2.58469 -4.6284,4.50818 -7.99451,4.50818 -5.04916,0 -8.95625,-3.84698 -8.95625,-8.95625 z m 37.44795,-14.66662 h -6.73222 v 29.39335 h 6.73222 v -19.29502 c 1.56283,-2.46448 4.32785,-4.02731 7.2732,-4.02731 4.20763,0 6.97265,2.88523 6.97265,7.63385 v 15.68848 h 6.67211 v -16.77044 c 0,-8.11473 -4.6284,-13.224 -12.02182,-13.224 -3.66665,0 -7.09287,1.74316 -8.89614,4.50818 z m 56.74294,0 h -6.73222 v 4.08742 c -1.44262,-2.70491 -5.40982,-4.68851 -9.37702,-4.68851 -7.99451,0 -14.12564,6.73222 -14.12564,15.26771 0,8.5956 6.13113,15.32782 14.12564,15.32782 3.9672,0 7.9344,-1.9836 9.37702,-4.68851 v 4.08742 h 6.73222 z m -23.68299,14.66662 c 0,-5.10928 3.90709,-8.89615 8.95626,-8.89615 3.36611,0 6.612,1.92349 7.99451,4.56829 v 8.77593 c -1.44262,2.58469 -4.6284,4.50818 -7.99451,4.50818 -5.04917,0 -8.95626,-3.84698 -8.95626,-8.95625 z m 41.59545,15.38793 c 6.73222,0 11.48084,-3.84699 11.48084,-9.13659 0,-10.87974 -16.4699,-7.81418 -16.4699,-12.80323 0,-1.9235 1.62295,-3.12568 4.08742,-3.12568 2.46447,0 6.67211,1.08197 9.01637,3.12568 l 2.6448,-5.16939 c -2.6448,-2.40436 -6.91255,-3.54643 -10.99997,-3.54643 -6.73222,0 -11.42073,3.78687 -11.42073,9.2568 0,10.87974 16.34968,7.09287 16.34968,12.50269 0,1.86338 -1.92349,3.24589 -4.86884,3.24589 -3.306,0 -7.63386,-1.50273 -9.918,-3.66665 l -2.6448,5.04916 c 2.88523,2.58469 7.99451,4.26775 12.74313,4.26775 z m 17.67206,-42.73757 0.24044,29.87422 h 6.73218 l 0.2405,-29.87422 z m -1.02185,38.10917 c 0,2.52458 2.04371,4.56829 4.6284,4.56829 2.64477,0 4.62837,-2.04371 4.62837,-4.56829 0,-2.5847 -1.9836,-4.5683 -4.62837,-4.5683 -2.58469,0 -4.6284,1.9836 -4.6284,4.5683 z"
         id="text1"
         aria-label="Hold your bananas!" /><path
         d="M 408.90267,442.65009 V 423.5678 h 6.98874 v -2.18777 H 399.635 v 2.18777 h 6.98874 v 19.08229 z m 9.99694,-21.27006 v 21.27006 h 2.21817 V 432.3493 c 0.91157,-1.61045 2.7651,-2.61318 4.70979,-2.61318 2.5828,0 4.31479,1.85353 4.31479,4.7098 v 8.20417 h 2.21816 v -8.50803 c 0,-3.98054 -2.43086,-6.56333 -6.07716,-6.56333 -2.15739,0 -4.19324,1.00273 -5.16558,2.61318 v -8.81188 z m 17.71493,6.50256 v 14.7675 h 2.21816 v -14.7675 z m -0.45579,-4.86173 c 0,0.88119 0.69888,1.61045 1.58006,1.61045 0.85081,0 1.61045,-0.72926 1.61045,-1.61045 0,-0.8508 -0.75964,-1.58006 -1.61045,-1.58006 -0.88118,0 -1.58006,0.72926 -1.58006,1.58006 z m 11.75928,19.93308 c 3.31206,0 5.56061,-1.82314 5.56061,-4.31478 0,-5.71253 -8.87266,-3.40321 -8.87266,-6.89758 0,-1.39774 1.18505,-2.30932 3.0082,-2.30932 1.42813,0 3.34243,0.6381 4.34517,1.73199 l 1.03311,-1.67122 c -1.15466,-1.24581 -3.19051,-1.9143 -5.19597,-1.9143 -3.22089,0 -5.40867,1.73199 -5.40867,4.31478 0,5.49983 8.84227,2.97781 8.84227,6.80642 0,1.36736 -1.30659,2.40048 -3.34244,2.40048 -1.73199,0 -3.76784,-0.79003 -4.9225,-1.94469 l -1.00273,1.67122 c 1.39774,1.2762 3.73745,2.127 5.95561,2.127 z m 16.22599,-15.07135 v 14.7675 h 2.21816 v -14.7675 z m -0.45579,-4.86173 c 0,0.88119 0.69888,1.61045 1.58006,1.61045 0.85081,0 1.61045,-0.72926 1.61045,-1.61045 0,-0.8508 -0.75964,-1.58006 -1.61045,-1.58006 -0.88118,0 -1.58006,0.72926 -1.58006,1.58006 z m 9.23727,-1.64083 h -2.21816 v 21.27006 h 2.21816 z m 6.47216,0 h -2.21816 v 21.27006 h 2.21816 z m 15.52712,21.27006 h 2.21816 v -14.7675 h -2.21816 v 10.24001 c -0.91157,1.64083 -2.76511,2.67395 -4.74018,2.67395 -2.5828,0 -4.31479,-1.85353 -4.31479,-4.7098 v -8.20416 h -2.21816 v 8.50802 c 0,3.98054 2.43086,6.56333 6.07716,6.56333 2.18778,0 4.22362,-1.03311 5.19597,-2.67395 z m 11.27314,0.30385 c 3.31205,0 5.5606,-1.82314 5.5606,-4.31478 0,-5.71253 -8.87265,-3.40321 -8.87265,-6.89758 0,-1.39774 1.18504,-2.30932 3.00819,-2.30932 1.42813,0 3.34244,0.6381 4.34517,1.73199 l 1.03312,-1.67122 c -1.15466,-1.24581 -3.19051,-1.9143 -5.19597,-1.9143 -3.2209,0 -5.40868,1.73199 -5.40868,4.31478 0,5.49983 8.84227,2.97781 8.84227,6.80642 0,1.36736 -1.30659,2.40048 -3.34244,2.40048 -1.73199,0 -3.76784,-0.79003 -4.9225,-1.94469 l -1.00273,1.67122 c 1.39775,1.2762 3.73746,2.127 5.95562,2.127 z m 14.82826,-0.15193 c 0.48617,0 1.00273,-0.0911 1.39774,-0.24308 l -0.15193,-1.94469 c -0.27347,0.0912 -0.66848,0.15193 -0.97234,0.15193 -1.79276,0 -3.19051,-1.21544 -3.19051,-3.37283 v -7.44452 h 4.16285 v -2.06623 h -4.16285 v -4.0717 h -2.18778 v 4.0717 h -2.94742 v 2.06623 h 2.94742 v 7.53568 c 0,3.40321 2.12701,5.31751 5.10482,5.31751 z m 4.46674,-0.15192 h 2.21816 v -10.17925 c 0.94196,-1.79276 2.5828,-2.85626 3.88939,-2.85626 0.51655,0 1.12427,0.0912 1.58006,0.27347 l 0.12154,-2.09662 c -0.39502,-0.12154 -0.94196,-0.2127 -1.54968,-0.2127 -1.51929,0 -3.22089,1.03312 -4.04131,2.64356 v -2.3397 h -2.21816 z m 23.33627,-14.7675 h -2.21816 v 2.30932 c -0.82042,-1.48891 -3.0082,-2.61318 -5.16559,-2.61318 -4.19324,0 -7.38375,3.31205 -7.38375,7.65722 0,4.37556 3.19051,7.71799 7.38375,7.71799 2.12701,0 4.31478,-1.12427 5.16559,-2.61318 v 2.30933 h 2.21816 z m -12.57972,7.35336 c 0,-3.22089 2.40048,-5.59099 5.5606,-5.59099 1.97508,0 3.95015,1.12428 4.80096,2.73473 v 5.80368 c -0.88119,1.54968 -2.85627,2.67395 -4.80096,2.67395 -3.16012,0 -5.5606,-2.40047 -5.5606,-5.62137 z m 23.18436,7.56606 c 0.48617,0 1.00273,-0.0911 1.39775,-0.24308 l -0.15193,-1.94469 c -0.27347,0.0912 -0.66849,0.15193 -0.97235,0.15193 -1.79276,0 -3.19051,-1.21544 -3.19051,-3.37283 v -7.44452 h 4.16286 v -2.06623 h -4.16286 v -4.0717 h -2.18777 v 4.0717 h -2.94743 v 2.06623 h 2.94743 v 7.53568 c 0,3.40321 2.127,5.31751 5.10481,5.31751 z m 4.46674,-14.91942 v 14.7675 h 2.21816 v -14.7675 z m -0.45579,-4.86173 c 0,0.88119 0.69887,1.61045 1.58006,1.61045 0.8508,0 1.61045,-0.72926 1.61045,-1.61045 0,-0.8508 -0.75965,-1.58006 -1.61045,-1.58006 -0.88119,0 -1.58006,0.72926 -1.58006,1.58006 z m 13.70397,4.55787 c -4.2844,0 -7.65722,3.37282 -7.65722,7.71799 0,4.31479 3.37282,7.65722 7.65722,7.65722 4.25401,0 7.65722,-3.34243 7.65722,-7.65722 0,-4.34517 -3.40321,-7.71799 -7.65722,-7.71799 z m -5.49983,7.71799 c 0,-3.16012 2.40048,-5.62137 5.49983,-5.62137 3.06897,0 5.49983,2.46125 5.49983,5.62137 0,3.12974 -2.43086,5.5606 -5.49983,5.5606 -3.09935,0 -5.49983,-2.43086 -5.49983,-5.5606 z m 18.74805,-7.41413 h -2.21816 v 14.7675 h 2.21816 V 432.3493 c 0.91158,-1.61045 2.76511,-2.61318 4.7098,-2.61318 2.58279,0 4.31479,1.85353 4.31479,4.7098 v 8.20417 h 2.21816 v -8.50803 c 0,-3.98054 -2.43087,-6.56333 -6.07716,-6.56333 -2.15739,0 -4.19324,1.00273 -5.16559,2.61318 z m 22.81973,0 v 14.7675 h 2.21816 v -14.7675 z m -0.45579,-4.86173 c 0,0.88119 0.69887,1.61045 1.58006,1.61045 0.8508,0 1.61045,-0.72926 1.61045,-1.61045 0,-0.8508 -0.75965,-1.58006 -1.61045,-1.58006 -0.88119,0 -1.58006,0.72926 -1.58006,1.58006 z m 11.75928,19.93308 c 3.31205,0 5.5606,-1.82314 5.5606,-4.31478 0,-5.71253 -8.87265,-3.40321 -8.87265,-6.89758 0,-1.39774 1.18505,-2.30932 3.00819,-2.30932 1.42814,0 3.34244,0.6381 4.34517,1.73199 l 1.03312,-1.67122 c -1.15466,-1.24581 -3.19051,-1.9143 -5.19597,-1.9143 -3.2209,0 -5.40867,1.73199 -5.40867,4.31478 0,5.49983 8.84226,2.97781 8.84226,6.80642 0,1.36736 -1.30659,2.40048 -3.34243,2.40048 -1.73199,0 -3.76784,-0.79003 -4.9225,-1.94469 l -1.00273,1.67122 c 1.39774,1.2762 3.73745,2.127 5.95561,2.127 z m 21.05733,0 c 3.31205,0 5.5606,-1.82314 5.5606,-4.31478 0,-5.71253 -8.87265,-3.40321 -8.87265,-6.89758 0,-1.39774 1.18504,-2.30932 3.00819,-2.30932 1.42813,0 3.34244,0.6381 4.34517,1.73199 l 1.03312,-1.67122 c -1.15466,-1.24581 -3.19051,-1.9143 -5.19597,-1.9143 -3.2209,0 -5.40868,1.73199 -5.40868,4.31478 0,5.49983 8.84227,2.97781 8.84227,6.80642 0,1.36736 -1.30659,2.40048 -3.34244,2.40048 -1.73199,0 -3.76784,-0.79003 -4.9225,-1.94469 l -1.00273,1.67122 c 1.39775,1.2762 3.73746,2.127 5.95562,2.127 z m 14.82826,-0.15193 c 0.48618,0 1.00274,-0.0911 1.39775,-0.24308 l -0.15193,-1.94469 c -0.27347,0.0912 -0.66849,0.15193 -0.97234,0.15193 -1.79277,0 -3.19051,-1.21544 -3.19051,-3.37283 v -7.44452 h 4.16285 v -2.06623 h -4.16285 v -4.0717 h -2.18778 v 4.0717 h -2.94742 v 2.06623 h 2.94742 v 7.53568 c 0,3.40321 2.12701,5.31751 5.10481,5.31751 z m 4.46674,-14.91942 v 14.7675 h 2.21816 v -14.7675 z m -0.45579,-4.86173 c 0,0.88119 0.69888,1.61045 1.58006,1.61045 0.85081,0 1.61045,-0.72926 1.61045,-1.61045 0,-0.8508 -0.75964,-1.58006 -1.61045,-1.58006 -0.88118,0 -1.58006,0.72926 -1.58006,1.58006 z m 9.23728,-1.64083 h -2.21817 v 21.27006 h 2.21817 z m 6.47213,0 h -2.21816 v 21.27006 h 2.21816 z m 11.57698,0 v 21.27006 h 2.21816 v -2.30933 c 0.8508,1.48891 3.03858,2.61318 5.16559,2.61318 4.19324,0 7.38375,-3.34243 7.38375,-7.71799 0,-4.34517 -3.19051,-7.65722 -7.38375,-7.65722 -2.1574,0 -4.34517,1.12427 -5.16559,2.61318 v -8.81188 z m 2.21816,16.80334 v -5.80368 c 0.8508,-1.61045 2.82588,-2.73473 4.80096,-2.73473 3.16012,0 5.5606,2.3701 5.5606,5.59099 0,3.2209 -2.40048,5.62137 -5.5606,5.62137 -1.94469,0 -3.91977,-1.12427 -4.80096,-2.67395 z m 22.15123,4.77057 c 3.0082,0 5.49983,-1.2762 6.62411,-3.34243 l -1.76238,-1.09389 c -0.8508,1.51929 -2.70434,2.43086 -4.80096,2.43086 -3.00819,0 -5.22635,-2.12701 -5.40867,-5.31751 h 12.30625 c 0.0304,-0.24309 0.0608,-0.79003 0.0608,-1.00274 0,-3.98054 -3.06896,-7.0495 -7.0495,-7.0495 -4.19324,0 -7.5053,3.34244 -7.5053,7.62683 0,4.46672 3.37283,7.74838 7.53568,7.74838 z m -5.25674,-9.17651 c 0.51656,-2.55241 2.52202,-4.22362 5.16558,-4.22362 2.61318,0 4.58826,1.79276 4.83135,4.22362 z m 15.64873,-5.89484 v 14.7675 h 2.21816 v -14.7675 z m -0.45579,-4.86173 c 0,0.88119 0.69888,1.61045 1.58006,1.61045 0.85081,0 1.61045,-0.72926 1.61045,-1.61045 0,-0.8508 -0.75964,-1.58006 -1.61045,-1.58006 -0.88118,0 -1.58006,0.72926 -1.58006,1.58006 z m 9.14609,4.86173 h -2.21816 v 14.7675 h 2.21816 V 432.3493 c 0.91157,-1.61045 2.76511,-2.61318 4.7098,-2.61318 2.58279,0 4.31478,1.85353 4.31478,4.7098 v 8.20417 h 2.21817 v -8.50803 c 0,-3.98054 -2.43087,-6.56333 -6.07716,-6.56333 -2.1574,0 -4.19324,1.00273 -5.16559,2.61318 z m 22.33358,21.05736 c 4.13247,0 7.0495,-2.73473 7.0495,-6.74565 v -14.31171 h -2.21816 v 2.27893 c -0.82042,-1.4889 -3.00819,-2.58279 -5.16559,-2.58279 -4.19324,0 -7.38375,3.25128 -7.38375,7.56606 0,4.31479 3.19051,7.62684 7.38375,7.62684 2.12701,0 4.31479,-1.12428 5.16559,-2.58279 v 1.97507 c 0,2.7955 -2.03585,4.77057 -4.89211,4.77057 -2.24855,0 -4.2844,-0.79003 -5.31752,-2.09662 l -1.18505,1.45852 c 1.21544,1.64083 3.88939,2.64357 6.56334,2.64357 z m -5.53022,-13.79516 c 0,-3.19051 2.40048,-5.53021 5.5606,-5.53021 1.97508,0 3.95016,1.12427 4.80096,2.70433 v 5.74292 c -0.88119,1.51929 -2.85627,2.61318 -4.80096,2.61318 -3.16012,0 -5.5606,-2.37009 -5.5606,-5.53022 z m 24.1567,-13.76476 v 21.27006 h 2.21816 v -2.30933 c 0.85081,1.48891 3.03858,2.61318 5.16559,2.61318 4.19324,0 7.38375,-3.34243 7.38375,-7.71799 0,-4.34517 -3.19051,-7.65722 -7.38375,-7.65722 -2.15739,0 -4.34517,1.12427 -5.16559,2.61318 v -8.81188 z m 2.21816,16.80334 v -5.80368 c 0.85081,-1.61045 2.82588,-2.73473 4.80096,-2.73473 3.16012,0 5.5606,2.3701 5.5606,5.59099 0,3.2209 -2.40048,5.62137 -5.5606,5.62137 -1.94469,0 -3.91977,-1.12427 -4.80096,-2.67395 z m 27.19529,4.46672 h 2.21816 v -14.7675 h -2.21816 v 10.24001 c -0.91157,1.64083 -2.76511,2.67395 -4.74018,2.67395 -2.5828,0 -4.31479,-1.85353 -4.31479,-4.7098 v -8.20416 h -2.21816 v 8.50802 c 0,3.98054 2.43086,6.56333 6.07716,6.56333 2.18778,0 4.22363,-1.03311 5.19597,-2.67395 z m 6.44181,-14.7675 v 14.7675 h 2.21816 v -14.7675 z m -0.45579,-4.86173 c 0,0.88119 0.69887,1.61045 1.58006,1.61045 0.8508,0 1.61045,-0.72926 1.61045,-1.61045 0,-0.8508 -0.75965,-1.58006 -1.61045,-1.58006 -0.88119,0 -1.58006,0.72926 -1.58006,1.58006 z m 9.23727,-1.64083 h -2.21816 v 21.27006 h 2.21816 z m 10.60461,21.42198 c 0.48617,0 1.00273,-0.0911 1.39775,-0.24308 l -0.15193,-1.94469 c -0.27348,0.0912 -0.66849,0.15193 -0.97235,0.15193 -1.79276,0 -3.19051,-1.21544 -3.19051,-3.37283 v -7.44452 h 4.16286 v -2.06623 h -4.16286 v -4.0717 h -2.18778 v 4.0717 h -2.94742 v 2.06623 h 2.94742 v 7.53568 c 0,3.40321 2.12701,5.31751 5.10482,5.31751 z m 7.59648,-3.09935 h -2.49163 l -1.30659,6.16832 h 1.76237 z m 24.61245,-0.54694 -1.91431,-0.91158 c -0.8508,1.64084 -2.61318,2.61318 -4.7098,2.61318 -3.09935,0 -5.46944,-2.46125 -5.46944,-5.59098 0,-3.16013 2.33971,-5.59099 5.46944,-5.59099 1.97508,0 3.67669,0.97234 4.31479,2.46125 l 1.88392,-1.00273 c -0.97235,-2.15739 -3.37283,-3.55514 -6.19871,-3.55514 -4.31478,0 -7.65722,3.34244 -7.65722,7.68761 0,4.34517 3.37283,7.6876 7.65722,7.6876 2.97781,0 5.46945,-1.4889 6.62411,-3.79822 z m 2.64356,-17.77569 v 21.27006 h 2.21816 V 432.3493 c 0.91158,-1.61045 2.76511,-2.61318 4.7098,-2.61318 2.5828,0 4.31479,1.85353 4.31479,4.7098 v 8.20417 h 2.21816 v -8.50803 c 0,-3.98054 -2.43086,-6.56333 -6.07716,-6.56333 -2.15739,0 -4.19324,1.00273 -5.16559,2.61318 v -8.81188 z m 24.3694,21.57391 c 3.00819,0 5.49983,-1.2762 6.6241,-3.34243 l -1.76238,-1.09389 c -0.8508,1.51929 -2.70433,2.43086 -4.80095,2.43086 -3.0082,0 -5.22636,-2.12701 -5.40867,-5.31751 h 12.30624 c 0.0304,-0.24309 0.0608,-0.79003 0.0608,-1.00274 0,-3.98054 -3.06897,-7.0495 -7.04951,-7.0495 -4.19324,0 -7.50529,3.34244 -7.50529,7.62683 0,4.46672 3.37282,7.74838 7.53568,7.74838 z m -5.25675,-9.17651 c 0.51656,-2.55241 2.52202,-4.22362 5.16559,-4.22362 2.61318,0 4.58825,1.79276 4.83134,4.22362 z m 28.62346,5.37829 -1.91431,-0.91158 c -0.8508,1.64084 -2.61318,2.61318 -4.7098,2.61318 -3.09935,0 -5.46944,-2.46125 -5.46944,-5.59098 0,-3.16013 2.33971,-5.59099 5.46944,-5.59099 1.97508,0 3.67668,0.97234 4.31479,2.46125 l 1.88392,-1.00273 c -0.97235,-2.15739 -3.37283,-3.55514 -6.19871,-3.55514 -4.31478,0 -7.65722,3.34244 -7.65722,7.68761 0,4.34517 3.37283,7.6876 7.65722,7.6876 2.97781,0 5.46945,-1.4889 6.62411,-3.79822 z m 12.00242,-11.27313 -7.14067,6.59372 v -13.09628 h -2.21816 v 21.27006 h 2.21816 v -7.23182 l 7.47491,7.23182 h 2.94742 l -8.17378,-7.718 7.68761,-7.0495 z m 13.24817,-6.50256 v 21.27006 h 2.21816 v -2.30933 c 0.8508,1.48891 3.03858,2.61318 5.16559,2.61318 4.19324,0 7.38374,-3.34243 7.38374,-7.71799 0,-4.34517 -3.1905,-7.65722 -7.38374,-7.65722 -2.1574,0 -4.34517,1.12427 -5.16559,2.61318 v -8.81188 z m 2.21816,16.80334 v -5.80368 c 0.8508,-1.61045 2.82588,-2.73473 4.80096,-2.73473 3.16012,0 5.5606,2.3701 5.5606,5.59099 0,3.2209 -2.40048,5.62137 -5.5606,5.62137 -1.9447,0 -3.91977,-1.12427 -4.80096,-2.67395 z m 29.38305,-10.30078 h -2.21816 v 2.30932 c -0.82042,-1.48891 -3.0082,-2.61318 -5.16559,-2.61318 -4.19324,0 -7.38375,3.31205 -7.38375,7.65722 0,4.37556 3.19051,7.71799 7.38375,7.71799 2.12701,0 4.31479,-1.12427 5.16559,-2.61318 v 2.30933 h 2.21816 z m -12.57972,7.35336 c 0,-3.22089 2.40048,-5.59099 5.5606,-5.59099 1.97508,0 3.95016,1.12428 4.80096,2.73473 v 5.80368 c -0.88119,1.54968 -2.85627,2.67395 -4.80096,2.67395 -3.16012,0 -5.5606,-2.40047 -5.5606,-5.62137 z m 30.23387,3.91977 -1.91431,-0.91158 c -0.8508,1.64084 -2.61318,2.61318 -4.7098,2.61318 -3.09935,0 -5.46944,-2.46125 -5.46944,-5.59098 0,-3.16013 2.33971,-5.59099 5.46944,-5.59099 1.97508,0 3.67669,0.97234 4.31479,2.46125 l 1.88392,-1.00273 c -0.97235,-2.15739 -3.37283,-3.55514 -6.19871,-3.55514 -4.31478,0 -7.65722,3.34244 -7.65722,7.68761 0,4.34517 3.37283,7.6876 7.65722,7.6876 2.97781,0 5.46945,-1.4889 6.62411,-3.79822 z m 12.00234,-11.27313 -7.14062,6.59372 v -13.09628 h -2.21816 v 21.27006 h 2.21816 v -7.23182 l 7.47492,7.23182 h 2.9474 l -8.17377,-7.718 7.68757,-7.0495 z m 15.4664,-6.50256 h -2.2181 v 21.27006 h 2.2181 z m 17.7149,6.50256 h -2.2181 v 2.30932 c -0.8204,-1.48891 -3.0082,-2.61318 -5.1656,-2.61318 -4.1932,0 -7.3838,3.31205 -7.3838,7.65722 0,4.37556 3.1906,7.71799 7.3838,7.71799 2.127,0 4.3148,-1.12427 5.1656,-2.61318 v 2.30933 h 2.2181 z m -12.5797,7.35336 c 0,-3.22089 2.4005,-5.59099 5.5606,-5.59099 1.9751,0 3.9502,1.12428 4.801,2.73473 v 5.80368 c -0.8812,1.54968 -2.8563,2.67395 -4.801,2.67395 -3.1601,0 -5.5606,-2.40047 -5.5606,-5.62137 z m 23.1844,7.56606 c 0.4862,0 1.0027,-0.0911 1.3977,-0.24308 l -0.1519,-1.94469 c -0.2735,0.0912 -0.6685,0.15193 -0.9723,0.15193 -1.7928,0 -3.1906,-1.21544 -3.1906,-3.37283 v -7.44452 h 4.1629 v -2.06623 h -4.1629 v -4.0717 h -2.1877 v 4.0717 h -2.9475 v 2.06623 h 2.9475 v 7.53568 c 0,3.40321 2.127,5.31751 5.1048,5.31751 z m 10.1489,0.15193 c 3.0082,0 5.4998,-1.2762 6.6241,-3.34243 l -1.7624,-1.09389 c -0.8508,1.51929 -2.7043,2.43086 -4.801,2.43086 -3.0082,0 -5.2263,-2.12701 -5.4086,-5.31751 h 12.3062 c 0.03,-0.24309 0.061,-0.79003 0.061,-1.00274 0,-3.98054 -3.069,-7.0495 -7.0495,-7.0495 -4.1933,0 -7.5053,3.34244 -7.5053,7.62683 0,4.46672 3.3728,7.74838 7.5357,7.74838 z m -5.2568,-9.17651 c 0.5166,-2.55241 2.522,-4.22362 5.1656,-4.22362 2.6132,0 4.5883,1.79276 4.8314,4.22362 z m 15.6487,8.87266 h 2.2182 v -10.17925 c 0.942,-1.79276 2.5828,-2.85626 3.8894,-2.85626 0.5165,0 1.1242,0.0912 1.58,0.27347 l 0.1216,-2.09662 c -0.395,-0.12154 -0.942,-0.2127 -1.5497,-0.2127 -1.5193,0 -3.2209,1.03312 -4.0413,2.64356 v -2.3397 h -2.2182 z m 19.3862,-9.99693 c 1.0331,0 1.7927,-0.75965 1.7927,-1.76238 0,-0.97234 -0.7596,-1.76238 -1.7927,-1.76238 -1.0028,0 -1.7624,0.79004 -1.7624,1.76238 0,1.00273 0.7596,1.76238 1.7624,1.76238 z m -1.7624,8.53841 c 0,1.00273 0.7596,1.76237 1.7624,1.76237 1.0331,0 1.7927,-0.75964 1.7927,-1.76237 0,-0.97235 -0.7596,-1.76238 -1.7927,-1.76238 -1.0028,0 -1.7624,0.79003 -1.7624,1.76238 z m 4.6794,6.32024 1.3065,1.48891 c 3.8287,-3.0082 6.2595,-8.84227 6.2595,-15.04097 0,-6.19871 -2.4308,-12.06317 -6.2595,-15.07136 l -1.3065,1.4889 c 3.3728,2.64357 5.4694,7.96108 5.4694,13.58246 0,5.65176 -2.127,10.93888 -5.4694,13.55206 z"
         id="text1-9"
         style="font-size:30.3858px;line-height:2;font-family:'Hellix TRIAL';-inkscape-font-specification:'Hellix TRIAL';letter-spacing:0px;word-spacing:0px;fill:#767676;stroke-width:0.158259"
         aria-label="This illustration is still being built, check back later :)" /></g></g></svg>
