<?xml version="1.0" encoding="UTF-8" standalone="no"?>
<!-- Created with Inkscape (http://www.inkscape.org/) -->

<svg
   width="128"
   height="128"
   viewBox="0 0 33.866666 33.866666"
   version="1.1"
   id="svg1"
   xml:space="preserve"
   inkscape:version="1.3.2 (091e20e, 2023-11-25, custom)"
   sodipodi:docname="1.svg"
   xmlns:inkscape="http://www.inkscape.org/namespaces/inkscape"
   xmlns:sodipodi="http://sodipodi.sourceforge.net/DTD/sodipodi-0.dtd"
   xmlns="http://www.w3.org/2000/svg"
   xmlns:svg="http://www.w3.org/2000/svg"><sodipodi:namedview
     id="namedview1"
     pagecolor="#ffffff"
     bordercolor="#666666"
     borderopacity="1.0"
     inkscape:showpageshadow="2"
     inkscape:pageopacity="0.0"
     inkscape:pagecheckerboard="0"
     inkscape:deskcolor="#d1d1d1"
     inkscape:document-units="mm"
     inkscape:zoom="2.7758979"
     inkscape:cx="-0.1801219"
     inkscape:cy="50.614254"
     inkscape:window-width="1920"
     inkscape:window-height="1017"
     inkscape:window-x="-8"
     inkscape:window-y="-8"
     inkscape:window-maximized="1"
     inkscape:current-layer="layer1" /><defs
     id="defs1" /><g
     inkscape:label="Layer 1"
     inkscape:groupmode="layer"
     id="layer1"><path
       id="path1"
       style="fill:#000000;stroke-width:0.784387"
       d="m 21.391165,6.1667846 c -0.0901,-0.03374 -0.76738,0.360729 -1.50585,0.876949 -0.73847,0.516229 -1.39266,0.889367 -1.45314,0.828891 -0.0605,-0.0605 -0.47057,0.2213 -0.91157,0.626317 -0.44102,0.405018 -0.90603,0.736874 -1.03301,0.737423 -0.12699,5.41e-4 -0.59001,0.286334 -1.02888,0.6351028 -0.72638,0.5772536 -0.81007,0.6005426 -0.93741,0.2563156 -0.0769,-0.2079876 -0.11712,-0.8585044 -0.0889,-1.4453894 0.0282,-0.586877 -0.007,-1.1619 -0.0791,-1.277957 -0.13553,-0.219259 -1.44208,-0.35394 -2.74815,-0.283187 l -0.75551,0.04082 0.0941,1.712556 c 0.0516,0.9416868 0.0105,2.6459264 -0.091,3.7873654 -0.11901,1.338351 -0.11187,2.123477 0.0196,2.211234 0.12864,0.08583 0.14632,0.92865 0.0481,2.28255 -0.0857,1.18074 -0.14762,2.24075 -0.13797,2.35489 0.13637,1.61856 0.1452,4.26307 0.0134,3.94292 -0.16422,-0.3991 -0.17096,-0.3979 -0.185,0.03927 -0.008,0.25009 0.0863,0.51796 0.20981,0.59428 0.1235,0.0763 0.20171,0.57208 0.17363,1.10174 -0.0281,0.52966 -0.0358,1.27859 -0.017,1.6645 0.0328,0.67465 0.0609,0.69713 0.72657,0.58911 0.38076,-0.0618 0.82404,-0.02872 0.98547,0.07338 0.16142,0.10218 0.38712,0.18603 0.50126,0.18603 0.11414,0 0.0673,-0.09036 -0.10387,-0.20102 -0.23072,-0.14913 -0.10387,-0.20279 0.48938,-0.20515 0.61774,-0.002 0.77338,-0.07243 0.68316,-0.30748 -0.0643,-0.16756 -0.027,-0.3599 0.0822,-0.42736 0.10917,-0.0675 0.21082,0.1398 0.22635,0.46044 0.0246,0.50658 0.0399,0.52007 0.11937,0.10438 0.0503,-0.26311 -0.0325,-0.63119 -0.18397,-0.81804 -0.19879,-0.24528 -0.20279,-0.29597 -0.0155,-0.18345 0.19056,0.1145 0.25396,-0.05433 0.23874,-0.6351 -0.0177,-0.67611 -0.0423,-0.71507 -0.16846,-0.2713 -0.14234,0.50087 -0.15221,0.49479 -0.29042,-0.18139 -0.32794,-1.60439 -0.0892,-3.03547 0.50643,-3.03547 0.13733,0 0.28811,-0.13988 0.33486,-0.31109 0.0755,-0.27672 0.0603,-0.27672 -0.13539,0 -0.12109,0.17121 -0.22168,0.21068 -0.22325,0.08785 -0.005,-0.34239 0.93839,-1.15039 1.13482,-0.97204 0.0954,0.0866 0.1134,0.05116 0.0393,-0.07854 -0.0741,-0.12975 -0.007,-0.34251 0.15038,-0.47284 0.56326,-0.46746 2.27626,-1.24058 2.47582,-1.11725 0.11192,0.0692 0.13943,0.02187 0.0605,-0.10593 -0.0869,-0.14057 0.48867,-0.6654 1.45779,-1.32912 0.88086,-0.60327 1.88378,-1.34259 2.22881,-1.64228 l 0.62735,-0.54467 -0.8108,-1.063499 c -0.44608,-0.584933 -0.85037,-1.063501 -0.89814,-1.063501 -0.21699,0 -5.84877,3.90005 -6.48022,4.48758 -0.29162,0.27132 -0.58242,0.49351 -0.64596,0.49351 -0.0635,0 -0.16771,-0.58016 -0.23203,-1.28933 -0.16218,-1.78864 0.58332,-3.484021 1.53221,-3.484021 0.46622,0 1.68569,-0.698359 2.83342,-1.62264 0.48511,-0.390664 0.88211,-0.652956 0.88211,-0.58291 0,0.07007 0.42691,-0.199146 0.9493,-0.597897 0.52239,-0.398742 1.03203,-0.724503 1.13171,-0.724503 0.25717,0 2.06965,-1.2445284 2.06965,-1.4211014 0,-0.197572 -1.65825,-2.402533 -1.86501,-2.479952 z m -7.71684,1.203027 c 0.14056,0 0.30592,0.131105 0.36742,0.291455 h 5.2e-4 c 0.0615,0.160352 0.0737,0.603632 0.0269,0.98547 l -0.0853,0.694531 -0.0331,-0.736906 c -0.0183,-0.405213 -0.14569,-0.848499 -0.28267,-0.985469 -0.19393,-0.193742 -0.19258,-0.249081 0.006,-0.249081 z m -3.01997,1.115695 c -0.0218,0.02182 -0.0364,0.09512 -0.0413,0.216007 -0.009,0.218742 0.0396,0.341283 0.10852,0.272335 0.069,-0.06896 0.0765,-0.248091 0.0165,-0.397909 -0.0331,-0.08278 -0.0619,-0.112257 -0.0837,-0.09043 z m 5.02657,1.7973054 c 0.11414,-7.85e-4 0.0673,0.09411 -0.10387,0.210323 -0.71986,0.488625 -1.12991,0.63036 -0.6227,0.215491 0.28536,-0.23341 0.61242,-0.42503 0.72657,-0.425814 z m -0.9338,4.350122 c -0.0107,-0.01072 -0.0948,0.05231 -0.25941,0.181384 -0.19976,0.156661 -0.36329,0.320221 -0.36329,0.363281 0,0.17081 0.17021,0.0604 0.44132,-0.28525 0.12907,-0.164589 0.1921,-0.248708 0.18138,-0.259415 z m -0.56482,1.116725 c -0.0218,0.0218 -0.0364,0.09455 -0.0413,0.21549 -0.009,0.21881 0.0396,0.34129 0.10852,0.27234 0.0689,-0.069 0.077,-0.2481 0.017,-0.39791 -0.0331,-0.0828 -0.0624,-0.11173 -0.0842,-0.08992 z m -3.52227,0.46096 c -0.019,0.047 -0.031,0.14773 -0.031,0.29042 0,0.28538 0.0473,0.40209 0.1049,0.25941 0.0576,-0.14269 0.0576,-0.37615 0,-0.51883 -0.0288,-0.0713 -0.0549,-0.078 -0.0739,-0.031 z m 6.57738,3.70003 c 0,-0.0571 -0.18667,-0.004 -0.41496,0.11834 -0.22829,0.12217 -0.41496,0.26897 -0.41496,0.32608 0,0.0571 0.18667,0.004 0.41496,-0.11834 0.22829,-0.12218 0.41496,-0.26897 0.41496,-0.32608 z m -2.64015,2.47995 c -0.0218,0.0218 -0.0364,0.09465 -0.0413,0.21549 -0.009,0.21873 0.0401,0.34129 0.10904,0.27234 0.0689,-0.0689 0.0765,-0.24809 0.0165,-0.39791 -0.0331,-0.0828 -0.0624,-0.11173 -0.0842,-0.08992 z m -0.18345,1.0294 c -0.0171,0.0654 -0.0283,0.22026 -0.0294,0.44855 h 5.1e-4 c -0.002,0.45659 0.038,0.66764 0.0899,0.46922 0.0517,-0.19842 0.0537,-0.57176 0.004,-0.82992 -0.0248,-0.12908 -0.048,-0.15319 -0.0651,-0.08785 z m -3.74396,0.94722 c -0.0188,0.0463 -0.0311,0.16003 -0.0331,0.33125 -0.004,0.34243 0.0387,0.50794 0.0956,0.36742 0.057,-0.1405 0.0604,-0.42078 0.008,-0.6227 -0.0263,-0.10097 -0.0515,-0.12229 -0.0703,-0.07597 z" /></g></svg>
