<?xml version="1.0" encoding="UTF-8" standalone="no"?>
<!-- Created with Inkscape (http://www.inkscape.org/) -->

<svg
   width="128"
   height="128"
   viewBox="0 0 33.866666 33.866666"
   version="1.1"
   id="svg1"
   xml:space="preserve"
   inkscape:version="1.3.2 (091e20e, 2023-11-25, custom)"
   sodipodi:docname="10.svg"
   xmlns:inkscape="http://www.inkscape.org/namespaces/inkscape"
   xmlns:sodipodi="http://sodipodi.sourceforge.net/DTD/sodipodi-0.dtd"
   xmlns="http://www.w3.org/2000/svg"
   xmlns:svg="http://www.w3.org/2000/svg"><sodipodi:namedview
     id="namedview1"
     pagecolor="#ffffff"
     bordercolor="#666666"
     borderopacity="1.0"
     inkscape:showpageshadow="2"
     inkscape:pageopacity="0.0"
     inkscape:pagecheckerboard="0"
     inkscape:deskcolor="#d1d1d1"
     inkscape:document-units="mm"
     inkscape:zoom="2.7758979"
     inkscape:cx="-0.1801219"
     inkscape:cy="50.614254"
     inkscape:window-width="1920"
     inkscape:window-height="1017"
     inkscape:window-x="-8"
     inkscape:window-y="-8"
     inkscape:window-maximized="1"
     inkscape:current-layer="layer1" /><defs
     id="defs1" /><g
     inkscape:label="Layer 1"
     inkscape:groupmode="layer"
     id="layer1"><path
       id="path1-1-34"
       style="fill:#000000;stroke-width:0.784387"
       d="m 11.159092,6.4737613 v 2.23708 c 0,1.23031 -0.0885,2.3255197 -0.19637,2.4339597 -0.10785,0.10844 -0.20147,1.037684 -0.20774,2.064994 -0.006,1.0273 -0.0147,2.00797 -0.017,2.17919 -0.002,0.17122 -0.0257,2.92606 -0.0512,6.12211 l -0.0465,5.81101 1.69241,0.0351 1.6924,0.0357 0.10077,-0.65836 c 0.0555,-0.36188 0.0871,-1.2878 0.0698,-2.05827 -0.0173,-0.77102 0.0571,-1.40095 0.16588,-1.40095 0.10872,0 0.0165,-0.13731 -0.20515,-0.30489 -0.53026,-0.40104 -0.31457,-0.39724 0.49919,0.009 0.70193,0.35018 0.88922,0.62578 0.29094,0.42788 -0.30372,-0.10046 -0.29906,-0.0782 0.0284,0.13384 0.2154,0.13947 0.83604,0.55136 1.37873,0.9157 0.54269,0.36434 1.04131,0.60768 1.10846,0.54054 0.0671,-0.0671 0.50482,0.13127 0.97255,0.4408 l 0.85059,0.56224 1.2206,-1.31051 1.2206,-1.31052 -0.82166,-0.35502 c -0.45183,-0.19507 -0.82165,-0.45283 -0.82165,-0.57309 0,-0.12026 -0.51374,-0.44583 -1.14154,-0.72347 -0.62778,-0.27764 -1.14153,-0.56628 -1.14153,-0.64182 0,-0.0755 0.16353,-0.0809 0.36329,-0.0114 0.3014,0.10497 0.29469,0.0735 -0.0408,-0.18603 -0.2223,-0.17204 -0.56279,-0.26268 -0.75706,-0.20102 -0.22173,0.0704 -0.50534,-0.0808 -0.76171,-0.4067 -0.2246,-0.28554 -0.46062,-0.46749 -0.524,-0.40411 -0.0634,0.0634 -0.47258,-0.13283 -0.9095,-0.43563 -0.43691,-0.30281 -0.65012,-0.52108 -0.47387,-0.48524 0.28934,0.0588 3.10368,-1.61361 3.10368,-1.84433 0,-0.10507 -1.36622,0.68669 -1.86758,1.0821 -0.56019,0.44179 -0.90617,0.59919 -0.74569,0.33952 0.20381,-0.32977 2.5358,-1.89911 2.82205,-1.89911 0.12711,0 0.17411,0.0923 0.10438,0.20515 -0.0741,0.11993 0.0145,0.15108 0.21291,0.0749 0.23593,-0.0905 0.26551,-0.17511 0.0982,-0.27853 -0.15282,-0.0944 0.0361,-0.31242 0.51728,-0.59635 0.41698,-0.24602 0.82209,-0.40791 0.90021,-0.35967 0.0781,0.0483 0.32281,-0.044 0.54312,-0.20515 0.22029,-0.16109 0.30743,-0.29301 0.1943,-0.29301 -0.11313,0 -0.31727,0.11263 -0.45424,0.2496 -0.1536,0.15363 -0.24959,0.16571 -0.24959,0.0315 0,-0.25243 1.6536,-1.04058 1.96784,-0.93793 0.11648,0.038 0.14245,-1.3e-4 0.0579,-0.0847 -0.17802,-0.17801 0.20902,-0.71106 0.51625,-0.71106 0.11418,0 0.0791,0.15662 -0.0775,0.34778 -0.2479,0.3025 -0.21094,0.29949 0.28577,-0.0238 0.51957,-0.33813 0.85047,-0.72923 0.36122,-0.42685 -0.11503,0.0711 -0.33567,0.002 -0.49093,-0.15296 -0.24952,-0.24952 -1.59567,-1.13536 -3.8654,-2.544554 -0.3995,-0.24804 -1.24031,-0.78129 -1.8681,-1.1844197 -2.30085,-1.47748 -4.47642,-2.78457 -5.03277,-3.02411 z m -0.35708,1.93735 c -0.0218,0.0218 -0.0364,0.0946 -0.0413,0.21549 -0.009,0.21874 0.0396,0.3418 0.10852,0.27285 0.069,-0.069 0.0765,-0.24809 0.0165,-0.3979 -0.0331,-0.0828 -0.0618,-0.11226 -0.0837,-0.0904 z m 3.04839,2.6194797 c 0.11058,0 0.14735,0.13988 0.0817,0.31109 -0.0657,0.17122 -0.15615,0.31161 -0.20102,0.31161 -0.0449,0 -0.0816,-0.14039 -0.0816,-0.31161 0,-0.17121 0.0905,-0.31109 0.20102,-0.31109 z m 0.51573,0.861964 c 0.0434,0.02 0.099,0.0854 0.1726,0.1757 0.13947,0.17122 0.3935,0.34169 0.56431,0.37879 0.1708,0.0371 0.34238,0.15617 0.38137,0.26459 0.039,0.10842 0.40193,0.33546 0.80615,0.50436 l 0.73484,0.30696 -0.80512,0.54621 c -0.44285,0.30053 -1.13232,0.79022 -1.5322,1.08779 -0.39988,0.29759 -0.79568,0.63504 -0.87954,0.74983 -0.0839,0.11479 -0.15397,0.0169 -0.15554,-0.21704 -0.002,-0.23399 0.10229,-0.5307 0.23151,-0.65991 0.12922,-0.12922 0.25708,-0.82551 0.28422,-1.54668 0.049,-1.30252 0.0672,-1.6505 0.1974,-1.5906 z m 2.57969,8.26927 c -0.11417,0 -0.15004,0.0936 -0.0796,0.20774 0.0705,0.11414 0.22175,0.20773 0.3359,0.20773 0.11418,0 0.14962,-0.0936 0.0791,-0.20773 -0.0705,-0.11415 -0.22123,-0.20774 -0.33538,-0.20774 z m -3.19774,4.38319 c 0.0407,-0.0559 0.0723,0.26027 0.0853,0.96118 0.0132,0.71341 -0.0474,1.29708 -0.13384,1.29708 -0.0866,0 -0.12848,-0.4438 -0.0935,-0.98598 0.0508,-0.78853 0.10139,-1.21635 0.14211,-1.27228 z m -2.72024,1.22938 c 0.0172,-0.0658 0.0406,-0.0571 0.0667,0.0429 0.0522,0.19975 0.0522,0.52682 0,0.72657 -0.0522,0.19975 -0.0946,0.0362 -0.0946,-0.36329 0,-0.19976 0.0107,-0.34036 0.0279,-0.40618 z m 7.47137,0.009 c -0.0455,0.0176 0.0772,0.14366 0.36691,0.37827 0.2689,0.21773 0.56626,0.34791 0.66094,0.28939 0.0947,-0.0585 -0.0791,-0.2361 -0.38602,-0.39533 -0.38283,-0.19862 -0.59632,-0.28993 -0.64183,-0.27233 z" /></g></svg>
