<?xml version="1.0" encoding="UTF-8" standalone="no"?>
<!-- Created with Inkscape (http://www.inkscape.org/) -->

<svg
   width="128"
   height="128"
   viewBox="0 0 33.866666 33.866666"
   version="1.1"
   id="svg1"
   xml:space="preserve"
   inkscape:version="1.3.2 (091e20e, 2023-11-25, custom)"
   sodipodi:docname="11.svg"
   xmlns:inkscape="http://www.inkscape.org/namespaces/inkscape"
   xmlns:sodipodi="http://sodipodi.sourceforge.net/DTD/sodipodi-0.dtd"
   xmlns="http://www.w3.org/2000/svg"
   xmlns:svg="http://www.w3.org/2000/svg"><sodipodi:namedview
     id="namedview1"
     pagecolor="#ffffff"
     bordercolor="#666666"
     borderopacity="1.0"
     inkscape:showpageshadow="2"
     inkscape:pageopacity="0.0"
     inkscape:pagecheckerboard="0"
     inkscape:deskcolor="#d1d1d1"
     inkscape:document-units="mm"
     inkscape:zoom="2.7758979"
     inkscape:cx="-0.1801219"
     inkscape:cy="50.614254"
     inkscape:window-width="1920"
     inkscape:window-height="1017"
     inkscape:window-x="-8"
     inkscape:window-y="-8"
     inkscape:window-maximized="1"
     inkscape:current-layer="layer1" /><defs
     id="defs1" /><g
     inkscape:label="Layer 1"
     inkscape:groupmode="layer"
     id="layer1"><path
       id="path1-1-57-2-1"
       style="fill:#000000;stroke-width:0.784387"
       d="m 12.062842,6.8407847 c -0.15021,-0.0339 -0.30724,0.0375 -0.59428,0.18604 -0.33118,0.17125 -0.69092,0.54573 -0.79995,0.8325 -0.11541,0.30355 -0.29537,0.46196 -0.42995,0.37879 -0.2437797,-0.15067 -0.5908497,0.25019 -0.5963397,0.68833 -0.005,0.35396 1.6308697,2.0149103 1.8086697,1.8371003 0.0784,-0.0784 -0.26311,-0.49219 -0.75964,-0.9198403 l -0.9027897,-0.77722 1.0784897,-0.90382 c 0.75258,-0.63005 1.14478,-0.83751 1.29656,-0.68574 0.1518,0.15175 0.12929,0.20767 -0.0749,0.185 -0.16102,-0.0179 -0.64954,0.27832 -1.08572,0.65836 l -0.79324,0.69143 0.77618,0.79478 c 0.42692,0.4372003 0.72307,0.8808103 0.65836,0.9854703 -0.0647,0.10465 0.48518,0.78731 1.22163,1.51722 0.73644,0.72989 1.33894,1.40508 1.33894,1.50068 0,0.19495 1.23471,1.83141 1.55649,2.06293 0.13507,0.0972 0.11703,0.29557 -0.0517,0.56792 -0.14268,0.23023 -0.25295,0.53688 -0.24495,0.6811 0.008,0.14424 0.0801,0.0958 0.1602,-0.10697 0.0801,-0.20278 0.14419,1.07359 0.14262,2.836 -0.002,1.76241 -0.0529,3.12506 -0.11265,3.02824 -0.0599,-0.0968 -0.11762,0.2148 -0.12868,0.692464 -0.0149,0.64458 0.0245,0.76181 0.15297,0.45372 0.13446,-0.32274 0.16647,-0.25371 0.14262,0.31109 -0.0172,0.39951 -0.0147,1.07678 0.006,1.50482 l 0.0372,0.77825 1.50482,0.003 c 1.04808,0.002 1.41005,0.064 1.19321,0.20412 l 5.2e-4,5.2e-4 c -0.23623,0.15267 -0.14853,0.20177 0.36329,0.20412 l 0.67437,0.003 -0.0398,-2.23139 -0.0398,-2.230874 -0.12816,1.971464 c -0.0994,1.52983 -0.13422,1.03577 -0.15399,-2.205554 -0.014,-2.29747 -0.0845,-4.49354 -0.1571,-4.88033 -0.27711,-1.47713 0.31647,-2.45945 3.33003,-5.51336 3.07115,-3.1122603 3.01879,-2.9708603 1.46503,-3.9516903 l -0.81494,-0.51418 -0.76533,0.85369 c -0.81161,0.90573 -1.10767,1.07475 -0.89038,0.5085 0.0925,-0.24098 0.0552,-0.29735 -0.12403,-0.18655 -0.14138,0.0873 -0.20714,0.28954 -0.14572,0.44958 0.064,0.16686 -0.19877,0.57383 -0.6165,0.9539503 -0.79022,0.71909 -1.33429,0.91324 -1.33429,0.47594 0,-0.15178 -0.0626,-0.43894 -0.13901,-0.6382103 -0.0946,-0.24661 -0.062,-0.31477 0.10284,-0.2129 0.1779,0.10995 0.19115,0.0148 0.0491,-0.35864 -0.10635,-0.27963 -0.14544,-0.69177 -0.0868,-0.91622 0.12409,-0.47452 -0.54245,-0.67438 -2.25102,-0.67438 h -1.02733 l 0.0677,1.65158 0.0677,1.6515803 -0.6227,-0.6041 c -0.34243,-0.33243 -0.71455,-0.6323003 -0.82682,-0.6661103 -0.1123,-0.0338 -0.17453,-0.23808 -0.13798,-0.45372 0.0514,-0.30324 -0.0287,-0.36682 -0.35243,-0.28215 -0.27942,0.0731 -0.57841,-0.0665 -0.89969,-0.41961 -0.26475,-0.291 -0.36437,-0.46204 -0.22169,-0.37982 0.46632,0.2687 0.27555,-0.35398 -0.28887,-0.9431 -0.26146,-0.27291 -0.40527,-0.41282 -0.55552,-0.447 z m 1.49913,1.33635 c -0.0209,-0.002 -0.0711,0.0178 -0.14521,0.0605 -0.2076,0.11982 -0.21406,0.22243 -0.0269,0.44804 0.13366,0.16105 0.28965,0.293 0.34675,0.293 0.0571,0 0,-0.12535 -0.12713,-0.27853 -0.12706,-0.15319 -0.16215,-0.35515 -0.0775,-0.44855 0.0423,-0.0467 0.0509,-0.0718 0.03,-0.0744 z m 7.07658,1.21647 c -0.0107,-0.0108 -0.0948,0.0518 -0.25942,0.18086 -0.19975,0.15665 -0.36329,0.32023 -0.36329,0.36329 0,0.1708103 0.17072,0.0615 0.44184,-0.28422 0.12907,-0.16458 0.19159,-0.24921 0.18087,-0.25993 z m -11.6923197,0.3116 0.39843,0.5643103 c 0.21912,0.3103 0.46836,0.56659 0.55397,0.57051 0.2555697,0.0108 0.1837797,-0.1033 -0.39842,-0.632 z m 7.6450197,1.8670703 0.46715,0.39585 c 0.25682,0.21744 0.46664,0.42777 0.46664,0.46715 0,0.16607 -0.16643,0.043 -0.53795,-0.39584 z m -4.77284,0.20826 0.50281,0.57051 c 0.47026,0.5334 0.63872,0.66608 0.63872,0.50333 0,-0.0372 -0.25712,-0.29431 -0.57102,-0.57103 z m 6.4332,1.45262 0.46716,0.39533 c 0.25682,0.21745 0.46663,0.42777 0.46663,0.46715 0,0.16606 -0.16642,0.043 -0.53795,-0.39584 z m 1.2051,6.45491 c -0.019,0.047 -0.031,0.14774 -0.031,0.29042 0,0.28539 0.0473,0.40209 0.1049,0.25941 0.0576,-0.14267 0.0576,-0.37615 0,-0.51883 -0.0288,-0.0713 -0.0549,-0.078 -0.0739,-0.031 z m -0.006,2.23604 c -0.0218,0.0218 -0.0364,0.0952 -0.0413,0.216 -0.009,0.21874 0.0396,0.34129 0.10852,0.27234 0.069,-0.069 0.0765,-0.2481 0.0165,-0.39791 -0.0331,-0.0828 -0.0618,-0.11224 -0.0837,-0.0904 z m -2.1854,4.972304 c -0.14268,0.0576 -0.026,0.10491 0.25942,0.10491 0.28537,0 0.4021,-0.0473 0.25942,-0.10491 -0.14268,-0.0576 -0.37615,-0.0576 -0.51884,0 z" /></g></svg>
