<?xml version="1.0" encoding="UTF-8" standalone="no"?>
<!-- Created with Inkscape (http://www.inkscape.org/) -->

<svg
   width="128"
   height="128"
   viewBox="0 0 33.866666 33.866666"
   version="1.1"
   id="svg1"
   xml:space="preserve"
   inkscape:version="1.3.2 (091e20e, 2023-11-25, custom)"
   sodipodi:docname="12.svg"
   xmlns:inkscape="http://www.inkscape.org/namespaces/inkscape"
   xmlns:sodipodi="http://sodipodi.sourceforge.net/DTD/sodipodi-0.dtd"
   xmlns="http://www.w3.org/2000/svg"
   xmlns:svg="http://www.w3.org/2000/svg"><sodipodi:namedview
     id="namedview1"
     pagecolor="#ffffff"
     bordercolor="#666666"
     borderopacity="1.0"
     inkscape:showpageshadow="2"
     inkscape:pageopacity="0.0"
     inkscape:pagecheckerboard="0"
     inkscape:deskcolor="#d1d1d1"
     inkscape:document-units="mm"
     inkscape:zoom="2.7758979"
     inkscape:cx="-0.1801219"
     inkscape:cy="50.614254"
     inkscape:window-width="1920"
     inkscape:window-height="1017"
     inkscape:window-x="-8"
     inkscape:window-y="-8"
     inkscape:window-maximized="1"
     inkscape:current-layer="layer1" /><defs
     id="defs1" /><g
     inkscape:label="Layer 1"
     inkscape:groupmode="layer"
     id="layer1"><path
       id="path1-1-4"
       style="fill:#000000;stroke-width:0.784387"
       d="m 12.002096,7.2553683 c -1.43741,0 -1.66192,0.0489 -1.67431,0.36329 -0.0673,1.70636 -0.0296,6.7682597 0.078,10.4804897 0.0831,2.86511 0.0574,4.51394 -0.0703,4.51394 -0.11589,0 -0.20102,0.84705 -0.20102,1.99884 v 1.99937 l 0.8816,-0.15193 c 1.3494,-0.23223 2.43861,-0.26577 2.43861,-0.0749 0,0.0945 0.15215,0.17208 0.33796,0.17208 0.28447,0 0.31253,-0.13938 0.17622,-0.88212 -0.089,-0.48512 -0.14873,-1.11559 -0.13281,-1.40095 0.0159,-0.28536 0.0437,-2.13657 0.062,-4.11344 0.0183,-1.97687 0.10486,-3.47934 0.19172,-3.33881 0.10646,0.17225 0.18071,0.10704 0.22841,-0.20051 0.0651,-0.41993 0.1533,-0.37927 1.10846,0.50798 0.57076,0.53015 0.85099,0.84126 0.6227,0.69195 -0.22829,-0.14933 0.003,0.16925 0.51418,0.70796 0.51108,0.53869 1.03641,0.9386 1.16737,0.88832 0.13096,-0.0503 1.02012,0.5816 1.97611,1.40457 l 1.7384,1.49655 0.10387,1.85983 0.10335,1.85984 1.34875,0.15296 c 0.74194,0.0842 1.44646,0.11782 1.56528,0.0749 0.14005,-0.0506 0.19639,-1.16301 0.15968,-3.16208 -0.0311,-1.69637 -0.0662,-5.86307 -0.077,-9.25887 l -0.0191,-6.1737797 -1.07384,0.003 c -0.5905,0.002 -1.18592,0.0747 -1.32292,0.16175 -0.16923,0.10758 -0.28194,1.22113 -0.35191,3.4731697 -0.0973,3.13007 -0.42664,7.49033 -0.50437,6.67505 -0.0197,-0.20653 -0.10875,-0.33058 -0.19792,-0.27544 -0.0892,0.0551 -0.90483,-0.64554 -1.81229,-1.55701 -0.90746,-0.91147 -2.25149,-2.14196 -2.9869,-2.7342 -2.55233,-2.05543 -2.75851,-2.30734 -2.59623,-3.17241 0.10284,-0.5482197 0.0766,-0.7243497 -0.092,-0.6201197 -0.16626,0.10276 -0.18659,0.005 -0.0682,-0.33331 0.0923,-0.26334 0.15307,-0.61892 0.13487,-0.79014 -0.0181,-0.17122 -0.0472,-0.52142 -0.0646,-0.77824 -0.03,-0.44272 -0.11783,-0.46664 -1.69189,-0.46664 z m -0.8816,0.41806 c 0.22402,0.002 0.27518,0.062 0.13436,0.15607 -0.12557,0.0839 -0.28104,0.29283 -0.34623,0.46405 -0.0792,0.20801 -0.1239,0.15648 -0.13488,-0.15555 -0.011,-0.31371 0.10275,-0.46692 0.34675,-0.46457 z m 2.1854,0.49093 c 0.0218,-0.0218 0.0501,0.008 0.0832,0.0904 0.0599,0.14981 0.0529,0.32844 -0.016,0.39739 -0.069,0.069 -0.11806,-0.0536 -0.10904,-0.27233 0.005,-0.12089 0.0201,-0.19367 0.0419,-0.21549 z m -2.47272,2.2127797 c 0.0172,-0.0658 0.0406,-0.0565 0.0667,0.0434 0.0522,0.19975 0.0522,0.52681 0,0.72657 -0.0522,0.19975 -0.0946,0.0362 -0.0946,-0.36328 0,-0.19975 0.0107,-0.34087 0.0279,-0.4067 z m 10.77919,0.32402 c -0.019,0.047 -0.0305,0.14774 -0.0305,0.29042 0,0.28538 0.0468,0.4021 0.10439,0.25941 0.0576,-0.14268 0.0576,-0.37615 0,-0.51883 -0.0288,-0.0714 -0.055,-0.078 -0.0739,-0.031 z m -9.4418,0.29042 c 0.0571,0 -0.0652,0.18667 -0.27182,0.41496 -0.2066,0.22829 -0.42245,0.41496 -0.47956,0.41496 -0.0571,0 0.0652,-0.18667 0.27182,-0.41496 0.2066,-0.22829 0.42246,-0.41496 0.47956,-0.41496 z m -1.47588,2.27324 c 0.0435,-0.0393 0.10185,-0.0201 0.17466,0.0527 0.0617,0.0617 0.0849,0.94075 0.0517,1.95389 l -0.0599,1.84226 -0.1757,-1.83089 c -0.12088,-1.26083 -0.12085,-1.90009 0.009,-2.01797 z m -1.5342801,2.62465 c -0.019,0.047 -0.031,0.14774 -0.031,0.29042 0,0.28539 0.0468,0.4021 0.10439,0.25942 0.0576,-0.14268 0.0576,-0.37616 0,-0.51884 -0.0288,-0.0713 -0.0545,-0.078 -0.0734,-0.031 z m 0,1.66036 c -0.019,0.047 -0.031,0.14774 -0.031,0.29042 0,0.28538 0.0468,0.40211 0.10439,0.25942 0.0576,-0.14268 0.0576,-0.37615 0,-0.51883 -0.0288,-0.0713 -0.0545,-0.078 -0.0734,-0.031 z m 7.3194501,0.50436 c 0.12278,-0.004 0.44298,0.22676 0.71107,0.51212 0.26808,0.28536 0.42923,0.51883 0.35864,0.51883 -0.23436,0 -1.29713,-1.02389 -1.06971,-1.03095 z m 1.8123,1.93115 c 0.0618,0.0811 0.41298,0.42288 1.07384,1.05162 0.91115,0.86689 1.69777,1.57665 1.74821,1.57665 0.18307,0 -0.94291,-1.10407 -2.15956,-2.11667 -0.49673,-0.41342 -0.72431,-0.59272 -0.66249,-0.5116 z m 2.89957,2.91507 c -0.0218,0.0218 -0.0365,0.0946 -0.0413,0.21549 -0.009,0.21882 0.0396,0.34129 0.10853,0.27234 0.069,-0.0689 0.0765,-0.24759 0.0165,-0.3974 -0.0331,-0.0828 -0.0618,-0.11226 -0.0837,-0.0904 z m -9.86349,2.89698 c 0.14268,-0.0576 0.37614,-0.0576 0.51883,0 0.14268,0.0576 0.026,0.1049 -0.25941,0.1049 -0.28538,0 -0.4021,-0.0473 -0.25942,-0.1049 z m 10.37663,0.6134 c -0.25683,0.0495 -0.0465,0.0899 0.46716,0.0899 0.51362,0 0.72347,-0.0404 0.46664,-0.0899 -0.25682,-0.0495 -0.67697,-0.0495 -0.9338,0 z" /></g></svg>
