<?xml version="1.0" encoding="UTF-8" standalone="no"?>
<!-- Created with Inkscape (http://www.inkscape.org/) -->

<svg
   width="128"
   height="128"
   viewBox="0 0 33.866666 33.866666"
   version="1.1"
   id="svg1"
   xml:space="preserve"
   inkscape:version="1.3.2 (091e20e, 2023-11-25, custom)"
   sodipodi:docname="13.svg"
   xmlns:inkscape="http://www.inkscape.org/namespaces/inkscape"
   xmlns:sodipodi="http://sodipodi.sourceforge.net/DTD/sodipodi-0.dtd"
   xmlns="http://www.w3.org/2000/svg"
   xmlns:svg="http://www.w3.org/2000/svg"><sodipodi:namedview
     id="namedview1"
     pagecolor="#ffffff"
     bordercolor="#666666"
     borderopacity="1.0"
     inkscape:showpageshadow="2"
     inkscape:pageopacity="0.0"
     inkscape:pagecheckerboard="0"
     inkscape:deskcolor="#d1d1d1"
     inkscape:document-units="mm"
     inkscape:zoom="2.7758979"
     inkscape:cx="-0.1801219"
     inkscape:cy="50.614254"
     inkscape:window-width="1920"
     inkscape:window-height="1017"
     inkscape:window-x="-8"
     inkscape:window-y="-8"
     inkscape:window-maximized="1"
     inkscape:current-layer="layer1" /><defs
     id="defs1" /><g
     inkscape:label="Layer 1"
     inkscape:groupmode="layer"
     id="layer1"><path
       id="path1-1-4-1"
       style="fill:#000000;stroke-width:0.784387"
       d="m 19.127767,7.3022665 -1.68982,5.1e-4 c -1.67749,0 -1.68965,0.004 -1.80092,0.57051 -0.0614,0.3139 -0.0912,1.57102 -0.0651,2.7936305 0.0385,1.79947 -0.003,2.18038 -0.22118,1.99988 -0.14785,-0.12264 -0.21625,-0.30781 -0.15193,-0.41186 0.0643,-0.10405 -0.006,-0.16367 -0.15761,-0.13229 -0.15119,0.0314 -0.25128,-0.0594 -0.22273,-0.20206 0.0285,-0.14267 -0.0574,-0.23629 -0.19068,-0.20774 -0.13335,0.0286 -0.3475,-0.14861 -0.47543,-0.39326 -0.58301,-1.11491 -0.70646,-1.15129 -1.66553,-0.49144 -0.48813,0.33584 -0.94444,0.75964 -1.01441,0.94206 -0.0748,0.19481 -0.23538,0.27011 -0.3886,0.1819 -0.14351,-0.0826 -0.19159,-0.0739 -0.10697,0.0196 0.0846,0.0934 0.0412,0.30578 -0.0966,0.47181 -0.20413,0.24596 -0.12674,0.41227 0.41703,0.898134 0.36707,0.32798 0.66766,0.67352 0.66766,0.76791 0,0.25874 1.12788,1.28726 1.4118,1.28726 0.13643,0 0.24805,0.14275 0.24805,0.31781 0,0.17507 0.332,0.51446 0.73794,0.75396 0.41257,0.24343 0.69373,0.55176 0.63717,0.69919 -0.0557,0.14506 0.0402,0.43614 0.2129,0.64698 0.29503,0.36023 0.30653,0.36101 0.19534,0.009 -0.0651,-0.20568 -0.0417,-0.32668 0.0522,-0.26872 0.0939,0.058 0.1894,0.95734 0.21239,1.99884 0.0278,1.26187 -0.03,1.84959 -0.17311,1.76114 -0.14206,-0.0878 -0.21446,0.51566 -0.21446,1.78232 0,1.05304 0.0683,1.84573 0.15193,1.76216 0.0836,-0.0836 0.12403,-0.71521 0.0899,-1.40405 -0.042,-0.84807 0.009,-1.20835 0.15916,-1.11569 0.13136,0.0812 0.22169,0.92756 0.22169,2.08101 0,1.68168 0.0491,1.95521 0.36329,2.02675 0.19975,0.0455 0.52037,0.005 0.71262,-0.0884 0.19225,-0.0942 0.77059,-0.17105 1.28519,-0.17105 0.80753,0 0.92547,-0.0545 0.85989,-0.3948 -0.0655,-0.33989 -0.17345,-4.86534 -0.12505,-5.23896 0.01,-0.0736 0.56658,0.42581 1.23816,1.11001 1.21528,1.23809 1.22318,1.24229 1.7508,0.89658 0.29157,-0.19105 0.7637,-0.65376 1.04903,-1.02784 l 0.51884,-0.67954 -1.43041,-1.17771 c -0.78698,-0.64743 -1.55204,-1.40353 -1.69964,-1.68104 -0.14762,-0.27748 -0.52972,-0.98373 -0.84956,-1.56889 -0.38135,-0.69768 -0.57883,-1.36174 -0.57412,-1.92908 0.004,-0.47584 0.033,-2.289024 0.0641,-4.029734 z m -3.04116,0.41548 c 0.0983,0 0.13413,0.23347 0.0796,0.51883 -0.0545,0.28536 -0.13503,0.51883 -0.1788,0.51883 -0.0437,0 -0.0796,-0.23347 -0.0796,-0.51883 0,-0.28536 0.0805,-0.51883 0.1788,-0.51883 z m -0.0579,2.23552 c 0.009,0.0158 0.0201,0.0818 0.031,0.2030905 0.0437,0.48511 0.0437,1.27912 0,1.76423 -0.0437,0.48512 -0.0796,0.0881 -0.0796,-0.88212 0,-0.72766 0.0202,-1.1327505 0.0486,-1.0852005 z m -5.70818,2.8680405 c -0.0661,0.0664 0.10053,0.299334 0.37,0.517804 0.68865,0.55829 0.8148,0.49444 0.23719,-0.12041 -0.26765,-0.2849 -0.54107,-0.463824 -0.60719,-0.397394 z m 10.98279,5.688544 c -0.0107,0.0108 0.0523,0.0948 0.18138,0.25942 0.27112,0.3457 0.44132,0.45554 0.44132,0.28473 0,-0.0431 -0.16354,-0.20663 -0.36329,-0.36328 -0.16459,-0.12908 -0.24869,-0.19158 -0.25941,-0.18087 z m -5.95468,1.57768 c -0.019,0.0471 -0.031,0.14775 -0.031,0.29043 0,0.28536 0.0473,0.4021 0.1049,0.25941 0.0576,-0.14268 0.0576,-0.37615 0,-0.51883 -0.0288,-0.0714 -0.0549,-0.078 -0.0739,-0.031 z m 3.94292,4.56665 c -0.019,0.0471 -0.0305,0.14774 -0.0305,0.29042 0,0.28538 0.0468,0.4021 0.10438,0.25942 0.0576,-0.14268 0.0576,-0.37615 0,-0.51883 -0.0288,-0.0713 -0.0545,-0.078 -0.0734,-0.031 z m -3.74138,0.99115 c -0.0218,0.0218 -0.0359,0.0946 -0.0408,0.21549 -0.009,0.21882 0.0396,0.34129 0.10852,0.27234 0.069,-0.069 0.0765,-0.24756 0.0165,-0.39739 -0.0331,-0.0828 -0.0618,-0.11226 -0.0837,-0.0904 z m 2.07378,0.81546 c -0.20192,0.0526 -0.0867,0.0995 0.2558,0.10335 0.34242,0.004 0.50689,-0.0387 0.36638,-0.0956 -0.14051,-0.057 -0.42025,-0.06 -0.62218,-0.008 z" /></g></svg>
