<?xml version="1.0" encoding="UTF-8" standalone="no"?>
<!-- Created with Inkscape (http://www.inkscape.org/) -->

<svg
   width="128"
   height="128"
   viewBox="0 0 33.866666 33.866666"
   version="1.1"
   id="svg1"
   xml:space="preserve"
   inkscape:version="1.3.2 (091e20e, 2023-11-25, custom)"
   sodipodi:docname="14.svg"
   xmlns:inkscape="http://www.inkscape.org/namespaces/inkscape"
   xmlns:sodipodi="http://sodipodi.sourceforge.net/DTD/sodipodi-0.dtd"
   xmlns="http://www.w3.org/2000/svg"
   xmlns:svg="http://www.w3.org/2000/svg"><sodipodi:namedview
     id="namedview1"
     pagecolor="#ffffff"
     bordercolor="#666666"
     borderopacity="1.0"
     inkscape:showpageshadow="2"
     inkscape:pageopacity="0.0"
     inkscape:pagecheckerboard="0"
     inkscape:deskcolor="#d1d1d1"
     inkscape:document-units="mm"
     inkscape:zoom="2.7758979"
     inkscape:cx="-0.1801219"
     inkscape:cy="50.614254"
     inkscape:window-width="1920"
     inkscape:window-height="1017"
     inkscape:window-x="-8"
     inkscape:window-y="-8"
     inkscape:window-maximized="1"
     inkscape:current-layer="layer1" /><defs
     id="defs1" /><g
     inkscape:label="Layer 1"
     inkscape:groupmode="layer"
     id="layer1"><path
       id="path1-1-4-1-9-8"
       style="fill:#000000;stroke-width:0.784387"
       d="m 16.069697,6.9483574 c -0.37247,0.008 -0.78818,0.12465 -0.92346,0.25993 -0.3299,0.32992 0.0874,0.31785 0.46457,-0.0134 0.16248,-0.14267 0.11981,-0.0491 -0.0946,0.20774 -0.21442,0.25682 -0.51928,0.46664 -0.678,0.46664 -0.15871,0 -0.52029,0.23141 -0.80305,0.51418 -0.28277,0.28277 -0.55286,0.49312 -0.60048,0.46716 -0.0476,-0.026 -0.42658,0.34998 -0.84181,0.83509 -0.41524,0.4851106 -0.85107,0.8816006 -0.96842,0.8816006 -0.11736,0 -0.39668,0.23346 -0.62115,0.51883 -0.22447,0.28535 -0.50647,0.51883 -0.62631,0.51883 -0.128,0 -0.10164,-0.14939 0.0636,-0.36277 0.2628,-0.33938 0.25376,-0.34196 -0.13074,-0.0331 -1.74832,1.40485 -3.3306,2.78625 -3.40135,2.96881 -0.0467,0.12039 0.4075,-0.19914 1.00924,-0.71003 1.71188,-1.45348 2.29237,-1.90256 2.29237,-1.77354 0,0.17401 -1.61125,1.6106 -2.30839,2.05827 -0.32852,0.21096 -0.59355,0.4444 -0.58962,0.51884 0.004,0.0744 0.24778,0.41566 0.54157,0.75809 0.29378,0.34241 0.47164,0.50596 0.39532,0.36328 -0.0764,-0.14268 -0.054,-0.25941 0.0491,-0.25941 0.25588,0 0.90186,0.73267 0.76585,0.86868 -0.0601,0.0601 0.0564,0.23948 0.2589,0.39842 0.33481,0.26277 0.3422,0.25637 0.0832,-0.0739 -0.52881,-0.67429 -0.005,-0.36958 1.78128,1.03766 3.0422,2.39566 3.88199,3.02383 4.41834,3.30522 0.28536,0.14971 0.54094,0.27215 0.56792,0.27286 0.027,7e-4 0.36993,-0.34816 0.76171,-0.77567 0.52211,-0.56968 0.65449,-0.84681 0.4961,-1.03766 -0.11887,-0.14321 -0.13427,-0.26057 -0.0346,-0.26097 0.30894,-0.002 -3.29709,-3.29269 -4.2292,-3.86023 -0.97948,-0.59636 -1.08288,-0.82053 -0.46715,-1.01595 0.22829,-0.0725 0.41496,-0.2062 0.41496,-0.29714 0,-0.0909 0.397,-0.43429 0.88212,-0.76275 0.48512,-0.32847 1.0531,-0.78465 1.26245,-1.01389 0.20935,-0.22925 0.47433,-0.41703 0.58808,-0.41703 0.11374,0 0.32574,-0.16301 0.47181,-0.36277 0.14606,-0.19975 0.3597,-0.36328 0.47439,-0.36328 0.33947,0 1.31594,-0.8483506 1.19734,-1.0402506 -0.06,-0.0971 -0.013,-0.23615 0.1049,-0.30902 0.11781,-0.0729 0.14419,-0.24297 0.0584,-0.37776 -0.0857,-0.13479 -0.15963,-0.29119 -0.16434,-0.3483 -0.005,-0.0571 -0.28568,-0.47756 -0.62528,-0.93431 -0.5072,-0.68218 -0.73875,-0.8281 -1.29501,-0.817 z m 1.63298,2.80189 c 0.14122,-0.0525 0.20312,-2.5e-4 0.0832,0.19379 -0.0702,0.1135206 -0.33244,0.3135706 -0.58291,0.4449406 -0.45219,0.23718 -0.45254,0.23599 -0.06,-0.20619 0.19804,-0.2230506 0.41844,-0.3800806 0.55966,-0.4325406 z m -5.43378,0.014 c -0.0249,-0.0132 -0.13505,0.0413 -0.34675,0.15399 -0.25683,0.1368506 -0.46715,0.2921806 -0.46715,0.3452006 0,0.21982 0.38386,0.0729 0.64905,-0.24856 0.12914,-0.1565406 0.18974,-0.2374506 0.16485,-0.2506306 z m 3.45922,1.1436006 c -0.009,0.0251 -0.0487,0.0781 -0.12247,0.16019 -0.51183,0.56991 -1.65985,1.47653 -1.65985,1.31052 0,-0.047 0.49008,-0.49135 1.08934,-0.98702 0.46492,-0.38456 0.71928,-0.55911 0.69298,-0.48369 z m 2.26343,1.61075 c -0.0561,-0.0277 -0.0715,-0.0114 -0.0326,0.0553 0.14788,0.25389 -0.0874,0.54109 -0.96221,1.17358 -0.28771,0.208 -0.58469,0.62324 -0.65991,0.92294 -0.0952,0.37934 -0.18683,0.46371 -0.30127,0.27853 -0.12605,-0.20394 -0.19545,-0.18475 -0.29766,0.0816 -0.15583,0.40608 -0.004,0.72449 0.34726,0.72606 0.13595,5.7e-4 0.48491,0.21037 0.77567,0.46663 0.29071,0.25622 0.40747,0.38484 0.25941,0.28526 -0.42921,-0.28865 -0.31179,-0.0244 0.18139,0.40824 0.24791,0.21744 0.38263,0.27859 0.2992,0.13591 -0.0834,-0.14268 -0.0527,-0.25941 0.0682,-0.25941 0.12089,0 0.21962,0.0801 0.21962,0.17776 0,0.0976 0.41882,0.44158 0.93018,0.76481 0.95451,0.60335 1.14764,0.94826 0.28112,0.50178 -0.57921,-0.29843 -0.42822,-0.1499 1.07177,1.05627 0.62778,0.50482 1.21011,1.01289 1.29397,1.12861 0.0999,0.13809 0.15472,0.13928 0.15865,0.003 0.003,-0.11414 -0.39163,-0.5661 -0.8785,-1.00355 -0.94917,-0.85284 -0.6979,-0.81823 0.41135,0.0563 0.37097,0.29248 0.67488,0.68528 0.67489,0.87282 0,0.35286 -0.53468,0.67156 -0.82527,0.49196 -0.0909,-0.0562 -0.29293,0.0604 -0.44855,0.2589 -0.25604,0.3266 -0.24809,0.33372 0.0806,0.076 0.19975,-0.15665 0.36277,-0.19522 0.36277,-0.0853 0,0.10992 -0.71663,0.79906 -1.59267,1.53066 -0.87604,0.73159 -1.95978,1.6603 -2.40812,2.06447 l -0.81494,0.73484 0.85215,0.76998 c 0.95097,0.85915 1.00531,0.87549 1.54564,0.46612 0.21085,-0.15973 0.50461,-0.24409 0.65319,-0.18707 0.14857,0.057 0.33115,0.005 0.40566,-0.11523 0.0844,-0.13647 -0.005,-0.17419 -0.23823,-0.0997 -0.25181,0.0805 -0.18384,-0.0559 0.20826,-0.41755 0.32026,-0.29539 0.76616,-0.53691 0.99063,-0.53691 0.22447,0 0.80316,-0.35711 1.28571,-0.79324 0.48256,-0.43612 1.21621,-0.99714 1.63091,-1.24695 0.4147,-0.24981 1.20788,-0.92204 1.76217,-1.49345 0.55431,-0.57139 1.12868,-0.99221 1.27692,-0.93534 0.14823,0.0569 0.32367,-0.0369 0.38964,-0.20877 0.0751,-0.19569 -0.18028,-0.58985 -0.68264,-1.05369 -0.44125,-0.40743 -1.0977,-1.0122 -1.45883,-1.3441 -0.36114,-0.33191 -0.77322,-0.60358 -0.91622,-0.60358 -0.14303,0 -0.19845,-0.0616 -0.12299,-0.13694 0.0754,-0.0754 -0.0403,-0.23896 -0.25683,-0.36329 -1.29563,-0.74393 -3.12554,-2.11269 -3.06545,-2.29288 0.0817,-0.24508 -0.82806,-1.01229 -1.27899,-1.07849 -0.16791,-0.0246 -0.50056,-0.25552 -0.73949,-0.51315 -0.26859,-0.28962 -0.29591,-0.36394 -0.0713,-0.19533 0.51505,0.38675 0.45097,0.15579 -0.0879,-0.31678 -0.12395,-0.10872 -0.22039,-0.18006 -0.27647,-0.20774 z m -4.46123,0.12454 c 0.0107,0.0107 -0.0519,0.0948 -0.18087,0.25942 -0.27111,0.3457 -0.44131,0.45554 -0.44131,0.28473 0,-0.0431 0.16302,-0.20662 0.36277,-0.36328 0.16458,-0.12907 0.24869,-0.19159 0.25941,-0.18087 z m 9.03924,4.39456 c 0.12568,0.0621 0.5506,0.39163 1.18288,0.94362 0.42837,0.37397 0.70864,0.67828 0.6227,0.67592 -0.0859,-0.002 -0.62353,-0.43352 -1.19424,-0.95808 -0.56369,-0.51809 -0.73702,-0.72357 -0.61134,-0.66146 z m 2.27532,1.9296 c 0.0349,-0.0143 0.10141,-0.005 0.19327,0.03 0.17715,0.068 0.32194,0.16028 0.32194,0.20515 0,0.16809 -0.3954,0.0737 -0.51728,-0.12351 -0.0364,-0.0588 -0.0335,-0.0971 0.002,-0.11162 z" /></g></svg>
