<?xml version="1.0" encoding="UTF-8" standalone="no"?>
<!-- Created with Inkscape (http://www.inkscape.org/) -->

<svg
   width="128"
   height="128"
   viewBox="0 0 33.866666 33.866666"
   version="1.1"
   id="svg1"
   xml:space="preserve"
   inkscape:version="1.3.2 (091e20e, 2023-11-25, custom)"
   sodipodi:docname="15.svg"
   xmlns:inkscape="http://www.inkscape.org/namespaces/inkscape"
   xmlns:sodipodi="http://sodipodi.sourceforge.net/DTD/sodipodi-0.dtd"
   xmlns="http://www.w3.org/2000/svg"
   xmlns:svg="http://www.w3.org/2000/svg"><sodipodi:namedview
     id="namedview1"
     pagecolor="#ffffff"
     bordercolor="#666666"
     borderopacity="1.0"
     inkscape:showpageshadow="2"
     inkscape:pageopacity="0.0"
     inkscape:pagecheckerboard="0"
     inkscape:deskcolor="#d1d1d1"
     inkscape:document-units="mm"
     inkscape:zoom="2.7758979"
     inkscape:cx="-0.1801219"
     inkscape:cy="50.614254"
     inkscape:window-width="1920"
     inkscape:window-height="1017"
     inkscape:window-x="-8"
     inkscape:window-y="-8"
     inkscape:window-maximized="1"
     inkscape:current-layer="layer1" /><defs
     id="defs1" /><g
     inkscape:label="Layer 1"
     inkscape:groupmode="layer"
     id="layer1"><path
       id="path1-1-57-2"
       style="fill:#000000;stroke-width:0.784387"
       d="m 9.3742063,6.6218183 v 3.32434 c 0,1.8286297 0.008,3.3842897 0.0181,3.4571597 0.01,0.0729 -0.0729,0.1896 -0.18345,0.25941 -0.11805,0.0746 -0.26157,2.97408 -0.3483,7.02645 l -0.12971,6.05596 a 16.394094,16.394094 0 0 0 0.49971,0.49971 l 1.3900997,-0.92139 c 1.04916,-0.69587 2.01626,-1.28117 2.14922,-1.3007 0.24312,-0.0357 1.00682,-0.54489 1.82883,-1.21905 0.24356,-0.19976 0.56143,-0.36328 0.70642,-0.36328 0.145,0 0.54958,-0.2401 0.89865,-0.53382 0.76421,-0.64304 1.05249,-0.57345 2.3027,0.55862 0.51365,0.46512 1.18805,0.9381 1.49862,1.0511 0.31056,0.11302 0.54401,0.31188 0.51883,0.44184 -0.0252,0.12997 0.16976,0.26946 0.43357,0.30954 0.26379,0.0401 0.53096,0.20557 0.59324,0.36793 0.0623,0.16237 0.20307,0.29559 0.31316,0.29559 0.11008,0 0.34038,0.13989 0.5116,0.3111 0.17121,0.17122 0.4808,0.3116 0.68781,0.3116 0.41264,0 1.10094,-0.9003 1.19011,-1.55649 0.0419,-0.30819 -0.12489,-0.20473 -0.64802,0.40308 -0.52346,0.60797 -0.77625,0.76551 -0.98237,0.61133 -2.4757,-1.85188 -3.49385,-2.64516 -3.49385,-2.7218 0,-0.087 2.17946,1.40941 3.30316,2.26808 0.50026,0.38227 0.50336,0.3812 1.10639,-0.35037 0.33255,-0.40345 0.67667,-0.68902 0.76481,-0.63458 0.0881,0.0544 0.33741,-0.0323 0.55398,-0.19327 0.38349,-0.28504 0.38142,-0.30555 -0.0734,-0.76636 -0.31217,-0.31633 -0.46663,-0.37671 -0.46663,-0.18294 0,0.19636 -0.16545,0.13444 -0.51263,-0.19172 -0.28185,-0.26477 -0.46731,-0.55473 -0.41186,-0.6444 0.0554,-0.0897 -0.009,-0.23056 -0.14211,-0.31316 -0.15177,-0.0938 -0.18753,-0.0598 -0.0951,0.0899 0.22365,0.36187 -0.0542,0.28797 -0.72864,-0.19223 -0.33287,-0.23702 -0.54316,-0.53117 -0.46715,-0.65423 0.0809,-0.13096 0.0417,-0.16366 -0.0951,-0.0791 -0.28908,0.17866 -1.28312,-0.44628 -1.28312,-0.80667 0,-0.14496 -0.25713,-0.42898 -0.57103,-0.63097 -0.31389,-0.202 -1.0168,-0.73735 -1.56218,-1.18959 l -0.99167,-0.82217 -0.81183,0.56275 c -0.44667,0.30954 -0.90183,0.50759 -1.01079,0.44029 -0.10896,-0.0673 -0.41806,0.0711 -0.68678,0.30747 -0.2687,0.2364 -0.3572,0.36143 -0.19689,0.27802 0.18741,-0.0975 0.24072,-0.0692 0.14883,0.0796 -0.19091,0.3089 -2.61948,1.46688 -2.61948,1.24902 0,-0.0939 0.0769,-0.17053 0.17053,-0.17053 0.0937,0 0.10033,-0.4906 0.015,-1.08986 -0.0854,-0.59926 -0.15523,-1.36962 -0.15555,-1.71204 -4.7e-4,-0.53061 0.0257,-0.56147 0.17777,-0.20774 0.12067,0.28072 0.17334,-0.0551 0.1633,-1.03766 -0.0122,-1.18973 -0.0393,-1.30202 -0.14935,-0.62218 -0.0845,0.52183 -0.14641,-0.11642 -0.16743,-1.71824 -0.0194,-1.48042 0.0452,-2.49994 0.15451,-2.43241 0.10354,0.064 0.13567,0.2536 0.0713,0.42116 -0.0672,0.17515 0.003,0.3059 0.16485,0.30747 0.15489,0.002 1.07126,0.5152 2.03657,1.14154 2.0549,1.33331 2.64238,1.41118 3.83336,0.51004 0.44837,-0.33926 0.74596,-0.6165 0.66094,-0.6165 -0.085,0 -0.46097,0.23346 -0.83509,0.51883 -0.37413,0.28535 -0.93858,0.51884 -1.2547,0.51884 -0.55705,0 -3.49068,-1.664 -3.78995,-2.14974 -0.0803,-0.13029 0.0839,-0.0905 0.36483,0.0884 1.78277,1.1347 3.10188,1.85415 3.40031,1.85415 0.18972,0 0.91542,-0.37089 1.61231,-0.82372 0.69691,-0.45284 1.34664,-0.77425 1.44383,-0.71417 0.0972,0.0601 0.17674,-0.032 0.17674,-0.20464 0,-0.17263 0.21032,-0.46143 0.46715,-0.64182 1.15189,-0.80909 2.13714,-1.40517 2.3828,-1.44125 0.14692,-0.0216 0.38299,-0.16878 0.52452,-0.32763 0.20597,-0.23123 0.17465,-0.23002 -0.15761,0.009 -0.41075,0.29464 -0.41138,0.29322 -0.0202,-0.16536 0.41981,-0.4920397 0.87299,-0.6403397 0.62167,-0.20361 -0.0824,0.14271 -0.0804,0.1965 0.005,0.12041 0.0849,-0.0761 0.12333,-0.1783497 0.0853,-0.2273797 -0.038,-0.049 0.0589,-0.24383 0.21549,-0.43253 0.24895,-0.29996 0.17456,-0.48518 -0.59015,-1.47639 l -0.87436,-1.13379 -0.55139,0.34107 c -0.30333,0.18748 -0.83165,0.59025 -1.17409,0.89555 -0.76428,0.68141 -3.77319,2.8859197 -4.12119,3.0194597 -0.13926,0.0534 -1.60333,-0.75503 -3.25407,-1.7962797 -1.65073,-1.04123 -3.35209,-2.07225 -3.78013,-2.29185 z m -0.35656,1.53944 c -0.0218,0.0218 -0.037,0.0946 -0.0419,0.21549 -0.009,0.21874 0.0401,0.3418 0.10903,0.27285 0.069,-0.069 0.0764,-0.2481 0.0165,-0.39791 -0.0331,-0.0828 -0.0619,-0.11225 -0.0837,-0.0904 z m 0.0977,1.23868 c -0.0365,-0.0357 -0.0946,-0.008 -0.17931,0.0765 -0.12704,0.12703 -0.16819,0.33222 -0.0915,0.45631 0.21467,0.3473497 0.32298,0.2700997 0.32298,-0.231 0,-0.16735 -0.0157,-0.26594 -0.0522,-0.30179 z m -0.30489,1.8743097 c -0.0218,0.0218 -0.037,0.0952 -0.0419,0.216 -0.009,0.21875 0.0401,0.34129 0.10904,0.27234 0.069,-0.0689 0.0759,-0.24808 0.016,-0.39791 -0.0331,-0.0828 -0.0614,-0.11224 -0.0832,-0.0904 z m 8.1948497,7.42693 c 0.0674,-0.0257 0.12565,-0.0257 0.15761,0.006 0.0639,0.0639 -0.0516,0.17991 -0.25631,0.25787 -0.29578,0.11263 -0.3192,0.0887 -0.11576,-0.11627 0.0704,-0.0709 0.14701,-0.12211 0.21446,-0.1478 z m 0.002,3.18896 v 5.1e-4 c 0.15106,-0.0222 0.28258,0.002 0.40463,0.0693 0.29461,0.16484 0.26926,0.19487 -0.15865,0.18293 -0.2808,-0.008 -0.69774,0.0537 -0.92604,0.13643 -0.22829,0.0828 -0.15661,1.7e-4 0.15916,-0.18293 0.19935,-0.11561 0.36985,-0.18397 0.5209,-0.20619 z m 1.2914,0.72037 c 0.0107,-0.0107 0.0948,0.0518 0.25941,0.18086 0.19976,0.15665 0.36329,0.32023 0.36329,0.36329 0,0.17081 -0.1702,0.061 -0.44132,-0.28474 -0.12907,-0.16459 -0.1921,-0.2487 -0.18138,-0.25941 z" /></g></svg>
