<?xml version="1.0" encoding="UTF-8" standalone="no"?>
<!-- Created with Inkscape (http://www.inkscape.org/) -->

<svg
   width="128"
   height="128"
   viewBox="0 0 33.866666 33.866666"
   version="1.1"
   id="svg1"
   xml:space="preserve"
   inkscape:version="1.3.2 (091e20e, 2023-11-25, custom)"
   sodipodi:docname="16.svg"
   xmlns:inkscape="http://www.inkscape.org/namespaces/inkscape"
   xmlns:sodipodi="http://sodipodi.sourceforge.net/DTD/sodipodi-0.dtd"
   xmlns="http://www.w3.org/2000/svg"
   xmlns:svg="http://www.w3.org/2000/svg"><sodipodi:namedview
     id="namedview1"
     pagecolor="#ffffff"
     bordercolor="#666666"
     borderopacity="1.0"
     inkscape:showpageshadow="2"
     inkscape:pageopacity="0.0"
     inkscape:pagecheckerboard="0"
     inkscape:deskcolor="#d1d1d1"
     inkscape:document-units="mm"
     inkscape:zoom="2.7758979"
     inkscape:cx="-0.1801219"
     inkscape:cy="50.614254"
     inkscape:window-width="1920"
     inkscape:window-height="1017"
     inkscape:window-x="-8"
     inkscape:window-y="-8"
     inkscape:window-maximized="1"
     inkscape:current-layer="layer1" /><defs
     id="defs1" /><g
     inkscape:label="Layer 1"
     inkscape:groupmode="layer"
     id="layer1"><path
       id="path1-1-11-6-0-7"
       style="fill:#000000;stroke-width:0.784387"
       d="m 16.878854,8.8810686 v 5.1e-4 c 1.6e-4,-3e-5 8.8e-4,-4.9e-4 0.001,-5.1e-4 z m 0,5.1e-4 c -0.0349,0.006 -0.10711,0.0521 -0.2129,0.13798 -0.19189,0.15561 -0.29963,0.36199 -0.23978,0.45889 0.0599,0.0969 -0.268,0.42585 -0.72864,0.7307004 -0.46065,0.30484 -0.83716,0.68213 -0.83716,0.83819 0,0.15604 -0.14208,0.28371 -0.31574,0.28371 -0.17366,0 -0.42401,0.23682 -0.55604,0.52658 -0.13203,0.28978 -0.35489,0.48272 -0.49506,0.42891 -0.14016,-0.0538 -0.42669,0.10642 -0.63717,0.35554 l -0.38292,0.4532 0.51883,-0.41393 c 0.28536,-0.22751 0.10238,0.0229 -0.40618,0.55656 -0.50858,0.53365 -0.99206,0.92808 -1.07487,0.87694 -0.0828,-0.0511 -0.21816,0.0162 -0.30075,0.14987 -0.1027,0.16615 -0.0583,0.18782 0.14107,0.0677 0.24842,-0.14975 0.24848,-0.12272 -0.002,0.185 -0.20619,0.25403 -0.33663,0.29001 -0.4408,0.12144 -0.10708,-0.17323 -0.18775,-0.17569 -0.29043,-0.01 -0.0781,0.12633 -0.0902,0.31284 -0.0274,0.41444 0.12775,0.2067 -1.7365196,2.10022 -2.0613796,2.09393 -0.11414,-0.002 0.25921,-0.41912 0.82993,-0.92604 0.57073,-0.50692 0.9401296,-0.92497 0.8206196,-0.92966 -0.4029496,-0.0148 -1.8422796,1.65016 -1.8696596,2.16266 -0.0148,0.27826 0.0712,0.48715 0.19069,0.46457 0.11954,-0.0226 0.22085,0.0713 0.22634,0.20825 0.005,0.13697 0.14538,0.37045 0.3111,0.51884 0.26004,0.23291 0.26364,0.21996 0.0264,-0.0935 -0.1751,-0.23141 -0.1929,-0.36328 -0.0491,-0.36328 0.23027,0 0.77375,0.82368 0.7059,1.0697 -0.0206,0.0747 0.12325,0.26133 0.3193596,0.41496 0.32167,0.25202 0.32875,0.24397 0.0718,-0.0837 -0.5069596,-0.64643 -0.009,-0.38574 0.99115,0.51884 0.53652,0.48511 1.98612,1.79625 3.22099,2.91403 1.23487,1.11778 2.32043,2.00538 2.41226,1.97197 0.0918,-0.0334 0.64062,-0.51053 1.21905,-1.05988 0.57843,-0.54933 1.13449,-0.94702 1.2361,-0.88419 0.10162,0.0628 0.65846,-0.34469 1.23713,-0.90537 0.57865,-0.56068 1.18825,-1.09639 1.35496,-1.19062 0.42825,-0.24206 2.00528,-1.76905 2.62154,-2.53835 0.2852,-0.35603 0.63183,-0.60377 0.77101,-0.55035 0.13918,0.0534 0.30868,0.008 0.37621,-0.10129 0.13777,-0.22292 -2.87216,-3.31142 -3.22719,-3.31142 -0.12501,0 -0.16923,0.0931 -0.0987,0.20722 0.31973,0.51732 -0.30454,0.12653 -1.04799,-0.65629 -0.7792,-0.82045 -0.78661,-0.84054 -0.15193,-0.40514 0.36752,0.25212 0.7238,0.5492 0.7922,0.6599 0.0684,0.11068 0.20609,0.15071 0.3054,0.0894 0.19057,-0.11777 -1.41097,-1.7632 -1.71617,-1.7632 -0.0979,0 -0.11885,-0.0954 -0.0465,-0.21239 0.0722,-0.11698 0.0529,-0.18692 -0.0434,-0.15554 -0.23845,0.0776 -1.33319,-0.79937 -1.26762,-1.01544 0.0559,-0.18419 -1.0258,-1.4128404 -1.2547,-1.4252404 -0.41748,-0.0227 -1.06192,-0.56353 -0.93121,-0.78135 0.0453,-0.0755 0.0476,-0.10936 0.0134,-0.10387 z m -0.0114,4.9841904 c 0.0713,0.009 0.14084,0.0413 0.2186,0.092 0.2024,0.13206 0.34246,0.34889 0.31109,0.48214 -0.0315,0.13406 0.0482,0.17725 0.1788,0.0966 0.12974,-0.0802 0.29558,-0.0551 0.36845,0.0553 0.15088,0.22879 1.91665,1.79865 2.80758,2.49649 0.52045,0.40767 0.55924,0.5091 0.30903,0.8108 -0.15721,0.18957 -0.58622,0.46995 -0.95292,0.62322 -0.66952,0.27987 -1.13289,0.63862 -2.43964,1.88825 -0.38792,0.37097 -0.73808,0.67438 -0.77825,0.67438 -0.0402,0 -0.47357,-0.43819 -0.96325,-0.9741 -0.48967,-0.5359 -1.09372,-1.08051 -1.34203,-1.21026 -0.24832,-0.12976 -0.42801,-0.34517 -0.39946,-0.47852 0.0285,-0.13339 -0.0651,-0.21925 -0.20774,-0.19069 -0.14264,0.0286 -0.23756,-0.0591 -0.21136,-0.19482 0.0262,-0.13572 -0.15922,-0.31256 -0.41186,-0.39274 l -0.4594,-0.14573 0.47697,-0.17673 c 0.28802,-0.10655 0.41772,-0.27178 0.32763,-0.41755 -0.0932,-0.15078 -0.0583,-0.1852 0.0925,-0.092 0.13916,0.086 0.30659,-0.0103 0.39532,-0.22738 0.0846,-0.20709 0.29234,-0.3762 0.46199,-0.3762 0.16966,0 0.34328,-0.18202 0.38603,-0.40411 0.0428,-0.22209 0.43879,-0.78263 0.88004,-1.2454 0.50865,-0.53345 0.73794,-0.71912 0.95188,-0.69299 z m 0.0243,0.2279 c 0.006,-0.0325 -0.13392,0.0664 -0.41444,0.26458 -0.30904,0.2183 -0.60982,0.51362 -0.66818,0.65629 -0.16105,0.39389 -0.045,0.3199 0.62064,-0.39687 0.30427,-0.32765 0.45602,-0.49153 0.46198,-0.524 z m 6.26939,1.59577 c 0.0107,-0.0107 0.0948,0.0513 0.25941,0.18035 0.19976,0.15666 0.36329,0.32021 0.36329,0.36328 0,0.17081 -0.17021,0.0615 -0.44132,-0.28422 -0.12908,-0.16458 -0.1921,-0.24869 -0.18138,-0.25941 z m 0.83044,0.82992 c 0.0107,-0.0107 0.0948,0.0518 0.25941,0.18087 0.19975,0.15666 0.36329,0.32021 0.36329,0.36328 0,0.17081 -0.17071,0.061 -0.44183,-0.28474 -0.12908,-0.16459 -0.19158,-0.24869 -0.18087,-0.25941 z m -9.42733,2.91145 c 0.12279,-0.004 0.44246,0.22727 0.71055,0.51263 0.26808,0.28536 0.42974,0.51883 0.35915,0.51883 -0.23435,0 -1.29712,-1.02439 -1.0697,-1.03146 z m 1.22938,1.13481 0.46715,0.39533 c 0.25683,0.21746 0.46716,0.42778 0.46716,0.46715 0,0.16608 -0.16693,0.0435 -0.53847,-0.39532 z" /></g></svg>
