<?xml version="1.0" encoding="UTF-8" standalone="no"?>
<!-- Created with Inkscape (http://www.inkscape.org/) -->

<svg
   width="128"
   height="128"
   viewBox="0 0 33.866666 33.866666"
   version="1.1"
   id="svg1"
   xml:space="preserve"
   inkscape:version="1.3.2 (091e20e, 2023-11-25, custom)"
   sodipodi:docname="17.svg"
   xmlns:inkscape="http://www.inkscape.org/namespaces/inkscape"
   xmlns:sodipodi="http://sodipodi.sourceforge.net/DTD/sodipodi-0.dtd"
   xmlns="http://www.w3.org/2000/svg"
   xmlns:svg="http://www.w3.org/2000/svg"><sodipodi:namedview
     id="namedview1"
     pagecolor="#ffffff"
     bordercolor="#666666"
     borderopacity="1.0"
     inkscape:showpageshadow="2"
     inkscape:pageopacity="0.0"
     inkscape:pagecheckerboard="0"
     inkscape:deskcolor="#d1d1d1"
     inkscape:document-units="mm"
     inkscape:zoom="2.7758979"
     inkscape:cx="-0.1801219"
     inkscape:cy="50.614254"
     inkscape:window-width="1920"
     inkscape:window-height="1017"
     inkscape:window-x="-8"
     inkscape:window-y="-8"
     inkscape:window-maximized="1"
     inkscape:current-layer="layer1" /><defs
     id="defs1" /><g
     inkscape:label="Layer 1"
     inkscape:groupmode="layer"
     id="layer1"><path
       id="path1-1-57-2-1-7"
       style="fill:#000000;stroke-width:0.784387"
       d="m 19.866918,6.1481764 -0.96945,0.87695 c -0.53327,0.48249 -1.32804,1.27661 -1.7663,1.76475 -0.43827,0.48813 -0.83086,0.85328 -0.87281,0.81132 -0.042,-0.042 -0.57541,0.3991796 -1.18495,0.9802996 -2.25983,2.15445 -3.49621,3.23598 -3.70003,3.23598 -0.11523,0 0.24311,0.41912 0.79634,0.93173 0.55636,0.51551 1.15622,0.89859 1.34255,0.85679 0.22409,-0.0503 0.31093,0.0368 0.25838,0.26097 -0.0435,0.18528 0.11461,0.57092 0.3514,0.85628 l 0.43047,0.51883 -0.25167,-0.51883 c -0.24944,-0.51427 -0.24803,-0.51555 0.18035,-0.1354 0.2377,0.21091 0.53058,0.32224 0.65061,0.24805 0.12984,-0.0802 0.17066,-0.0106 0.10077,0.17157 -0.07,0.18254 0.0594,0.40085 0.32039,0.54053 0.24078,0.12887 0.41455,0.34594 0.38654,0.48266 -0.0546,0.26617 1.3902,1.83646 1.54616,1.68052 0.0512,-0.0512 0.2102,0.0486 0.35347,0.22117 0.21485,0.2589 0.19276,0.33822 -0.12609,0.45321 -0.21262,0.0766 -0.70612,0.47438 -1.09658,0.88418 -0.39046,0.40978 -0.63103,0.60531 -0.53485,0.43408 0.11289,-0.20095 0.0168,-0.17299 -0.27078,0.0791 -0.24499,0.21481 -0.50075,0.5654 -0.56844,0.77876 -0.0677,0.21336 -0.3271,0.49619 -0.5762,0.6289 -0.42447,0.22614 -0.43368,0.21617 -0.14934,-0.15606 0.16686,-0.21845 0.006,-0.1257 -0.35605,0.20567 -0.36255,0.33136 -0.61021,0.68188 -0.55036,0.77877 0.0598,0.0969 -0.13415,0.26852 -0.43098,0.38137 -0.44209,0.16809 -0.50242,0.27394 -0.33486,0.58704 0.11251,0.21023 0.34965,0.50283 0.5271,0.65009 0.27805,0.23078 0.37871,0.50788 0.2713,0.55397 l 0.5147,0.46302 c 0.34178,0.30719 0.64581,0.42744 0.81855,0.3235 0.21564,-0.12976 0.21315,-0.09 -0.0103,0.18552 -0.15666,0.19314 -0.29651,0.34579 -0.31109,0.33951 -0.0146,-0.006 -0.25488,-0.30973 -0.53382,-0.67438 l -0.48111,-0.62942 -5.2e-4,5.2e-4 c -0.0405,0.0115 -0.10642,-0.005 -0.19843,-0.062 -0.1393,-0.0861 0.071,0.23323 0.46715,0.71003 0.39613,0.47679 0.76927,0.86841 0.82889,0.87075 0.23151,0.008 3.52893,-3.44945 3.40651,-3.57187 -0.0714,-0.0714 0.25604,-0.3736 0.72761,-0.67128 0.47156,-0.29769 0.80598,-0.62411 0.74362,-0.72502 -0.0624,-0.10092 0.0976,-0.36044 0.35553,-0.57671 0.25791,-0.21627 0.93617,-0.8832 1.50689,-1.4826 l 1.03766,-1.08985 -0.49196,-0.40308 c -0.27057,-0.22166 -1.51686,-1.35944 -2.76986,-2.52853 -1.25298,-1.1691 -2.54967,-2.29844 -2.88096,-2.5094 -0.33128,-0.21097 -0.60203,-0.45814 -0.60203,-0.54932 0,-0.27834 2.83593,-2.69855 3.16208,-2.69855 0.16791,0 0.73947,-0.42208 1.26969,-0.9374096 0.53021,-0.51532 0.96736,-0.86553 0.97049,-0.77825 0.003,0.0873 0.10153,-0.005 0.21859,-0.2067 0.16927,-0.29069 0.0354,-0.61887 -0.65526,-1.60352 z m -6.22701,20.0509696 c 0.003,-7.8e-4 2.3e-4,-0.006 0.003,-0.008 l -0.0284,-0.0253 z m 1.92236,-15.49466 c 0.0107,0.0108 -0.0523,0.0948 -0.18138,0.25942 -0.15665,0.19975 -0.32023,0.36328 -0.36329,0.36328 -0.17081,0 -0.0604,-0.17071 0.28526,-0.44183 0.16458,-0.12907 0.24869,-0.19159 0.25941,-0.18087 z m -0.86971,0.83044 c 0.0571,0 -0.0652,0.18669 -0.27182,0.41496 -0.2066,0.22829 -0.42246,0.41497 -0.47956,0.41497 -0.0571,0 0.0652,-0.18668 0.27182,-0.41497 0.2066,-0.22828 0.42246,-0.41496 0.47956,-0.41496 z m 2.64635,0.82993 c -0.0504,0 -0.14912,0.0936 -0.21963,0.20774 -0.0705,0.11413 -0.0299,0.20722 0.091,0.20722 0.12088,0 0.22015,-0.0931 0.22015,-0.20722 0,-0.11415 -0.0412,-0.20774 -0.0915,-0.20774 z m -3.73156,0.25838 v 5.2e-4 c 0.0541,0.0541 -0.23887,0.35528 -0.65112,0.66972 l -0.74931,0.57206 0.68058,0.70228 c 0.8573,0.88453 0.72467,0.91501 -0.20205,0.0465 l -0.69764,-0.65371 0.76068,-0.71778 c 0.41838,-0.39472 0.80474,-0.67373 0.85886,-0.6196 z m 5.7025,10.11824 c 0.12086,0 0.1625,0.0936 0.092,0.20774 -0.0705,0.11415 -0.16978,0.20774 -0.22014,0.20774 -0.0504,0 -0.0915,-0.0936 -0.0915,-0.20774 0,-0.11414 0.0987,-0.20774 0.21963,-0.20774 z m -5.29219,0.83044 c 0.0504,0 0.092,0.0936 0.092,0.20774 0,0.11414 -0.0992,0.20723 -0.22014,0.20723 -0.12086,0 -0.16199,-0.0931 -0.0915,-0.20723 0.0705,-0.11415 0.16926,-0.20774 0.21962,-0.20774 z m 3.91604,0.62271 c 0.11415,0 -0.25278,0.46694 -0.81493,1.03766 -0.56214,0.57072 -1.11523,1.03766 -1.22938,1.03766 -0.11414,0 0.25228,-0.46694 0.81442,-1.03766 0.56214,-0.57072 1.11576,-1.03766 1.22989,-1.03766 z" /></g></svg>
