<?xml version="1.0" encoding="UTF-8" standalone="no"?>
<!-- Created with Inkscape (http://www.inkscape.org/) -->

<svg
   width="128"
   height="128"
   viewBox="0 0 33.866666 33.866666"
   version="1.1"
   id="svg1"
   xml:space="preserve"
   inkscape:version="1.3.2 (091e20e, 2023-11-25, custom)"
   sodipodi:docname="18.svg"
   xmlns:inkscape="http://www.inkscape.org/namespaces/inkscape"
   xmlns:sodipodi="http://sodipodi.sourceforge.net/DTD/sodipodi-0.dtd"
   xmlns="http://www.w3.org/2000/svg"
   xmlns:svg="http://www.w3.org/2000/svg"><sodipodi:namedview
     id="namedview1"
     pagecolor="#ffffff"
     bordercolor="#666666"
     borderopacity="1.0"
     inkscape:showpageshadow="2"
     inkscape:pageopacity="0.0"
     inkscape:pagecheckerboard="0"
     inkscape:deskcolor="#d1d1d1"
     inkscape:document-units="mm"
     inkscape:zoom="2.7758979"
     inkscape:cx="-0.1801219"
     inkscape:cy="50.614254"
     inkscape:window-width="1920"
     inkscape:window-height="1017"
     inkscape:window-x="-8"
     inkscape:window-y="-8"
     inkscape:window-maximized="1"
     inkscape:current-layer="layer1" /><defs
     id="defs1" /><g
     inkscape:label="Layer 1"
     inkscape:groupmode="layer"
     id="layer1"><path
       id="path1-1-4-1-9"
       style="fill:#000000;stroke-width:0.784387"
       d="m 18.285293,7.5055729 -1.19373,0.062 -1.19321,0.0625 -0.063,1.34101 c -0.0346,0.73756 -0.15756,1.4551901 -0.27337,1.5947301 -0.12826,0.15454 -0.22499,2.36782 -0.24805,5.6627 -0.0208,2.97496 -0.0845,5.40923 -0.14159,5.40949 -0.1092,5.1e-4 -0.0846,0.57739 0.13384,3.09284 0.0981,1.12878 0.0708,1.4965 -0.10387,1.38854 -0.13069,-0.0808 -0.23771,-0.0377 -0.23771,0.0961 0,0.21088 1.70459,0.18909 3.26853,-0.0419 0.14268,-0.0211 0.26588,-0.32657 0.27389,-0.67851 0.008,-0.35195 0.0896,-0.82643 0.18138,-1.05471 0.0918,-0.22828 0.0851,-0.57251 -0.015,-0.76533 -0.10893,-0.20976 -0.10123,-0.40086 0.0186,-0.47491 0.12834,-0.0793 0.12849,-0.31193 5.2e-4,-0.64854 -0.25972,-0.68309 -0.25536,-1.11206 0.008,-0.70538 0.15435,0.23885 0.20154,0.16608 0.20154,-0.31161 0,-0.4777 -0.0472,-0.54993 -0.20154,-0.31109 -0.13886,0.21482 -0.19459,-0.17136 -0.17984,-1.2454 0.0158,-1.15253 0.0626,-1.39481 0.17984,-0.9338 0.10393,0.40859 0.15537,-0.0554 0.14831,-1.34927 -0.009,-1.79025 -0.0233,-1.85673 -0.14831,-0.72605 -0.0758,0.68488 -0.16798,1.01141 -0.20516,0.72605 -0.0371,-0.28537 -0.0535,-0.6587 -0.0367,-0.82992 0.0418,-0.42457 0.005,-2.75811 -0.0656,-4.15065 -0.0318,-0.6278 -0.0695,-2.0564 -0.0832,-3.1750001 z m -2.62362,10.5854001 c 0.0187,-0.045 0.0431,-0.0248 0.0693,0.0754 h 5.2e-4 c 0.0525,0.20193 0.0491,0.48219 -0.008,0.6227 -0.0569,0.14051 -0.10002,-0.0245 -0.0961,-0.3669 0.002,-0.17097 0.0154,-0.28481 0.0341,-0.33125 z m -0.0165,1.34359 c 0.0218,-0.0218 0.0506,0.008 0.0837,0.0904 0.0599,0.14981 0.0524,0.32845 -0.0165,0.3974 -0.069,0.0689 -0.11806,-0.0536 -0.10904,-0.27234 0.005,-0.12088 0.0201,-0.19368 0.0419,-0.21549 z m 0.0351,1.71979 c 0.0151,-0.12141 0.0359,-0.0892 0.0584,0.12609 0.045,0.43059 0.0441,1.08421 -0.002,1.45263 -0.0458,0.36843 -0.0824,0.0166 -0.0816,-0.78238 4.6e-4,-0.3995 0.0102,-0.67493 0.0253,-0.79634 z m 3.08353,4.55373 c -0.019,0.047 -0.0305,0.14774 -0.0305,0.29042 0,0.28539 0.0468,0.40209 0.10439,0.25942 0.0576,-0.14269 0.0576,-0.37615 0,-0.51884 -0.0288,-0.0713 -0.0549,-0.078 -0.0739,-0.031 z" /></g></svg>
