<?xml version="1.0" encoding="UTF-8" standalone="no"?>
<!-- Created with Inkscape (http://www.inkscape.org/) -->

<svg
   width="128"
   height="128"
   viewBox="0 0 33.866666 33.866666"
   version="1.1"
   id="svg1"
   xml:space="preserve"
   inkscape:version="1.3.2 (091e20e, 2023-11-25, custom)"
   sodipodi:docname="19.svg"
   xmlns:inkscape="http://www.inkscape.org/namespaces/inkscape"
   xmlns:sodipodi="http://sodipodi.sourceforge.net/DTD/sodipodi-0.dtd"
   xmlns="http://www.w3.org/2000/svg"
   xmlns:svg="http://www.w3.org/2000/svg"><sodipodi:namedview
     id="namedview1"
     pagecolor="#ffffff"
     bordercolor="#666666"
     borderopacity="1.0"
     inkscape:showpageshadow="2"
     inkscape:pageopacity="0.0"
     inkscape:pagecheckerboard="0"
     inkscape:deskcolor="#d1d1d1"
     inkscape:document-units="mm"
     inkscape:zoom="2.7758979"
     inkscape:cx="-0.1801219"
     inkscape:cy="50.614254"
     inkscape:window-width="1920"
     inkscape:window-height="1017"
     inkscape:window-x="-8"
     inkscape:window-y="-8"
     inkscape:window-maximized="1"
     inkscape:current-layer="layer1" /><defs
     id="defs1" /><g
     inkscape:label="Layer 1"
     inkscape:groupmode="layer"
     id="layer1"><path
       id="path1-1-11-6"
       style="fill:#000000;stroke-width:0.784387"
       d="m 26.323212,5.7113813 -0.6873,0.65681 c -0.37796,0.36118 -0.86418,0.65681 -1.08055,0.65681 -0.21636,0 -0.95441,0.46693 -1.64021,1.03766 -1.27911,1.06448 -1.70233,1.30677 -1.19941,0.68678 0.32743,-0.40366 0.28548,-0.38211 -1.32654,0.67954 -0.59234,0.3901 -1.00531,0.7089997 -0.91829,0.7089997 0.087,0 0.41153,-0.1618697 0.72141,-0.3596597 0.51262,-0.32716 0.53846,-0.3279 0.28732,-0.0103 -0.15181,0.19195 -0.59562,0.4545897 -0.98599,0.5834297 -0.39038,0.12883 -0.70952,0.30922 -0.70952,0.40101 0,0.31665 -1.91157,1.41085 -2.29133,1.31154 -0.2087,-0.0546 -0.54939,-0.29048 -0.75654,-0.524 -0.36947,-0.4165 -0.36766,-0.41969 0.0904,-0.17931 0.72875,0.38241 0.54841,0.10655 -0.25528,-0.39016 -0.39743,-0.24564 -0.81214,-0.39154 -0.92139,-0.32401 -0.21705,0.13416 -2.85917,-1.4332497 -3.8561,-2.2877197 -0.75946,-0.65094 -0.37429,-0.47149 1.14153,0.53175 1.5101,0.99945 2.85327,1.7829397 2.59416,1.5130897 -0.50279,-0.5236297 -3.97865,-2.6169297 -4.31085,-2.5962197 -0.21676,0.0135 -0.31009,-0.0707 -0.22737,-0.20464 0.0824,-0.13334 0.0449,-0.16772 -0.091,-0.0837 -0.26239,0.16216 -1.9653,-0.99008 -1.76269,-1.19269 0.0723,-0.0722 0.0339,-0.13126 -0.0853,-0.13126 -0.0642,0 -0.13089,0.0332 -0.19586,0.0698 a 16.965982,16.965982 0 0 0 -0.28525,0.28526 c -0.0817,0.13693 -0.12134,0.27919 -0.0439,0.3576 0.0846,0.0857 0.15473,0.96469 0.15709,1.95285 0.0173,8.6112997 0.17054,18.2813297 0.29301,18.4794897 0.10336,0.16727 0.51819,0.20009 1.32808,0.10491 l 1.17719,-0.1385 v -3.17655 c 0,-2.85333 0.0444,-3.25133 0.43563,-3.91449 0.23957,-0.40602 0.5062,-0.73794 0.59273,-0.73794 0.0865,0 0.7845,-0.46895 1.55081,-1.04179 0.76632,-0.57283 1.32479,-0.92305 1.24127,-0.77825 -0.0835,0.14479 0.0736,0.0704 0.34882,-0.16536 0.76873,-0.65848 1.59087,-1.12758 1.97507,-1.12758 0.19116,0 1.12892,0.51451 2.08411,1.1436 0.95518,0.62907 2.08775,1.28442 2.51716,1.45624 1.32914,0.5318 1.39509,0.77104 1.39526,5.07876 v 3.83956 l 1.76372,0.11679 c 0.97022,0.0643 1.76423,0.13428 1.76423,0.15554 0,0.0213 0.003,-1.54928 0.007,-3.48971 0.004,-1.94042 -0.0432,-3.52778 -0.10387,-3.52795 -0.1696,-4.8e-4 -0.16412,-4.03284 0.006,-4.15065 0.20218,-0.1402 0.33996,-3.73573 0.14314,-3.73569 -0.23418,5e-5 -0.18688,-1.40874 0.0522,-1.55649 0.11415,-0.0705 0.20075,-0.33282 0.19275,-0.58291 -0.0141,-0.43845 -0.0208,-0.44006 -0.19327,-0.0398 -0.10401,0.24132 -0.1271,-0.79328 -0.0553,-2.4721997 z m -18.87792,1.53014 c -0.0172,0.0658 -0.0279,0.20643 -0.0279,0.40618 0,0.3995 0.0428,0.56304 0.0951,0.36328 0.0522,-0.19975 0.0522,-0.52682 0,-0.72657 -0.0261,-0.0999 -0.05,-0.10868 -0.0672,-0.0429 z m 3.09542,4.4276397 c 0.0218,-0.0218 0.0506,0.008 0.0837,0.0904 0.0599,0.14981 0.0524,0.32896 -0.0165,0.39791 -0.069,0.0689 -0.11754,-0.0536 -0.10852,-0.27234 0.005,-0.12088 0.0195,-0.19417 0.0413,-0.216 z m 0.92191,0.9958 c 0.0225,0.0252 0.0136,0.0746 -0.0295,0.14418 -0.0901,0.14569 0.0192,0.23461 0.28887,0.23461 0.2386,0 0.48623,0.13557 0.54984,0.30127 0.0636,0.16569 0.45048,0.41162 0.85989,0.54674 0.69958,0.23088 0.72079,0.26281 0.35089,0.5333 -0.21646,0.15824 -0.5084,0.24398 -0.64854,0.19017 -0.14015,-0.0538 -0.21345,0.0145 -0.16278,0.15141 0.0507,0.13686 -0.42079,0.60431 -1.048,1.03921 -1.00758,0.69861 -1.1405,0.7428 -1.1405,0.38034 0,-0.22562 0.0989,-0.44279 0.22014,-0.48317 0.12122,-0.0404 0.24459,-0.72007 0.2744,-1.50999 0.0363,-0.96367 0.14434,-1.46644 0.32763,-1.52755 0.0811,-0.0271 0.13508,-0.0257 0.15762,-5.2e-4 z m 10.64947,0.0346 c 0.25239,-0.0149 0.61547,0.20433 0.61547,0.45269 0,0.14948 -0.10668,0.30735 -0.23719,0.35088 -0.17703,0.0589 -0.17511,0.1954 0.007,0.53589 0.1409,0.26333 0.15989,0.45733 0.0444,0.45733 -0.33778,0 -0.35624,0.91788 -0.0238,1.18649 h 5.2e-4 c 0.63098,0.50982 -0.14043,0.22723 -1.55495,-0.56999 -0.79901,-0.45031 -1.54622,-0.85428 -1.66036,-0.8971 -0.31896,-0.11979 0.0319,-0.39109 0.58394,-0.45165 0.54756,-0.0601 1.83894,-0.67416 2.02675,-0.96377 0.0419,-0.0646 0.1138,-0.0958 0.19792,-0.10077 z m -8.91935,1.38183 c -0.12089,0 -0.21962,0.0936 -0.21962,0.20774 0,0.11414 0.0411,0.20722 0.0915,0.20722 0.0503,0 0.1491,-0.0931 0.21962,-0.20722 0.0705,-0.11414 0.0294,-0.20774 -0.0915,-0.20774 z m 9.81852,9.34723 c 0.0172,-0.0658 0.0406,-0.0565 0.0667,0.0434 0.0522,0.19975 0.0522,0.52682 0,0.72657 -0.0522,0.19976 -0.0946,0.0362 -0.0946,-0.36328 0,-0.19976 0.0107,-0.34087 0.0279,-0.4067 z m 2.48047,0.3049 c 0.036,-0.0438 0.0869,-0.0356 0.15297,0.0305 0.12067,0.12068 0.1906,0.72286 0.15554,1.33842 l -0.0636,1.11932 -0.15348,-0.82993 c -0.17082,-0.92474 -0.19933,-1.52666 -0.0915,-1.65829 z m -14.73812,0.22634 c -0.019,0.047 -0.031,0.14774 -0.031,0.29042 0,0.28539 0.0468,0.4021 0.10439,0.25942 0.0576,-0.14268 0.0576,-0.37616 0,-0.51884 -0.0288,-0.0713 -0.0544,-0.078 -0.0734,-0.031 z m 12.26799,1.28209 c 0.0162,-0.0841 0.0387,-0.0569 0.0625,0.10077 0.0474,0.31547 0.0463,0.7824 -0.003,1.03766 -0.0492,0.25525 -0.0884,-0.003 -0.0868,-0.57361 7.7e-4,-0.28536 0.0111,-0.48071 0.0274,-0.56482 z m 2.66909,1.36943 c 0.0218,-0.0218 0.0511,0.008 0.0842,0.0904 0.0599,0.14981 0.0519,0.32844 -0.017,0.39739 -0.069,0.069 -0.11754,-0.0535 -0.10852,-0.27233 0.005,-0.12088 0.0194,-0.19366 0.0413,-0.21549 z m -1.66605,0.8108 c 0.3139,-0.0475 0.82713,-0.0475 1.14102,0 0.31389,0.0475 0.0573,0.0863 -0.57051,0.0863 -0.62783,0 -0.8844,-0.0388 -0.57051,-0.0863 z" /></g></svg>
