<?xml version="1.0" encoding="UTF-8" standalone="no"?>
<!-- Created with Inkscape (http://www.inkscape.org/) -->

<svg
   width="128"
   height="128"
   viewBox="0 0 33.866666 33.866666"
   version="1.1"
   id="svg1"
   xml:space="preserve"
   inkscape:version="1.3.2 (091e20e, 2023-11-25, custom)"
   sodipodi:docname="2.svg"
   xmlns:inkscape="http://www.inkscape.org/namespaces/inkscape"
   xmlns:sodipodi="http://sodipodi.sourceforge.net/DTD/sodipodi-0.dtd"
   xmlns="http://www.w3.org/2000/svg"
   xmlns:svg="http://www.w3.org/2000/svg"><sodipodi:namedview
     id="namedview1"
     pagecolor="#ffffff"
     bordercolor="#666666"
     borderopacity="1.0"
     inkscape:showpageshadow="2"
     inkscape:pageopacity="0.0"
     inkscape:pagecheckerboard="0"
     inkscape:deskcolor="#d1d1d1"
     inkscape:document-units="mm"
     inkscape:zoom="2.7758979"
     inkscape:cx="-0.1801219"
     inkscape:cy="50.614254"
     inkscape:window-width="1920"
     inkscape:window-height="1017"
     inkscape:window-x="-8"
     inkscape:window-y="-8"
     inkscape:window-maximized="1"
     inkscape:current-layer="layer1" /><defs
     id="defs1" /><g
     inkscape:label="Layer 1"
     inkscape:groupmode="layer"
     id="layer1"><path
       id="path1-1-3"
       style="fill:#000000;stroke-width:0.784387"
       d="m 10.884618,6.5827719 v 2.899048 c 0,1.5945631 -0.0818,3.0566511 -0.1819,3.2488971 -0.23875,0.458536 -0.47816,10.167906 -0.30593,12.408546 l 0.13384,1.74201 h 1.01958 c 0.65288,0 0.97117,0.07777 0.88573,0.21601 -0.14495,0.23453 0.91605,0.05201 1.20458,-0.20722 0.18529,-0.16649 0.3496,-13.083513 0.1664,-13.083443 -0.0663,2.4e-5 -0.12041,-0.606881 -0.12041,-1.348755 0,-0.741888 0.0699,-1.349193 0.15555,-1.349271 0.0856,-8.7e-5 0.15555,0.140393 0.15555,0.311609 0,0.171215 0.1651,0.311092 0.3669,0.311092 0.20179,0 0.71073,0.233471 1.13068,0.518831 0.41995,0.285368 0.95313,0.518831 1.18494,0.518831 0.6538,0 2.71076,1.085775 2.73523,1.44384 0.0121,0.17597 0.0515,0.693748 0.0873,1.150317 0.0358,0.45659 0.0641,1.017113 0.0625,1.245402 -0.001,0.228287 0.0123,1.101207 0.03,1.939937 0.0177,0.83871 -0.0442,1.47792 -0.13695,1.42058 -0.0928,-0.0573 -0.16846,0.30702 -0.16846,0.80977 0,0.50275 0.0312,0.82108 0.0693,0.70694 0.038,-0.11414 0.16463,-0.20774 0.28163,-0.20774 0.13217,0 0.15313,0.2161 0.0548,0.5705 -0.17252,0.62175 -0.14645,2.82605 0.0408,3.45044 0.0651,0.21694 0.0303,0.33543 -0.0785,0.2682 -0.10735,-0.0664 -0.19482,0.15936 -0.19482,0.50126 0,0.40199 0.0603,0.527 0.17001,0.35398 0.12541,-0.19773 0.17025,-0.17229 0.1726,0.09612 0.002,0.19975 0.11984,0.36976 0.26252,0.37776 0.14268,0.008 0.0728,0.09461 -0.15555,0.19275 -0.27153,0.11671 0.28448,0.18318 1.60817,0.19275 1.80027,0.013 2.0217,-0.02521 2.00711,-0.3483 -0.01,-0.21697 -0.0584,-0.25883 -0.12092,-0.10387 -0.0606,0.1502 -0.42494,0.24645 -0.86558,0.22841 -0.57357,-0.0234 -0.62819,-0.0519 -0.22169,-0.11472 l 0.53898,-0.08371 0.17002,-3.15382 c 0.0935,-1.73478 0.16216,-3.43409 0.15244,-3.77651 -0.01,-0.34244 -0.0713,-2.02353 -0.13694,-3.735688 -0.0656,-1.712169 -0.12013,-3.178467 -0.12092,-3.258199 -0.005,-0.51386 -1.49733,-1.431104 -5.50044,-3.3806731 -2.50656,-1.220732 -5.00275,-2.388731 -5.54746,-2.595707 z m -0.35709,2.529044 c -0.0218,0.02181 -0.0364,0.09461 -0.0413,0.215491 -0.009,0.218813 0.0396,0.341282 0.10852,0.272335 0.069,-0.06896 0.0764,-0.247581 0.0165,-0.397392 -0.0331,-0.08278 -0.0619,-0.11226 -0.0837,-0.09043 z m 7.43107,4.3335861 c -0.008,0.01253 0.0877,0.09101 0.28112,0.24598 0.42343,0.339238 0.53124,0.385149 0.53124,0.226343 0,-0.05306 -0.21033,-0.198519 -0.46716,-0.322978 -0.22419,-0.108653 -0.33687,-0.161879 -0.3452,-0.149345 z m -4.67516,2.777091 c 0.0257,-0.006 0.0558,0.01922 0.0915,0.07441 0.11063,0.17122 0.20306,0.708616 0.20463,1.193726 0.002,0.48512 -0.0905,0.88212 -0.20463,0.88212 -0.11467,0 -0.2057,-0.53441 -0.20413,-1.19373 0.002,-0.635274 0.0357,-0.93806 0.11266,-0.95653 z m 9.71207,3.37447 h 5.1e-4 c 0.0187,-0.0463 0.0429,-0.02452 0.0693,0.07648 0.0525,0.20193 0.0494,0.48168 -0.008,0.62219 -0.0568,0.14051 -0.0995,-0.02395 -0.0956,-0.36639 0.002,-0.17122 0.0149,-0.28598 0.0336,-0.33228 z m -9.74618,2.9962 c 0.0171,-0.0654 0.0398,-0.04073 0.0646,0.08837 0.0499,0.25816 0.0483,0.6315 -0.004,0.82992 -0.052,0.19843 -0.0928,-0.01264 -0.0904,-0.46922 10e-4,-0.2283 0.0123,-0.38368 0.0294,-0.44907 z m 9.97769,1.30225 c -0.0424,-0.0369 -0.0721,0.21193 -0.0811,0.75447 -0.009,0.54218 0.0576,0.98599 0.14883,0.98599 0.0911,0 0.1313,-0.35021 0.0889,-0.77825 -0.0597,-0.60241 -0.11421,-0.92529 -0.15658,-0.96221 z" /></g></svg>
