<?xml version="1.0" encoding="UTF-8" standalone="no"?>
<!-- Created with Inkscape (http://www.inkscape.org/) -->

<svg
   width="128"
   height="128"
   viewBox="0 0 33.866666 33.866666"
   version="1.1"
   id="svg1"
   xml:space="preserve"
   inkscape:version="1.3.2 (091e20e, 2023-11-25, custom)"
   sodipodi:docname="20.svg"
   xmlns:inkscape="http://www.inkscape.org/namespaces/inkscape"
   xmlns:sodipodi="http://sodipodi.sourceforge.net/DTD/sodipodi-0.dtd"
   xmlns="http://www.w3.org/2000/svg"
   xmlns:svg="http://www.w3.org/2000/svg"><sodipodi:namedview
     id="namedview1"
     pagecolor="#ffffff"
     bordercolor="#666666"
     borderopacity="1.0"
     inkscape:showpageshadow="2"
     inkscape:pageopacity="0.0"
     inkscape:pagecheckerboard="0"
     inkscape:deskcolor="#d1d1d1"
     inkscape:document-units="mm"
     inkscape:zoom="2.7758979"
     inkscape:cx="-0.1801219"
     inkscape:cy="50.614254"
     inkscape:window-width="1920"
     inkscape:window-height="1017"
     inkscape:window-x="-8"
     inkscape:window-y="-8"
     inkscape:window-maximized="1"
     inkscape:current-layer="layer1" /><defs
     id="defs1" /><g
     inkscape:label="Layer 1"
     inkscape:groupmode="layer"
     id="layer1"><path
       id="path1-1-57-2-1-7-6-1"
       style="fill:#000000;stroke-width:0.784387"
       d="m 11.58975,5.7346637 v 2.06551 c 0,1.13623 -0.086,2.11933 -0.19121,2.18436 -0.10529,0.0651 -0.18916,1.0277503 -0.18603,2.1394003 0.003,1.11166 -0.037,5.0567 -0.0889,8.76639 -0.0519,3.7097 -0.0518,6.86155 5.2e-4,7.00423 0.12643,0.34517 0.23795,0.33064 1.18753,-0.15348 0.4453,-0.22702 0.83043,-0.55358 0.85576,-0.72606 0.0632,-0.43052 -0.0801,-0.39667 -0.8692,0.20516 -0.37413,0.28535 -0.73369,0.51883 -0.7984,0.51883 -0.0647,0 -0.10189,-0.4438 -0.0827,-0.98599 0.0319,-0.90315 0.0416,-0.92075 0.11627,-0.20774 0.0928,0.88734 0.17079,0.92109 0.88263,0.37414 0.35881,-0.27535 0.69983,-0.35933 1.12448,-0.2744 0.47811,0.0956 0.58436,0.0569 0.49351,-0.17983 -0.0747,-0.19472 0.0251,-0.31247 0.28112,-0.33177 0.23909,-0.018 0.34088,0.0606 0.25632,0.19741 -0.0849,0.13735 -0.0441,0.16784 0.10283,0.077 0.13374,-0.0826 0.19663,-0.22548 0.13953,-0.31781 -0.057,-0.0923 0.26552,-0.41333 0.71778,-0.71262 0.94782,-0.62724 1.21095,-0.69137 0.80512,-0.19689 -0.34514,0.42053 1.60258,-0.99295 2.25155,-1.63401 0.25338,-0.25031 0.52235,-0.39334 0.59789,-0.31781 0.19277,0.19277 0.94928,-0.24359 0.8108,-0.46767 -0.0624,-0.10104 0.45345,-0.43791 1.14619,-0.74879 0.69274,-0.31088 1.3522,-0.73855 1.46554,-0.95033 0.11334,-0.21178 0.13188,-0.37274 0.0413,-0.3576 -0.42222,0.0707 -0.68368,-0.0463 -0.68368,-0.30593 0,-0.1563 -0.57289,-0.53236 -1.2733,-0.83612 -0.70041,-0.30376 -1.21566,-0.61006 -1.14515,-0.68058 0.0705,-0.0705 -0.0711,-0.3013 -0.31471,-0.51263 -0.53422,-0.46334 -0.73594,-0.50202 -0.37982,-0.0729 0.16553,0.19941 0.17823,0.31109 0.0357,0.31109 -0.12245,0 -0.2968,-0.13299 -0.38809,-0.29611 -0.0913,-0.16312 -0.67958,-0.56525 -1.3069,-0.89297 -0.46747,-0.24422 -0.80748,-0.50064 -1.00045,-0.69918 0.0726,0.0537 0.25111,-0.0598 0.53743,-0.34261 0.20223,-0.19975 0.59923,-0.5289 0.88212,-0.73123 l 0.5147,-0.36793 -0.6227,0.31212 c -0.73491,0.36801 -1.34927,0.83115 -1.34927,1.01751 0,0.0551 0.0122,0.0911 0.0351,0.11007 -0.0645,-0.0668 -0.17927,-0.15368 -0.18604,-0.19533 -0.0454,-0.27954 1.24612,-1.2383 2.11977,-1.57355 0.29221,-0.11214 0.3418,-0.0779 0.21084,0.14779 -0.10149,0.17477 -0.0944,0.22452 0.0176,0.12196 0.10391,-0.0951 0.18913,-0.26159 0.18913,-0.37 0,-0.10841 0.20125,-0.3112 0.447,-0.4501 0.86178,-0.48707 3.18461,-2.10539 3.18069,-2.21589 -0.002,-0.0614 -1.50988,-1.04603 -3.3507,-2.1874603 -1.84083,-1.14145 -3.91707,-2.43909 -4.61367,-2.88406 -0.6966,-0.44497 -1.57051,-0.93663 -1.94149,-1.09244 z m -0.35657,1.74459 c -0.0218,0.0218 -0.037,0.0947 -0.0419,0.2155 -0.009,0.21874 0.0401,0.34127 0.10904,0.27233 0.069,-0.069 0.0765,-0.24758 0.0165,-0.39739 -0.0331,-0.0828 -0.0618,-0.11226 -0.0837,-0.0904 z m 2.84737,2.6189703 c 0.11414,0 0.20722,0.0936 0.20722,0.20774 0,0.11414 -0.0931,0.20774 -0.20722,0.20774 -0.11414,0 -0.20774,-0.0936 -0.20774,-0.20774 0,-0.11415 0.0936,-0.20774 0.20774,-0.20774 z m 0.75654,0.80822 c 0.0377,-0.0271 0.0634,0.0225 0.0672,0.17776 0.003,0.14268 0.14659,0.25942 0.31781,0.25942 0.17122,0 0.31109,0.0959 0.31109,0.21291 0,0.11697 0.24672,0.30618 0.54777,0.42064 l 0.54726,0.20826 -1.22215,0.92294 c -0.67202,0.50746 -1.29208,0.92497 -1.37769,0.92811 -0.24029,0.009 -0.18393,-0.36573 0.0677,-0.44959 0.12281,-0.0409 0.27174,-0.53856 0.33073,-1.10639 0.0744,-0.71642 0.29711,-1.49276 0.41031,-1.57406 z m 7.91993,1.15858 c -0.0639,-0.0639 -0.1799,0.0511 -0.25786,0.2558 -0.11263,0.29577 -0.0887,0.31971 0.11627,0.11627 0.14183,-0.14078 0.20552,-0.30814 0.14159,-0.37207 z m -2.24689,1.56115 c -0.0178,-0.008 -0.11536,0.0609 -0.30696,0.20153 -0.2283,0.16745 -0.45423,0.33097 -0.50177,0.36329 -0.0475,0.0323 0.011,0.0584 0.13022,0.0584 0.11919,0 0.34512,-0.16301 0.50178,-0.36276 0.13126,-0.16737 0.19359,-0.25202 0.17673,-0.26045 z m -6.44198,5.18883 c 0.12089,0 0.21962,0.0936 0.21962,0.20774 0,0.11414 -0.0412,0.20722 -0.0915,0.20722 -0.0504,0 -0.14912,-0.0931 -0.21963,-0.20722 -0.0705,-0.11415 -0.0294,-0.20774 0.0915,-0.20774 z m 0.79065,1.07332 c 0.0341,0.0102 0.0517,0.0572 0.0517,0.14262 0,0.1437 0.0936,0.20384 0.20774,0.13333 0.11415,-0.0705 0.20723,-0.0385 0.20723,0.0713 0,0.10973 0.28026,0.29715 0.6227,0.41651 0.34243,0.11938 0.6227,0.27877 0.6227,0.35399 0,0.0752 -0.1448,0.081 -0.32195,0.0129 -0.17712,-0.068 -0.27411,-0.0456 -0.21497,0.0501 0.11435,0.185 -0.45043,0.72952 -1.37563,1.32602 v 5.2e-4 c -0.30984,0.19975 -0.61328,0.36277 -0.67438,0.36277 -0.23006,0 -0.0996,-0.3751 0.16589,-0.47698 0.16963,-0.0651 0.29157,-0.49317 0.31471,-1.10484 0.0208,-0.54918 0.13007,-1.09022 0.24236,-1.20251 0.0669,-0.067 0.11763,-0.0954 0.15193,-0.0858 z m 4.77697,2.9037 v 5.1e-4 c 0.0675,-0.0256 0.12565,-0.0262 0.15761,0.006 0.0639,0.0639 -0.0516,0.18041 -0.25632,0.25838 -0.29578,0.11262 -0.31919,0.0887 -0.11575,-0.11627 0.0704,-0.0709 0.14701,-0.12262 0.21446,-0.14831 z m -8.17366,0.38137 c 0.0438,0 0.12841,0.18667 0.1881,0.41496 0.0597,0.2283 0.0238,0.41496 -0.0796,0.41496 -0.10346,0 -0.18811,-0.18666 -0.18811,-0.41496 0,-0.22829 0.0358,-0.41496 0.0796,-0.41496 z m -0.016,1.7849 c 0.019,-0.047 0.0451,-0.0403 0.0739,0.031 0.0576,0.14268 0.0576,0.37615 0,0.51883 -0.0576,0.14268 -0.1049,0.026 -0.1049,-0.25942 0,-0.14268 0.012,-0.2434 0.031,-0.29042 z" /></g></svg>
