<?xml version="1.0" encoding="UTF-8" standalone="no"?>
<!-- Created with Inkscape (http://www.inkscape.org/) -->

<svg
   width="128"
   height="128"
   viewBox="0 0 33.866666 33.866666"
   version="1.1"
   id="svg1"
   xml:space="preserve"
   inkscape:version="1.3.2 (091e20e, 2023-11-25, custom)"
   sodipodi:docname="21.svg"
   xmlns:inkscape="http://www.inkscape.org/namespaces/inkscape"
   xmlns:sodipodi="http://sodipodi.sourceforge.net/DTD/sodipodi-0.dtd"
   xmlns="http://www.w3.org/2000/svg"
   xmlns:svg="http://www.w3.org/2000/svg"><sodipodi:namedview
     id="namedview1"
     pagecolor="#ffffff"
     bordercolor="#666666"
     borderopacity="1.0"
     inkscape:showpageshadow="2"
     inkscape:pageopacity="0.0"
     inkscape:pagecheckerboard="0"
     inkscape:deskcolor="#d1d1d1"
     inkscape:document-units="mm"
     inkscape:zoom="2.7758979"
     inkscape:cx="-0.1801219"
     inkscape:cy="50.614254"
     inkscape:window-width="1920"
     inkscape:window-height="1017"
     inkscape:window-x="-8"
     inkscape:window-y="-8"
     inkscape:window-maximized="1"
     inkscape:current-layer="layer1" /><defs
     id="defs1" /><g
     inkscape:label="Layer 1"
     inkscape:groupmode="layer"
     id="layer1"><path
       id="path1-1-57-2-1-7-6"
       style="fill:#000000;stroke-width:0.784387"
       d="m 17.14275,6.3466133 -1.51412,1.5043 c -0.83287,0.82731 -1.92091,2.00177 -2.41794,2.6101797 -0.49702,0.60839 -1.06735,1.11072 -1.26711,1.11621 -0.19976,0.005 -0.36329,0.1138 -0.36329,0.24029 0,0.1265 -0.5081,0.72982 -1.12913,1.34101 -0.6798398,0.66908 -1.1166398,1.27388 -1.0981198,1.5198 0.0169,0.22463 0.0813,0.37668 0.14314,0.33848 0.0619,-0.0382 0.5312198,0.34223 1.0433498,0.84491 0.51212,0.50268 1.03518,0.91416 1.16169,0.91416 0.2759,0 0.80358,-0.58571 0.98237,-1.08986 0.1734,-0.48897 -0.0422,-0.45683 -0.62684,0.0925 -0.4741,0.44536 -0.49274,0.44659 -0.84387,0.0631 -0.34185,-0.37335 -0.34124,-0.37885 0.016,-0.10904 0.33779,0.25517 0.54218,0.11982 2.05672,-1.36064 1.27356,-1.24491 1.48976,-1.4024 0.89142,-0.65061 -0.43448,0.54592 -0.93948,1.07698 -1.12242,1.18029 -0.25933,0.14643 -0.27771,0.24327 -0.0832,0.43977 0.1952,0.1972 0.29936,0.14229 0.47956,-0.25321 0.12666,-0.278 0.48844,-0.67911 0.80357,-0.89091 0.31515,-0.21181 0.65948,-0.5762 0.76533,-0.80977 0.27959,-0.61702 0.60258,-0.63527 0.63717,-0.0362 0.0165,0.28526 -0.0673,0.51883 -0.18655,0.51883 -0.14464,0 -0.1738,0.65413 -0.0879,1.96319 0.0789,1.2011 0.0498,2.01146 -0.0744,2.08825 -0.12089,0.0747 -0.0765,0.25214 0.10956,0.43821 0.23214,0.23214 0.2583,0.41406 0.10128,0.70745 -0.12705,0.23738 -0.17239,1.41015 -0.11317,2.93987 0.0542,1.39971 0.0326,2.43798 -0.0481,2.30736 -0.0807,-0.13062 -0.15767,0.19784 -0.17053,0.72967 -0.0189,0.78067 0.0109,0.8664 0.15296,0.44752 0.12151,-0.35823 0.14308,-0.18685 0.0708,0.55242 -0.0738,0.75474 -0.0264,1.10086 0.15968,1.17357 0.14524,0.0568 0.73101,0.0736 1.30173,0.0372 0.57072,-0.0364 1.248,-0.0743 1.50482,-0.0842 0.33952,-0.0132 0.46738,-0.1452 0.46973,-0.48472 0.002,-0.37759 0.0419,-0.4078 0.20464,-0.15606 0.13531,0.20934 0.18933,-0.47045 0.16588,-2.07533 l -0.0346,-2.38642 -0.13126,1.66037 c -0.13073,1.65122 -0.13161,1.64671 -0.1695,-0.76637 -0.0237,-1.50949 0.0439,-2.47741 0.17932,-2.56108 0.14329,-0.0885 0.14839,-0.21793 0.0145,-0.3793 -0.15305,-0.18442 -0.34868,-6.11979 -0.24701,-7.49619 0.008,-0.11189 0.89367,0.67127 1.96784,1.74098 1.2277,1.22259 2.06357,1.90318 2.25051,1.83141 0.16356,-0.0628 0.59054,-0.48421 0.94826,-0.93586 0.6416,-0.81009 0.64495,-0.82602 0.24494,-1.18804 -0.22303,-0.20183 -0.34692,-0.46225 -0.27491,-0.57877 0.072,-0.11654 0.0395,-0.15545 -0.0724,-0.0863 -0.11185,0.0691 -0.8498,-0.536 -1.64021,-1.34514 -0.79041,-0.80915 -1.29725,-1.39654 -1.12603,-1.30535 0.41445,0.22074 -0.37292,-0.6724297 -2.3549,-2.6701197 z m 5.91333,5.9407197 c -0.0376,0.0166 -0.061,0.0574 -0.061,0.11783 0,0.12089 0.0936,0.22014 0.20774,0.22014 0.11414,0 0.20722,-0.0412 0.20722,-0.0915 0,-0.0503 -0.0931,-0.14962 -0.20722,-0.22014 -0.0571,-0.0353 -0.10914,-0.0429 -0.14676,-0.0264 z m -11.16469,0.0264 -0.60927,0.67438 c -0.33524,0.37096 -0.6392,0.67437 -0.67489,0.67437 -0.16034,0 -0.019,-0.1713 0.60978,-0.73949 z m -1.81953,1.85105 c -0.0839,0.10489 0.002,0.36201 0.1912,0.57102 0.41204,0.4553 0.30208,0.49138 -0.25166,0.0827 -0.3531398,-0.26063 -0.3643898,-0.33137 -0.0946,-0.57103 0.1693198,-0.15039 0.2389898,-0.18755 0.1550298,-0.0827 z m 9.05371,2.59054 c -0.0187,0.0463 -0.0316,0.16107 -0.0336,0.33228 -0.004,0.34244 0.0387,0.50689 0.0956,0.36638 0.057,-0.14052 0.0606,-0.42025 0.008,-0.62218 -0.0263,-0.10096 -0.051,-0.12278 -0.0698,-0.0765 z m -0.0103,2.22105 c -0.019,0.047 -0.031,0.14773 -0.031,0.29042 0,0.28538 0.0473,0.40209 0.1049,0.25942 0.0576,-0.14269 0.0576,-0.37614 0,-0.51883 -0.0288,-0.0714 -0.0549,-0.078 -0.0739,-0.031 z m -0.006,2.23604 c -0.0218,0.0218 -0.0364,0.0951 -0.0413,0.21601 -0.009,0.21873 0.0396,0.34128 0.10852,0.27233 0.069,-0.0689 0.0765,-0.2481 0.0165,-0.39791 -0.0331,-0.0828 -0.0618,-0.11226 -0.0837,-0.0904 z m -0.83612,6.21254 c -0.19975,0.0522 -0.0367,0.0951 0.36276,0.0951 0.3995,0 0.56304,-0.0428 0.36329,-0.0951 -0.19976,-0.0522 -0.5263,-0.0522 -0.72605,0 z" /></g></svg>
