<?xml version="1.0" encoding="UTF-8" standalone="no"?>
<!-- Created with Inkscape (http://www.inkscape.org/) -->

<svg
   width="128"
   height="128"
   viewBox="0 0 33.866666 33.866666"
   version="1.1"
   id="svg1"
   xml:space="preserve"
   inkscape:version="1.3.2 (091e20e, 2023-11-25, custom)"
   sodipodi:docname="22.svg"
   xmlns:inkscape="http://www.inkscape.org/namespaces/inkscape"
   xmlns:sodipodi="http://sodipodi.sourceforge.net/DTD/sodipodi-0.dtd"
   xmlns="http://www.w3.org/2000/svg"
   xmlns:svg="http://www.w3.org/2000/svg"><sodipodi:namedview
     id="namedview1"
     pagecolor="#ffffff"
     bordercolor="#666666"
     borderopacity="1.0"
     inkscape:showpageshadow="2"
     inkscape:pageopacity="0.0"
     inkscape:pagecheckerboard="0"
     inkscape:deskcolor="#d1d1d1"
     inkscape:document-units="mm"
     inkscape:zoom="2.7758979"
     inkscape:cx="-0.1801219"
     inkscape:cy="50.614254"
     inkscape:window-width="1920"
     inkscape:window-height="1017"
     inkscape:window-x="-8"
     inkscape:window-y="-8"
     inkscape:window-maximized="1"
     inkscape:current-layer="layer1" /><defs
     id="defs1" /><g
     inkscape:label="Layer 1"
     inkscape:groupmode="layer"
     id="layer1"><path
       id="path1-1-11-6-0-7-5"
       style="fill:#000000;stroke-width:0.784387"
       d="m 17.178833,6.2184263 -1.57613,1.53531 c -2.07564,2.02141 -2.11383,2.05414 -2.41742,2.05414 -0.14362,0 -0.82482,0.5105097 -1.51412,1.1342897 -0.68931,0.62378 -1.31233,1.07462 -1.38442,1.00253 -0.0721,-0.0721 -0.13125,0.0171 -0.13125,0.19843 0,0.18135 -0.3969997,0.67136 -0.8821197,1.08883 l -0.88212,0.75964 1.7151397,1.59163 c 0.94326,0.87555 2.12829,1.91922 2.63343,2.31873 0.50515,0.39949 0.92415,0.83213 0.93121,0.96169 0.007,0.12955 0.25652,0.3951 0.55501,0.59067 l 0.54312,0.35553 -0.62064,0.55087 c -0.7778,0.68984 -1.40265,1.21765 -2.33112,1.96939 -0.4003,0.3241 -0.72812,0.69745 -0.72812,0.82992 0,0.13248 -0.0936,0.24566 -0.20774,0.25115 -0.11415,0.005 -0.56604,0.34685 -1.0045897,0.75861 l -0.79737,0.74879 0.56689,0.63665 c 0.31192,0.35006 0.6402897,0.59059 0.7296697,0.53537 0.0894,-0.0552 0.36507,0.18477 0.61289,0.53279 0.35059,0.49213 0.54981,0.6015 0.89658,0.49144 0.40961,-0.13 0.42167,-0.10965 0.14625,0.25166 -0.26181,0.34339 -0.262,0.35866 0.002,0.12299 0.16572,-0.14839 0.30508,-0.38186 0.31057,-0.51883 0.005,-0.137 0.12194,-0.22595 0.25942,-0.1974 0.13748,0.0286 0.22699,-0.027 0.19844,-0.12351 -0.0691,-0.23396 1.56346,-2.00349 1.84846,-2.00349 0.3349,0 2.17583,-1.75695 2.05156,-1.95802 -0.0591,-0.0958 0.0406,-0.29725 0.22169,-0.44752 0.28372,-0.23546 0.44785,-0.14214 1.19062,0.67386 0.47401,0.52076 1.12165,1.10423 1.43919,1.29656 0.31753,0.19231 0.52435,0.43602 0.45941,0.54105 -0.0649,0.10505 0.2354,0.41524 0.66766,0.68988 0.8121,0.51601 1.69961,1.38338 1.41541,1.38338 -0.0887,0 -0.0455,0.13902 0.0956,0.30903 0.22631,0.27272 0.32581,0.26791 0.84853,-0.0408 0.32588,-0.19251 0.64095,-0.47531 0.6997,-0.62838 0.0588,-0.15308 -0.24205,-0.0202 -0.66818,0.29507 -0.69855,0.51691 -0.73389,0.52525 -0.35966,0.0832 0.22829,-0.26965 0.71836,-0.61867 1.08933,-0.77566 0.37096,-0.15699 0.67438,-0.41994 0.67438,-0.58395 0,-0.16401 0.15883,-0.38672 0.35244,-0.49506 0.31056,-0.1738 0.27357,-0.26269 -0.31213,-0.75551 -0.36513,-0.30723 -0.61741,-0.63375 -0.56069,-0.72554 0.0567,-0.0918 -0.85381,-1.03524 -2.02313,-2.09651 -1.7833,-1.61851 -1.92504,-1.71592 -0.88057,-0.6041 1.22251,1.30137 1.13059,1.33844 -0.31161,0.12558 -1.42106,-1.19507 -1.42051,-1.20165 0.12868,-2.70578 0.76354,-0.74132 1.45504,-1.30705 1.53634,-1.25677 0.0813,0.0503 0.32347,-0.10928 0.53847,-0.3545 0.21501,-0.24521 0.27394,-0.37748 0.13125,-0.29404 -0.62836,0.36743 -0.15588,-0.23042 1.07022,-1.35392 l 1.33015,-1.21853 -2.00452,-1.90635 c -3.41942,-3.2528697 -4.46271,-4.2063297 -5.39244,-4.9273397 z m -1.89652,1.17254 c -0.0376,-0.0144 -0.0897,-0.005 -0.14677,0.03 -0.11414,0.0705 -0.20722,0.22123 -0.20722,0.33538 0,0.11418 0.0931,0.15013 0.20722,0.0796 0.11414,-0.0705 0.20774,-0.22175 0.20774,-0.33589 0,-0.0571 -0.0234,-0.0947 -0.061,-0.10904 z m 2.13682,2.6241297 c 0.0108,-0.0107 0.0948,0.0518 0.25941,0.18087 0.19975,0.15665 0.36329,0.32014 0.36329,0.36328 0,0.1708 -0.1702,0.061 -0.44132,-0.28474 -0.12907,-0.16458 -0.19209,-0.24869 -0.18138,-0.25941 z m -0.3545,0.1881 0.58497,0.56017 c 0.32163,0.30815 0.52698,0.65411 0.45631,0.76843 -0.0707,0.11436 -0.0268,0.14484 0.0971,0.0682 0.12397,-0.0766 0.34869,0.032 0.49919,0.24133 0.15049,0.20934 0.57865,0.5592 0.95188,0.77722 0.37323,0.21802 0.6344,0.51248 0.57981,0.65474 -0.0546,0.14226 0.0597,0.3519 0.25477,0.4656 0.32906,0.19184 0.32777,0.20742 -0.0207,0.21291 -0.20647,0.003 -0.31753,0.10034 -0.24702,0.21446 0.0705,0.11414 -0.0179,0.20722 -0.19585,0.20722 -0.17795,0 -0.32298,0.14417 -0.32298,0.32039 0,0.18608 -0.14689,0.29488 -0.34985,0.25942 -0.2067,-0.0361 -0.39706,0.11066 -0.46664,0.35967 -0.0646,0.23151 -0.39757,0.76889 -0.74,1.19372 -0.34243,0.42481 -0.7281,0.77204 -0.8568,0.77205 -0.33372,10e-6 -0.72506,-0.52511 -0.54208,-0.72709 0.0846,-0.0933 0.0333,-0.0998 -0.11369,-0.015 -0.25781,0.14869 -0.57029,-0.089 -2.90784,-2.21071 l -0.89245,-0.81029 0.56741,-0.447 c 0.31227,-0.24563 0.69259,-0.46496 0.84491,-0.48731 0.27695,-0.0406 0.73232,-0.40887 2.09444,-1.69395 z m 1.08107,0.57619 0.67437,0.48731 c 0.37097,0.26783 0.67438,0.51578 0.67438,0.55139 0,0.22382 -0.41618,-0.0156 -0.84594,-0.48679 z m 0.032,5.09737 c -0.0447,0.01 -0.17504,0.12432 -0.4191,0.34881 -0.30085,0.27672 -0.54725,0.59146 -0.54725,0.6997 v 5.2e-4 c 0,0.27854 0.60229,-0.25497 0.87023,-0.77101 0.10011,-0.19281 0.14077,-0.28785 0.0961,-0.27802 z m -3.90313,4.93044 c 0.0571,0 -0.11534,0.23348 -0.38343,0.51884 -0.26808,0.28536 -0.53408,0.51883 -0.59118,0.51883 -0.0571,0 0.11535,-0.23346 0.38344,-0.51883 0.26808,-0.28536 0.53406,-0.51884 0.59117,-0.51884 z m -1.52497,1.40095 -1.36632,1.36271 -1.36633,1.36322 0.42633,0.42633 c 0.23462,0.23463 0.38306,0.42355 0.32918,0.41962 -0.13169,-0.009 -1.0324897,-0.76432 -1.0324897,-0.86558 0,-0.0441 0.6772897,-0.67144 1.5048197,-1.39372 z m 10.09809,0.36432 c 0.0571,-0.0571 0.32301,0.12902 0.59067,0.41393 0.26769,0.28491 0.40005,0.51295 0.29455,0.50591 -0.26618,-0.0171 -1.01247,-0.79259 -0.88522,-0.91984 z" /></g></svg>
