<?xml version="1.0" encoding="UTF-8" standalone="no"?>
<!-- Created with Inkscape (http://www.inkscape.org/) -->

<svg
   width="128"
   height="128"
   viewBox="0 0 33.866666 33.866666"
   version="1.1"
   id="svg1"
   xml:space="preserve"
   inkscape:version="1.3.2 (091e20e, 2023-11-25, custom)"
   sodipodi:docname="23.svg"
   xmlns:inkscape="http://www.inkscape.org/namespaces/inkscape"
   xmlns:sodipodi="http://sodipodi.sourceforge.net/DTD/sodipodi-0.dtd"
   xmlns="http://www.w3.org/2000/svg"
   xmlns:svg="http://www.w3.org/2000/svg"><sodipodi:namedview
     id="namedview1"
     pagecolor="#ffffff"
     bordercolor="#666666"
     borderopacity="1.0"
     inkscape:showpageshadow="2"
     inkscape:pageopacity="0.0"
     inkscape:pagecheckerboard="0"
     inkscape:deskcolor="#d1d1d1"
     inkscape:document-units="mm"
     inkscape:zoom="2.7758979"
     inkscape:cx="-0.1801219"
     inkscape:cy="50.614254"
     inkscape:window-width="1920"
     inkscape:window-height="1017"
     inkscape:window-x="-8"
     inkscape:window-y="-8"
     inkscape:window-maximized="1"
     inkscape:current-layer="layer1" /><defs
     id="defs1" /><g
     inkscape:label="Layer 1"
     inkscape:groupmode="layer"
     id="layer1"><path
       id="path1-1-11-6-0"
       style="fill:#000000;stroke-width:0.784387"
       d="m 12.532931,6.2749518 c -0.12861,-0.0142 -0.17829,0.0865 -0.17829,0.29869 0,0.19859 -0.10017,0.26715 -0.25941,0.17725 -0.20753,-0.11716 -0.20753,-0.0908 0,0.13281 0.14268,0.15372 0.25294,0.51768 0.24494,0.80874 -0.0133,0.48178 -0.0309,0.49206 -0.19327,0.1142 -0.11106,-0.25846 -0.16885,0.52462 -0.15348,2.07533 l 0.0248,2.4902902 0.11627,-1.86759 c 0.0686,-1.1007702 0.18334,1.66903 0.27905,6.74481 0.0893,4.73699 0.21611,8.91633 0.28216,9.28729 h 5.1e-4 c 0.11921,0.66979 0.12914,0.67437 1.32137,0.67437 h 1.20096 l 0.12609,-0.98547 c 0.069,-0.54219 0.1413,-1.65823 0.16123,-2.47995 0.0206,-0.84948 0.11914,-1.44336 0.2279,-1.37614 0.10517,0.065 0.0863,-0.0772 -0.0414,-0.31574 -0.15044,-0.28116 -0.17581,-0.81918 -0.0723,-1.52963 0.0877,-0.60277 0.10836,-1.98262 0.046,-3.06699 -0.0628,-1.08438 -0.0597,-1.99651 0.006,-2.02624 0.066,-0.0297 0.0831,-0.71135 0.0377,-1.51463 l -0.0827,-1.46038 0.5426,0.13643 c 0.72747,0.18258 0.68386,0.0144 -0.13177,-0.50798 -0.46169,-0.29567 -0.55969,-0.43277 -0.31109,-0.43512 0.19976,-0.002 0.36457,0.0668 0.36535,0.15245 7.9e-4,0.0856 0.65465,0.56463 1.45262,1.06505 0.79797,0.50043 1.45056,0.94741 1.45056,0.99322 0,0.11541 -0.816,-0.32292 -1.52032,-0.81649 -0.43397,-0.30412 -0.64772,-0.35014 -0.8201,-0.17776 -0.17238,0.17242 -0.14479,0.23306 0.10438,0.23306 0.18529,0 0.6143,0.23347 0.95343,0.51883 0.33914,0.28536 0.7084,0.51883 0.82062,0.51883 0.11223,0 0.32226,0.14228 0.46664,0.31626 0.14439,0.17398 0.30633,0.27245 0.35967,0.21911 0.0533,-0.0533 0.46096,0.13306 0.90589,0.41393 l 0.80822,0.51056 0.3483,-0.73019 c 0.35652,-0.74762 0.76852,-1.01971 0.55448,-0.36639 -0.0654,0.19976 0.12173,-0.0105 0.41548,-0.46715 0.29375,-0.45658 0.5361,-0.94099 0.54002,-1.0759 0.008,-0.29638 -1.08227,-1.1033 -1.49035,-1.1033 -0.16032,0 -0.47296,-0.14691 -0.69453,-0.32659 -0.22157,-0.1797 -0.26268,-0.2554 -0.0915,-0.16795 0.26796,0.13689 0.27204,0.11057 0.0269,-0.19172 -0.30835,-0.38015 -0.54676,-0.48147 -0.33797,-0.14366 0.30876,0.49959 -0.35989,0.1431 -0.95188,-0.50746 -0.35955,-0.39512 -0.89549,-0.7431902 -1.19837,-0.7782502 -0.30136,-0.0349 -0.52648,-0.17317 -0.50075,-0.30747 0.0257,-0.13431 -0.37424,-0.405 -0.88883,-0.60152 -0.90251,-0.34468 -1.53999,-0.82788 -0.77722,-0.58911 0.35308,0.11051 0.35312,0.10351 0.009,-0.11782 -0.20066,-0.12897 -0.45616,-0.17741 -0.56844,-0.108 -0.11229,0.0694 -0.44282,-0.1121 -0.73432,-0.4036 -0.29151,-0.2915 -0.64282,-0.53248 -0.78032,-0.53485 -0.13749,-0.002 -0.48358,-0.1871 -0.76894,-0.41031 -0.31569,-0.24693 -0.52302,-0.37598 -0.65164,-0.39016 z m 2.71508,1.22008 c -0.12086,0 -0.162,0.0936 -0.0915,0.20774 0.0705,0.11413 0.16978,0.20723 0.22014,0.20723 0.0503,0 0.091,-0.0931 0.091,-0.20723 0,-0.11415 -0.0987,-0.20774 -0.21962,-0.20774 z m 1.67225,3.3207302 c 0.0107,0.0107 -0.0521,0.0952 -0.18087,0.25942 -0.27097,0.34545 -0.44184,0.45548 -0.44184,0.28473 0,-0.0431 0.16354,-0.20661 0.36329,-0.36328 0.16458,-0.12907 0.24871,-0.19157 0.25942,-0.18087 z m -5.95468,2.82308 c -0.019,0.047 -0.031,0.14722 -0.031,0.28991 0,0.28538 0.0473,0.4021 0.10491,0.25942 0.0576,-0.14268 0.0576,-0.37615 0,-0.51884 -0.0288,-0.0713 -0.055,-0.0775 -0.0739,-0.0305 z m 0,1.86759 c -0.019,0.0471 -0.031,0.14774 -0.031,0.29042 0,0.28539 0.0473,0.4021 0.10491,0.25942 0.0576,-0.14268 0.0576,-0.37614 0,-0.51883 -0.0288,-0.0714 -0.055,-0.078 -0.0739,-0.031 z m 4.55993,10.74508 c -0.0218,0.0218 -0.0364,0.0946 -0.0413,0.21549 -0.009,0.21872 0.0401,0.34129 0.10904,0.27234 0.069,-0.069 0.0765,-0.24758 0.0165,-0.39739 -0.0331,-0.0828 -0.0623,-0.11225 -0.0842,-0.0904 z m -0.73226,1.23662 c -0.14268,0.0576 -0.026,0.1049 0.25942,0.1049 0.28539,0 0.4021,-0.0473 0.25942,-0.1049 -0.14268,-0.0576 -0.37615,-0.0576 -0.51884,0 z" /></g></svg>
