<?xml version="1.0" encoding="UTF-8" standalone="no"?>
<!-- Created with Inkscape (http://www.inkscape.org/) -->

<svg
   width="128"
   height="128"
   viewBox="0 0 33.866666 33.866666"
   version="1.1"
   id="svg1"
   xml:space="preserve"
   inkscape:version="1.3.2 (091e20e, 2023-11-25, custom)"
   sodipodi:docname="24.svg"
   xmlns:inkscape="http://www.inkscape.org/namespaces/inkscape"
   xmlns:sodipodi="http://sodipodi.sourceforge.net/DTD/sodipodi-0.dtd"
   xmlns="http://www.w3.org/2000/svg"
   xmlns:svg="http://www.w3.org/2000/svg"><sodipodi:namedview
     id="namedview1"
     pagecolor="#ffffff"
     bordercolor="#666666"
     borderopacity="1.0"
     inkscape:showpageshadow="2"
     inkscape:pageopacity="0.0"
     inkscape:pagecheckerboard="0"
     inkscape:deskcolor="#d1d1d1"
     inkscape:document-units="mm"
     inkscape:zoom="2.7758979"
     inkscape:cx="-0.1801219"
     inkscape:cy="50.614254"
     inkscape:window-width="1920"
     inkscape:window-height="1017"
     inkscape:window-x="-8"
     inkscape:window-y="-8"
     inkscape:window-maximized="1"
     inkscape:current-layer="layer1" /><defs
     id="defs1" /><g
     inkscape:label="Layer 1"
     inkscape:groupmode="layer"
     id="layer1"><path
       id="path1-1-11-6-0-7-5-6"
       style="fill:#000000;stroke-width:0.784387"
       d="m 27.20882,5.9343083 c -0.062,0 -0.69255,0.47739 -1.40095,1.06092 -1.58027,1.30168 -1.7181,1.42937 -1.54409,1.42937 0.0759,0 0.47119,-0.293 0.8785,-0.65061 0.40732,-0.35762 0.78984,-0.60079 0.85008,-0.54054 0.13142,0.13143 -2.28435,2.02159 -2.58382,2.02159 -0.11512,0 -0.2673,0.182 -0.33797,0.40462 -0.0707,0.22263 -0.43356,0.5929397 -0.80615,0.8232097 -0.37258,0.23027 -0.84891,0.60879 -1.05885,0.84077 -0.43654,0.48237 -0.9177,0.58372 -0.52503,0.11059 0.45289,-0.54569 0.0923,-0.33435 -0.43098,0.2527 -0.31025,0.34807 -0.35071,0.44748 -0.10594,0.25941 0.23326,-0.17922 0.36197,-0.20532 0.31161,-0.0636 -0.0471,0.13265 -0.90604,0.90637 -1.90841,1.71979 l -1.82263,1.47898 -1.57406,-1.30483 c -0.86578,-0.7178 -2.05704,-1.67869 -2.64739,-2.13527 -0.59036,-0.45657 -1.66775,-1.32802 -2.39417,-1.9368297 -1.2126197,-1.01633 -2.7712197,-2.10995 -3.0070497,-2.10995 -0.0537,0 -0.14028,1.42396 -0.19275,3.1646697 -0.0525,1.74069 -0.15414,4.98614 -0.22583,7.21196 -0.16937,5.25702 -0.18398,8.92398 -0.0362,9.0718 0.12109,0.12109 1.56795,-0.88713 1.834,-1.27796 0.0818,-0.12018 0.27297,-0.21986 0.42478,-0.22221 0.1518,-0.002 0.68733,-0.39901 1.1901097,-0.88212 0.50278,-0.48312 0.98559,-0.8785 1.0728,-0.8785 0.0872,0 0.43659,-0.2566 0.77669,-0.5705 0.82295,-0.75952 1.2253,-1.0887 1.40147,-1.14619 0.19845,-0.0647 1.25656,-0.95156 2.02933,-1.70118 0.34936,-0.33889 0.72818,-0.59791 0.84233,-0.57516 0.11414,0.0228 0.31558,-0.18971 0.44752,-0.47284 0.13191,-0.28313 0.17572,-0.5147 0.0971,-0.5147 -0.0786,0 -0.79376,0.52278 -1.58905,1.1622 l -1.44591,1.16272 1.14153,-1.04696 c 1.74893,-1.60406 1.9769,-1.68683 2.65411,-0.96273 0.32846,0.3512 0.37339,0.44537 0.10852,0.22634 -0.66488,-0.54979 -0.96404,-0.21474 -0.35347,0.39584 0.28319,0.28318 0.61029,0.51521 0.72657,0.51521 0.11627,0 0.68534,0.49007 1.26452,1.08934 0.57917,0.59923 0.88578,0.87952 0.6811,0.6227 -0.50662,-0.63573 -0.0846,-0.59387 0.52193,0.0517 0.2681,0.28536 0.41341,0.51883 0.32246,0.51883 -0.091,0 -0.05,0.13907 0.0909,0.30903 0.14105,0.16996 0.33661,0.2595 0.4346,0.19895 0.22331,-0.13803 1.2571,0.52227 1.13275,0.72347 -0.11162,0.18061 2.34524,2.3715 2.72128,2.42673 0.14774,0.0217 0.57442,0.27885 0.94826,0.57206 l 0.67955,0.53381 0.14882,-1.81126 c 0.0817,-0.99609 0.18805,-2.03633 0.23668,-2.31148 0.0486,-0.27515 -0.007,-0.77571 -0.12454,-1.11208 -0.15183,-0.43543 -0.14633,-0.65257 0.0186,-0.75448 0.16559,-0.10234 0.17358,-0.49474 0.0289,-1.37821 -0.11127,-0.67949 -0.20076,-1.37598 -0.19998,-1.54719 0.002,-0.27672 0.0242,-0.27672 0.20308,0 0.14114,0.21835 0.19482,-0.0604 0.17984,-0.93379 -0.0162,-0.94168 -0.0556,-1.09355 -0.16175,-0.6227 -0.0772,0.34243 -0.15454,-0.82492 -0.17156,-2.59416 -0.0191,-1.98429 0.0386,-3.05742 0.15037,-2.80138 0.11493,0.26326 0.1866,-0.66664 0.19586,-2.5424797 0.008,-1.62655 -0.0362,-2.95744 -0.0982,-2.95744 z m -0.19843,0.36535 0.063,1.06919 c 0.0346,0.58823 0.0281,1.5101 -0.0145,2.04845 -0.0785,0.9916097 -0.11782,0.8275397 -0.26045,-1.09606 -0.0339,-0.45658 -0.07,-0.94405 -0.0806,-1.08314 -0.0108,-0.14377 -0.17579,-0.20403 -0.38189,-0.139 -0.24939,0.0787 -0.20073,-0.0281 0.15554,-0.3421 z m -4.26073,3.39721 c -0.009,-0.0252 -0.12537,0.0352 -0.3576,0.1571 -0.25682,0.13478 -0.46664,0.3353197 -0.46664,0.4454497 0,0.29483 0.0993,0.24973 0.53847,-0.24495 0.19662,-0.2214397 0.29477,-0.3324397 0.28577,-0.3575997 z M 6.6312703,10.002278 c -0.019,0.0471 -0.0305,0.14774 -0.0305,0.29042 0,0.28538 0.0468,0.40209 0.10438,0.25941 0.0576,-0.14268 0.0576,-0.37615 0,-0.51883 -0.0288,-0.0713 -0.0549,-0.078 -0.0739,-0.031 z m 20.5641197,2.43551 c -0.0171,0.0654 -0.0283,0.22077 -0.0295,0.44907 h 5.2e-4 c -0.002,0.45658 0.0384,0.66711 0.0904,0.4687 0.0517,-0.19842 0.0534,-0.57177 0.004,-0.82992 -0.0248,-0.12908 -0.048,-0.15319 -0.0651,-0.0879 z m -2.9869,0.0811 v 0.60875 c 0,0.33516 -0.0961,0.70587 -0.21394,0.82372 -0.18691,0.18692 -0.34562,2.193 -0.39378,4.98006 l 5.2e-4,-5.2e-4 c -0.0132,0.76421 -0.0691,0.85576 -0.51935,0.85576 -0.31915,0 -0.71875,-0.25699 -1.0883,-0.70021 -0.32121,-0.38525 -0.68972,-0.70022 -0.81907,-0.70022 -0.12934,0 -0.36322,-0.15827 -0.51987,-0.3514 -0.24297,-0.29905 -0.24249,-0.3248 0.006,-0.17518 0.19784,0.11924 0.24418,0.099 0.14366,-0.0636 -0.0815,-0.13178 -0.30618,-0.24258 -0.4992,-0.2465 -0.50224,-0.009 -1.25612,-0.6356 -0.91777,-0.76223 0.14472,-0.0542 0.39502,-0.23016 0.55604,-0.39119 0.36249,-0.3625 0.6061,-0.38221 0.40514,-0.0331 -0.0868,0.15072 -0.0705,0.18682 0.0393,0.0863 0.1039,-0.0951 0.19295,-0.28232 0.19844,-0.41548 0.005,-0.1332 0.11879,-0.21989 0.25218,-0.19275 0.13339,0.0271 0.20324,-0.0664 0.15555,-0.20774 -0.0477,-0.14131 0.4311,-0.67646 1.0635,-1.19011 0.63241,-0.51365 1.37502,-1.15698 1.65054,-1.42937 z m -14.3293597,0.59738 0.5167697,0.48576 c 0.28457,0.26734 0.47248,0.5599 0.41702,0.64957 -0.0555,0.0897 0.009,0.23005 0.14211,0.31264 0.15177,0.0938 0.18753,0.0608 0.0951,-0.0889 -0.28932,-0.46812 0.12961,-0.22379 1.80816,1.05575 0.93495,0.71271 1.77009,1.27325 1.8557,1.2454 0.0856,-0.0278 0.15554,0.0409 0.15554,0.15245 0,0.22628 -0.95624,0.90188 -1.36012,0.96118 -0.31853,0.0468 -2.37148,1.5479 -2.76417,2.02106 -0.38514,0.46407 -0.57671,0.43134 -0.72554,-0.12402 -0.2164397,-0.80765 -0.1551597,-1.64814 0.10852,-1.48518 0.15531,0.096 0.18289,0.0566 0.0786,-0.11214 -0.0885,-0.14321 -0.19846,-1.34333 -0.2444297,-2.66702 z m 0.2909397,0.89142 c -0.0187,0.0463 -0.0316,0.16055 -0.0336,0.33176 -0.004,0.34243 0.0391,0.50741 0.0961,0.3669 0.057,-0.14051 0.06,-0.42077 0.008,-0.6227 -0.0263,-0.10095 -0.0516,-0.12226 -0.0703,-0.076 z m 9.53378,2.79569 c -0.0377,0.0166 -0.061,0.0574 -0.061,0.11782 0,0.12088 0.0936,0.22015 0.20774,0.22015 0.11414,0 0.20722,-0.0416 0.20722,-0.092 0,-0.0504 -0.0931,-0.14911 -0.20722,-0.21962 -0.0571,-0.0353 -0.10915,-0.0429 -0.14677,-0.0264 z m -1.5136,2.82825 c 0.0107,-0.0107 0.0948,0.0518 0.25942,0.18087 0.19975,0.15666 0.36277,0.32022 0.36277,0.36329 0,0.17081 -0.1702,0.061 -0.44132,-0.28474 -0.12907,-0.16458 -0.19159,-0.24871 -0.18087,-0.25942 z m -8.6428797,0.18707 h 5.2e-4 c 0.0188,-0.0463 0.0435,-0.025 0.0698,0.076 0.0525,0.20193 0.0489,0.48219 -0.008,0.6227 -0.0569,0.14051 -0.0995,-0.0245 -0.0956,-0.36691 0.002,-0.17122 0.0148,-0.28546 0.0336,-0.33176 z m 14.5355497,0.0904 c 0.0171,-0.0654 0.0402,-0.0412 0.0651,0.0879 0.0499,0.25816 0.0477,0.63151 -0.004,0.82992 -0.052,0.19842 -0.0927,-0.0121 -0.0904,-0.46871 7.8e-4,-0.22829 0.0124,-0.38367 0.0295,-0.44906 z m -0.71676,0.13746 c 0.12088,0 0.21963,0.0936 0.21963,0.20773 0,0.11414 -0.0412,0.20723 -0.0915,0.20723 -0.0504,0 -0.1491,-0.0931 -0.21962,-0.20723 -0.0705,-0.11414 -0.0294,-0.20773 0.0915,-0.20773 z m -13.6813297,0.93534 c 0.11599,0.0717 0.1566,0.21723 0.0909,0.32349 -0.17791,0.28786 -0.30231,0.23432 -0.30231,-0.13022 0,-0.17797 0.0954,-0.26496 0.21136,-0.19327 z m 9.7384197,0.1018 c 0.12088,0 0.21963,0.0936 0.21963,0.20774 0,0.11415 -0.0412,0.20774 -0.0915,0.20774 -0.0504,0 -0.14962,-0.0936 -0.22014,-0.20774 -0.0705,-0.11414 -0.0288,-0.20774 0.092,-0.20774 z m -6.5195,0.66301 c 0.0671,0.0671 -0.18675,0.33278 -0.5643,0.59066 l -0.68678,0.46871 0.56482,-0.59066 c 0.31043,-0.32498 0.61912,-0.53586 0.68626,-0.46871 z m -1.76992,1.41232 c 0.0108,0.0108 -0.0523,0.0948 -0.18138,0.25941 -0.27112,0.34571 -0.44132,0.45555 -0.44132,0.28474 0,-0.0431 0.16354,-0.20664 0.36329,-0.36329 0.16458,-0.12908 0.2487,-0.19156 0.25941,-0.18086 z m 14.11232,2.28306 c 0.0107,-0.0108 0.0948,0.0518 0.25942,0.18087 0.19975,0.15666 0.36328,0.32014 0.36328,0.36328 0,0.17081 -0.17019,0.061 -0.44131,-0.28473 -0.12907,-0.16458 -0.19211,-0.2487 -0.18139,-0.25942 z m 1.99368,0.82992 c -0.0451,0 -0.11769,0.37386 -0.16123,0.83045 -0.0435,0.45657 -0.006,0.82992 0.0822,0.82992 0.0887,0 0.16072,-0.37335 0.16072,-0.82992 0,-0.45659 -0.0365,-0.83045 -0.0816,-0.83045 z" /></g></svg>
