<?xml version="1.0" encoding="UTF-8" standalone="no"?>
<!-- Created with Inkscape (http://www.inkscape.org/) -->

<svg
   width="128"
   height="128"
   viewBox="0 0 33.866666 33.866666"
   version="1.1"
   id="svg1"
   xml:space="preserve"
   inkscape:version="1.3.2 (091e20e, 2023-11-25, custom)"
   sodipodi:docname="3.svg"
   xmlns:inkscape="http://www.inkscape.org/namespaces/inkscape"
   xmlns:sodipodi="http://sodipodi.sourceforge.net/DTD/sodipodi-0.dtd"
   xmlns="http://www.w3.org/2000/svg"
   xmlns:svg="http://www.w3.org/2000/svg"><sodipodi:namedview
     id="namedview1"
     pagecolor="#ffffff"
     bordercolor="#666666"
     borderopacity="1.0"
     inkscape:showpageshadow="2"
     inkscape:pageopacity="0.0"
     inkscape:pagecheckerboard="0"
     inkscape:deskcolor="#d1d1d1"
     inkscape:document-units="mm"
     inkscape:zoom="2.7758979"
     inkscape:cx="-0.1801219"
     inkscape:cy="50.614254"
     inkscape:window-width="1920"
     inkscape:window-height="1017"
     inkscape:window-x="-8"
     inkscape:window-y="-8"
     inkscape:window-maximized="1"
     inkscape:current-layer="layer1" /><defs
     id="defs1" /><g
     inkscape:label="Layer 1"
     inkscape:groupmode="layer"
     id="layer1"><path
       id="path1-1-57"
       style="fill:#000000;stroke-width:0.784387"
       d="m 14.735031,6.4016442 c -0.0171,0.0654 -0.0277,0.22025 -0.0289,0.44855 -0.002,0.45659 0.038,0.66765 0.0899,0.46922 0.0517,-0.19841 0.0538,-0.57176 0.004,-0.82992 -0.0247,-0.12859 -0.0479,-0.15228 -0.0651,-0.08785 z m 0.42375,0.45888 c -0.0848,0.04387 -0.0904,0.2416 -0.0904,0.68006 0,0.44501 -0.0927,1.297 -0.20567,1.89291 -0.14345,0.7563198 -0.13671,1.2114498 0.0217,1.5073998 0.16802,0.314 0.16255,0.46331 -0.0202,0.5762 -0.18516,0.11443 -0.19094,0.35385 -0.0227,0.95963 0.12323,0.44383 0.22299,0.99334 0.22221,1.22163 -0.002,0.34389 -0.0364,0.3618 -0.20309,0.10387 -0.14524,-0.22471 -0.19607,-0.05141 -0.18345,0.6227 0.0138,0.73692 0.0488,0.82436 0.16588,0.41496 0.0816,-0.28536 0.15289,0.60173 0.15916,1.97146 0.007,1.6256 -0.0413,2.20224 -0.13952,1.66036 -0.10261,-0.56581 -0.14914,-0.10338 -0.14522,1.45262 0.004,1.765 0.0334,2.0004 0.12868,1.03767 0.10565,-1.06763 0.13753,-1.14162 0.22479,-0.51883 0.0561,0.39951 0.0548,1.04553 -0.002,1.43505 -0.0933,0.63418 -0.13407,0.67224 -0.38912,0.36329 -0.15666,-0.18977 -0.40193,-0.3452 -0.54519,-0.3452 -0.14327,0 -0.38852,-0.15529 -0.54518,-0.3452 -0.2597,-0.31481 -0.23896,-0.32316 0.23409,-0.0925 0.48199,0.23499 0.49085,0.23056 0.12506,-0.06305 -0.21657,-0.17389 -0.47072,-0.26845 -0.56482,-0.21032 -0.24135,0.14916 -1.24111,-0.54092 -1.10433,-0.76223 0.062,-0.10033 -0.0243,-0.12955 -0.19224,-0.06511 -0.16792,0.0645 -0.53358,-0.03233 -0.81235,-0.21497 -0.49945,-0.32725 -0.51965,-0.31491 -1.3844097,0.83044 -0.48266,0.6393 -0.84602,1.18617 -0.80719,1.21543 0.0388,0.0293 0.91109,0.59204 1.9383897,1.25057 1.0273,0.65853 2.12107,1.37445 2.43034,1.59111 0.30928,0.21667 0.61919,0.39429 0.68885,0.39429 0.0697,0 0.51711,0.26776 0.99425,0.59532 0.47706,0.32749 1.23957,0.79446 1.69447,1.03766 h 5.2e-4 c 0.45472,0.24306 0.89819,0.44183 0.98547,0.44183 0.0873,0 0.15864,-1.01941 0.15864,-2.26549 0,-1.3163 0.0864,-2.29458 0.20619,-2.33474 0.12703,-0.0426 0.22672,-1.98795 0.25942,-5.06378 l 0.0532,-4.99452 0.65785,0.38757 c 0.36191,0.21316 0.77026,0.52305 0.90743,0.68833 0.13718,0.16528 0.37348,0.30024 0.52504,0.30024 0.15157,0 0.35056,0.12127 0.44183,0.26923 0.0913,0.14797 0.52795,0.47861 0.97048,0.73484 0.7998,0.46311 0.80667,0.46366 1.09451,0.05271 0.15926,-0.22738 0.42715,-0.5517 0.59583,-0.72037 0.16867,-0.16867 0.30696,-0.44992 0.30696,-0.62528 0,-0.17535 0.18667,-0.41887 0.41496,-0.54105 0.57421,-0.30731 0.52704,-0.44245 -0.36432,-1.03767 -0.42726,-0.28532 -0.87975,-0.65012 -1.00511,-0.81028 -0.12537,-0.16038 -0.32485,-0.23088 -0.44338,-0.15762 -0.11853,0.0733 -0.33561,-0.01152 -0.48214,-0.1881 -0.14652,-0.17655 -0.58377,-0.45324 -0.97204,-0.61546 -0.38826,-0.16223 -0.65109,-0.38383 -0.58394,-0.49248 0.0671,-0.1086498 0.0127,-0.2651798 -0.12092,-0.3477798 -0.16053,-0.0992 -0.1874,-0.05987 -0.0786,0.11627 0.11048,0.1787898 0.0699,0.2320298 -0.12351,0.1617498 -0.15857,-0.0576 -0.26236,-0.2170898 -0.23099,-0.3539898 0.0314,-0.13689 -0.0368,-0.19072 -0.15141,-0.11989 -0.25682,0.15872 -1.09654,-0.2654 -0.96067,-0.48524 0.0541,-0.0875 -0.20005,-0.33486 -0.56482,-0.54984 -0.36476,-0.21498 -0.84429,-0.55934 -1.06557,-0.76481 -0.22128,-0.20547 -0.50153,-0.38422 -0.6227,-0.39739 -0.54095,-0.0588 -0.66208,-0.09669 -1.10226,-0.34726 -0.11247,-0.064 -0.19765,-0.11086 -0.26251,-0.13281 h -5.2e-4 c -0.0486,-0.01648 -0.0854,-0.01876 -0.11369,-0.0041 z m 6.77581,4.7134098 c 0.008,-0.0126 0.12151,0.04018 0.34572,0.14883 0.25683,0.12446 0.46664,0.26988 0.46664,0.32298 0,0.15881 -0.10729,0.11288 -0.53072,-0.22635 -0.19344,-0.15498 -0.28997,-0.23294 -0.28164,-0.24546 z m 1.07746,0.65836 c -0.007,-0.0282 0.0782,0.0092 0.25373,0.0987 1.04868,0.5364 1.05045,0.54755 0.20102,1.6614 -0.4426,0.58038 -0.83766,1.05575 -0.87798,1.05575 -0.10177,0 0.14652,-0.40485 0.71417,-1.16169 0.5936,-0.79139 0.5945,-0.85252 0.015,-1.35909 -0.19743,-0.17258 -0.29845,-0.26681 -0.30592,-0.29507 z m -3.37809,0.74 c 0.0107,-0.0108 0.0948,0.05179 0.25942,0.18087 0.19975,0.15665 0.36328,0.32015 0.36328,0.36329 0,0.17081 -0.17019,0.06101 -0.44132,-0.28474 -0.12907,-0.16459 -0.19209,-0.24871 -0.18138,-0.25942 z m 1.27847,0.90072 c -0.005,-0.0271 0.10313,0.02163 0.31885,0.12609 0.25047,0.1212 0.51278,0.31332 0.58291,0.42685 0.20402,0.33011 -0.0201,0.24046 -0.54881,-0.22014 -0.2321,-0.20217 -0.3484,-0.30564 -0.35295,-0.3328 z m -2.46548,10.17716 c -0.0218,0.0218 -0.0364,0.09465 -0.0413,0.21549 -0.009,0.21882 0.0396,0.34128 0.10852,0.27234 0.069,-0.069 0.0764,-0.24758 0.0165,-0.3974 -0.0331,-0.0828 -0.0619,-0.11224 -0.0837,-0.09043 z m -0.20464,1.24437 c -0.0376,0.0166 -0.061,0.05737 -0.061,0.11782 0,0.12088 0.0936,0.22014 0.20773,0.22014 0.11415,0 0.20723,-0.04168 0.20723,-0.09198 0,-0.0504 -0.0931,-0.14911 -0.20723,-0.21963 -0.0571,-0.0353 -0.10915,-0.04285 -0.14676,-0.02635 z" /></g></svg>
