<?xml version="1.0" encoding="UTF-8" standalone="no"?>
<!-- Created with Inkscape (http://www.inkscape.org/) -->

<svg
   width="128"
   height="128"
   viewBox="0 0 33.866666 33.866666"
   version="1.1"
   id="svg1"
   xml:space="preserve"
   inkscape:version="1.3.2 (091e20e, 2023-11-25, custom)"
   sodipodi:docname="4.svg"
   xmlns:inkscape="http://www.inkscape.org/namespaces/inkscape"
   xmlns:sodipodi="http://sodipodi.sourceforge.net/DTD/sodipodi-0.dtd"
   xmlns="http://www.w3.org/2000/svg"
   xmlns:svg="http://www.w3.org/2000/svg"><sodipodi:namedview
     id="namedview1"
     pagecolor="#ffffff"
     bordercolor="#666666"
     borderopacity="1.0"
     inkscape:showpageshadow="2"
     inkscape:pageopacity="0.0"
     inkscape:pagecheckerboard="0"
     inkscape:deskcolor="#d1d1d1"
     inkscape:document-units="mm"
     inkscape:zoom="2.7758979"
     inkscape:cx="-0.1801219"
     inkscape:cy="50.614254"
     inkscape:window-width="1920"
     inkscape:window-height="1017"
     inkscape:window-x="-8"
     inkscape:window-y="-8"
     inkscape:window-maximized="1"
     inkscape:current-layer="layer1" /><defs
     id="defs1" /><g
     inkscape:label="Layer 1"
     inkscape:groupmode="layer"
     id="layer1"><path
       id="path1-1-11"
       style="fill:#000000;stroke-width:0.784387"
       d="m 26.17397,6.0340463 c -0.0926,-0.0929 -0.1229,0.36343 -0.0677,1.0144 l 0.10076,1.1834 0.0677,-1.01493 c 0.0373,-0.55811 -0.008,-1.09001 -0.10077,-1.18287 z m -0.35605,0.2806 c -0.12582,-0.12391 -1.78335,0.75924 -1.78335,0.95033 0,0.13874 -3.35095,2.48477 -4.35788,3.0509797 -0.27672,0.155603 -0.27672,0.131373 0,-0.22118 0.27749,-0.3535397 0.23201,-0.3477197 -0.41547,0.05529 -0.3995,0.248683 -0.72606,0.555773 -0.72606,0.682653 0,0.2943 -1.53451,1.44642 -1.9265,1.44642 -0.1628,0 -1.33744,-0.73339 -2.60966,-1.62987 -1.2722,-0.8964927 -2.51455,-1.6938627 -2.76107,-1.7719927 -0.24651,-0.0782 -0.57306,-0.30016 -0.72605,-0.49351 -0.25251,-0.31918 -0.2256,-0.31831 0.29249,0.01241 0.78674,0.50232 0.71978,0.28213 -0.0894,-0.29404 -0.36305,-0.25854 -0.59137,-0.35879 -0.50695,-0.22221 0.25889,0.4189 -0.05,0.28344 -1.3234296,-0.58136 -0.67234,-0.45657 -1.25088,-0.83036 -1.28571,-0.83044 -0.0348,-8e-5 -0.0413,1.47067 -0.0145,3.26853 0.0268,1.7978627 0.0549,6.5121627 0.063,10.4758527 0.008,3.96369 0.086,7.25065 0.17312,7.30446 0.0871,0.0538 0.68356,0.0436 1.3255,-0.0227 l 1.1668496,-0.12093 0.10801,-4.07055 c 0.0593,-2.23907 0.12743,-5.35906 0.15089,-6.93291 0.0263,-1.76381 0.11404,-2.75897 0.22893,-2.59416 0.17322,0.24845 0.0585,-0.33461 -0.20257,-1.02939 -0.0536,-0.14268 0.0522,-0.25942 0.23564,-0.25942 0.18343,0 0.33638,0.0699 0.33952,0.15555 0.003,0.0856 0.61184,0.52941 1.35289,0.98598 0.74105,0.45657 1.75414,1.12827 2.25102,1.49345 1.51955,1.11673 1.77313,1.1019 3.76515,-0.22376 0.9639,-0.64146 1.87003,-1.16991 2.01383,-1.1746 0.1438,-0.005 0.58459,-0.2849 0.97978,-0.6227 0.39519,-0.33779 0.77646,-0.61392 0.84698,-0.61392 0.0705,0 0.11092,0.35021 0.0899,0.77825 -0.14613,2.97066 -0.15064,5.41691 -0.0109,5.83634 0.10393,0.31189 0.0772,0.54684 -0.0723,0.63923 -0.15009,0.0927 -0.17433,0.31302 -0.0667,0.6041 0.0932,0.25199 0.10684,1.132 0.03,1.95544 -0.0766,0.82344 -0.0799,1.59066 -0.007,1.7048 0.0728,0.11414 0.13714,0.53428 0.14263,0.9338 0.006,0.3995 0.0288,1.21665 0.0517,1.81591 l 0.0419,1.08985 h 1.5565 1.55649 v -0.81339 c 0,-0.44707 0.0884,-0.84356 0.19689,-0.8816 0.21323,-0.0747 0.26438,-3.31638 0.0806,-5.12785 -0.0797,-0.78553 -0.0458,-1.07288 0.11576,-0.97307 0.15103,0.0933 0.22241,-0.0929 0.20877,-0.54518 -0.0191,-0.63398 -0.0324,-0.64693 -0.17208,-0.16795 -0.13928,0.4775 -0.15947,0.45755 -0.24805,-0.24805 -0.053,-0.42169 -0.0208,-0.96974 0.0708,-1.21749 0.16109,-0.4355 0.0381,-11.3875027 -0.12971,-11.5553727 z m -3.75533,1.99109 -0.82992,0.57723 c -0.45657,0.31752 -0.86921,0.60451 -0.91674,0.63769 -0.0476,0.0331 0.002,0.06046 0.11162,0.06046 0.10894,0 0.52154,-0.28702 0.91674,-0.63769 z m 4.11086,1.19269 c -0.019,0.047 -0.031,0.14775 -0.031,0.29043 0,0.2853797 0.0473,0.4020897 0.1049,0.2594097 0.0576,-0.1426797 0.0576,-0.3761397 0,-0.5188297 -0.0288,-0.0713 -0.0549,-0.07801 -0.0739,-0.03101 z M 13.56596,10.003306 c -0.12086,0.004 0.0139,0.14125 0.2992,0.30438 v -5.2e-4 c 0.67227,0.384633 0.8359,0.381283 0.3235,-0.0062 -0.22157,-0.16759 -0.50184,-0.3015797 -0.6227,-0.29766 z m 1.12913,0.698153 c 0,0.0563 0.39699,0.38349 0.88211,0.72709 0.48511,0.34358 0.91207,0.62936 0.94878,0.63407 0.17357,0.0241 1.9118,-1.09061 1.82935,-1.17306 -0.0518,-0.0518 -0.4703,0.15508 -0.93018,0.45941 l -0.83561,0.55294 -0.94723,-0.65113 c -0.52081,-0.35834 -0.94722,-0.60564 -0.94722,-0.54932 z m 8.04602,0.98909 c 0.0674,-0.0257 0.12565,-0.0262 0.15761,0.006 0.0639,0.0639 -0.0516,0.18044 -0.25632,0.25839 -0.29578,0.11263 -0.31919,0.0887 -0.11575,-0.11628 0.0704,-0.0709 0.14701,-0.1221 0.21446,-0.14779 z m 0.13952,1.88102 c 0.0156,-0.0995 0.036,-0.0727 0.0589,0.11214 h 5.2e-4 c 0.046,0.37302 0.0449,0.93354 -0.002,1.2454 -0.0473,0.31185 -0.0845,0.007 -0.0837,-0.67799 5.8e-4,-0.34193 0.0108,-0.57653 0.0263,-0.67955 z m 0.0377,4.39198 c 0.008,0.0382 0.0166,0.1974 0.0258,0.48989 0.037,1.16998 0.037,3.08454 0,4.25452 -0.037,1.16996 -0.0672,0.21296 -0.0672,-2.127 0,-1.75497 0.0172,-2.73208 0.0413,-2.61741 z m -12.29951,5.50147 c -0.0188,0.0463 -0.0317,0.16107 -0.0336,0.33228 -0.004,0.34242 0.0387,0.50743 0.0956,0.36691 0.057,-0.1405 0.06,-0.42078 0.008,-0.62271 -0.0263,-0.10096 -0.0511,-0.1228 -0.0698,-0.0765 z m 11.6241,3.14245 c -0.0172,0.0658 -0.0284,0.20693 -0.0284,0.40669 0,0.39951 0.0429,0.56252 0.0951,0.36277 0.0522,-0.19975 0.0522,-0.5263 0,-0.72605 -0.0261,-0.0999 -0.0495,-0.10922 -0.0667,-0.0434 z" /></g></svg>
