<?xml version="1.0" encoding="UTF-8" standalone="no"?>
<!-- Created with Inkscape (http://www.inkscape.org/) -->

<svg
   width="128"
   height="128"
   viewBox="0 0 33.866666 33.866666"
   version="1.1"
   id="svg1"
   xml:space="preserve"
   inkscape:version="1.3.2 (091e20e, 2023-11-25, custom)"
   sodipodi:docname="5.svg"
   xmlns:inkscape="http://www.inkscape.org/namespaces/inkscape"
   xmlns:sodipodi="http://sodipodi.sourceforge.net/DTD/sodipodi-0.dtd"
   xmlns="http://www.w3.org/2000/svg"
   xmlns:svg="http://www.w3.org/2000/svg"><sodipodi:namedview
     id="namedview1"
     pagecolor="#ffffff"
     bordercolor="#666666"
     borderopacity="1.0"
     inkscape:showpageshadow="2"
     inkscape:pageopacity="0.0"
     inkscape:pagecheckerboard="0"
     inkscape:deskcolor="#d1d1d1"
     inkscape:document-units="mm"
     inkscape:zoom="2.7758979"
     inkscape:cx="-0.1801219"
     inkscape:cy="50.614254"
     inkscape:window-width="1920"
     inkscape:window-height="1017"
     inkscape:window-x="-8"
     inkscape:window-y="-8"
     inkscape:window-maximized="1"
     inkscape:current-layer="layer1" /><defs
     id="defs1" /><g
     inkscape:label="Layer 1"
     inkscape:groupmode="layer"
     id="layer1"><path
       id="path1-1-5"
       style="fill:#000000;stroke-width:0.784387"
       d="m 20.636773,7.7038939 5.1e-4,5.17e-4 c -0.18602,0.0279 -0.43902,0.176055 -0.65887,0.428914 -0.2547,0.2929298 -0.58627,0.5322678 -0.73691,0.5322678 -0.15063,0 -0.27873,0.116725 -0.28422,0.259415 -0.005,0.14267 -0.46615,0.631193 -1.02319,1.0857223 -0.71597,0.58421 -0.95325,0.897856 -0.80977,1.070736 0.14064,0.16946 1.4e-4,0.475799 -0.45734,0.996838 -0.36312,0.41357 -0.71151,0.700794 -0.77411,0.638204 -0.0626,-0.0626 0.20201,-0.439368 0.58756,-0.837158 0.84814,-0.875059 0.49893,-0.969485 -0.43408,-0.117306 -0.39404,0.35991 -0.61652,0.730049 -0.54726,0.910539 0.0864,0.22516 0.005,0.274853 -0.31522,0.191203 -0.26434,-0.0691 -0.38134,-0.03038 -0.30128,0.09922 0.13464,0.21786 -1.25097,1.608794 -1.62212,1.628324 -0.24784,0.013 -1.67248,1.337903 -1.43867,1.337903 0.089,0 -0.0509,0.226935 -0.31109,0.503845 -0.26903,0.28632 -0.41189,0.621976 -0.33176,0.778246 0.0775,0.15113 -0.006,0.0934 -0.18604,-0.12816 -0.17968,-0.221536 -0.32711,-0.30336 -0.32711,-0.181381 0,0.287761 0.5213,0.720481 0.67851,0.563271 0.0665,-0.0666 0.37357,0.26105 0.68265,0.72812 0.30908,0.46704 0.68423,0.84905 0.83354,0.84905 0.14931,0 0.33817,0.10801 0.41961,0.23978 0.0967,0.15645 0.0466,0.18905 -0.14366,0.094 -0.16032,-0.08 -0.0609,0.0224 0.22066,0.22737 0.28163,0.20504 0.74857,0.59451 1.03766,0.86558 0.2891,0.27103 0.36254,0.37646 0.16278,0.2341 -0.55443,-0.39514 -0.43286,-0.13458 0.20102,0.43046 0.31044,0.27672 0.43897,0.33927 0.28577,0.13953 -0.20772,-0.2708 -0.21447,-0.36329 -0.0264,-0.36329 0.13881,0 0.29739,0.17134 0.35191,0.37982 0.0545,0.20847 0.3495,0.53506 0.65526,0.72606 0.88434,0.55243 3.58275,3.12421 3.63389,3.46335 0.0256,0.16946 0.12001,0.4249 0.20929,0.56793 0.171,0.27375 0.81266,0.0538 1.07332,-0.36794 0.0713,-0.11546 0.24038,-0.14194 0.37517,-0.0589 0.1348,0.0831 0.0751,-0.10869 -0.13229,-0.42581 l -0.37673,-0.57671 0.53227,0.34881 c 0.46067,0.30218 0.65866,0.30542 0.48111,0.007 -0.0285,-0.0478 0.17973,-0.33359 0.4625,-0.63459 l 0.51367,-0.54674 -0.89039,-0.82268 c -0.48986,-0.45234 -0.98022,-0.76696 -1.08985,-0.69919 -0.10959,0.0677 -0.17401,0.0436 -0.14263,-0.0532 0.0949,-0.29284 -5.27394,-4.83588 -5.7149,-4.83588 -0.12865,0 0.32067,-0.560019 0.99839,-1.244889 0.67772,-0.684869 1.34713,-1.245402 1.48725,-1.245402 0.14012,0 0.88272,-0.583679 1.65003,-1.297078 0.7673,-0.713409 1.9298,-1.792237 2.58382,-2.397786 l 1.18959,-1.101225 -1.00976,-0.9441293 c -0.55515,-0.519269 -0.98883,-1.0395018 -0.96428,-1.1560008 0.0478,-0.22703 -0.0719,-0.318889 -0.25786,-0.290939 z m -0.46354,0.7539588 c 0.0571,0 -0.0652,0.186662 -0.27182,0.414962 -0.2066,0.22829 -0.42246,0.415479 -0.47956,0.415479 -0.0571,0 0.0652,-0.187189 0.27182,-0.415479 0.2066,-0.2283 0.42245,-0.414962 0.47956,-0.414962 z m -1.26659,1.112077 c 0.0376,0.0144 0.061,0.05201 0.061,0.109038 0,0.114149 -0.0936,0.26486 -0.20774,0.3353803 -0.11414,0.0705 -0.20774,0.03503 -0.20774,-0.07906 0,-0.11415 0.0936,-0.265377 0.20774,-0.335897 0.0571,-0.0353 0.10915,-0.04386 0.14676,-0.02946 z m -0.81701,0.8469773 c 0.0696,0.0696 -0.0418,0.287695 -0.24804,0.484725 -0.35857,0.34248 -0.36426,0.336792 -0.12661,-0.126607 0.13673,-0.2666 0.30508,-0.427698 0.37465,-0.358118 z m -3.51968,2.607076 c -0.0571,0 -0.27295,0.186672 -0.47955,0.414962 -0.20661,0.228289 -0.32893,0.415478 -0.27182,0.415478 0.0571,0 0.27295,-0.187189 0.47955,-0.415478 0.2066,-0.22829 0.32892,-0.414962 0.27182,-0.414962 z m 2.7373,2.282548 c -0.0107,-0.0108 -0.0948,0.05229 -0.25941,0.181384 -0.19975,0.15666 -0.36329,0.320216 -0.36329,0.363286 0,0.170809 0.1702,0.0604 0.44132,-0.285254 0.12907,-0.16458 0.1921,-0.248696 0.18138,-0.259416 z m -5.20743,0.584977 c 0.0814,0.0234 0.2259,0.149688 0.47852,0.391708 0.31798,0.304639 0.57826,0.582876 0.57826,0.618566 0,0.149532 -0.1735,0.04447 -0.42271,-0.255798 -0.14642,-0.17644 -0.37176,-0.280253 -0.50023,-0.230994 -0.12847,0.0493 -0.23306,-0.08444 -0.23306,-0.297656 0,-0.16942 0.0179,-0.249216 0.0992,-0.225826 z m 4.18166,0.245463 c -0.12088,0 -0.21963,0.09308 -0.21963,0.207223 0,0.11414 0.0412,0.207739 0.0915,0.207739 0.0504,0 0.14962,-0.09361 0.22014,-0.207739 0.0705,-0.11414 0.0289,-0.207223 -0.092,-0.207223 z m -2.08722,1.867583 c 0.0107,-0.0107 0.0948,0.0523 0.25942,0.18139 0.19975,0.15666 0.36329,0.31971 0.36329,0.36277 0,0.17081 -0.17072,0.0609 -0.44184,-0.28474 -0.12907,-0.16458 -0.19159,-0.24871 -0.18087,-0.25942 z m 2.07533,2.07533 c 0.0107,-0.0107 0.0948,0.0523 0.25942,0.18138 0.19976,0.15666 0.36328,0.3197 0.36328,0.36277 0,0.1708 -0.17072,0.0609 -0.44183,-0.28473 -0.12908,-0.16458 -0.19158,-0.24871 -0.18087,-0.25942 z m 1.24489,1.2454 c 0.0107,-0.0107 0.0948,0.0518 0.25941,0.18087 0.19975,0.15666 0.36329,0.32021 0.36329,0.36328 0,0.17081 -0.1702,0.0609 -0.44132,-0.28473 -0.12908,-0.16459 -0.1921,-0.24871 -0.18138,-0.25942 z m 4.9816,1.65985 c -0.0123,0.005 0.0781,0.11327 0.25942,0.32866 0.19998,0.23755 0.30111,0.49419 0.22479,0.57051 -0.0763,0.0764 -0.0817,0.13849 -0.0124,0.13849 0.35557,0 0.29363,-0.40529 -0.11421,-0.75034 -0.23042,-0.19493 -0.34526,-0.29246 -0.3576,-0.28732 z m -5.26117,0.41548 c -0.11415,0 0.0115,0.23347 0.27957,0.51883 0.26807,0.28536 0.58141,0.51883 0.69556,0.51883 0.11414,0 -0.012,-0.23347 -0.28009,-0.51883 -0.26808,-0.28536 -0.5809,-0.51883 -0.69504,-0.51883 z m 1.21388,1.14101 0.39532,0.46716 c 0.21744,0.25682 0.42778,0.46715 0.46716,0.46715 0.16609,0 0.043,-0.16694 -0.39585,-0.53847 z" /></g></svg>
