<?xml version="1.0" encoding="UTF-8" standalone="no"?>
<!-- Created with Inkscape (http://www.inkscape.org/) -->

<svg
   width="128"
   height="128"
   viewBox="0 0 33.866666 33.866666"
   version="1.1"
   id="svg1"
   xml:space="preserve"
   inkscape:version="1.3.2 (091e20e, 2023-11-25, custom)"
   sodipodi:docname="6.svg"
   xmlns:inkscape="http://www.inkscape.org/namespaces/inkscape"
   xmlns:sodipodi="http://sodipodi.sourceforge.net/DTD/sodipodi-0.dtd"
   xmlns="http://www.w3.org/2000/svg"
   xmlns:svg="http://www.w3.org/2000/svg"><sodipodi:namedview
     id="namedview1"
     pagecolor="#ffffff"
     bordercolor="#666666"
     borderopacity="1.0"
     inkscape:showpageshadow="2"
     inkscape:pageopacity="0.0"
     inkscape:pagecheckerboard="0"
     inkscape:deskcolor="#d1d1d1"
     inkscape:document-units="mm"
     inkscape:zoom="2.7758979"
     inkscape:cx="-0.1801219"
     inkscape:cy="50.614254"
     inkscape:window-width="1920"
     inkscape:window-height="1017"
     inkscape:window-x="-8"
     inkscape:window-y="-8"
     inkscape:window-maximized="1"
     inkscape:current-layer="layer1" /><defs
     id="defs1" /><g
     inkscape:label="Layer 1"
     inkscape:groupmode="layer"
     id="layer1"><path
       id="path1-1-0"
       style="fill:#000000;stroke-width:0.784387"
       d="m 12.886754,6.1889923 0.14366,2.32389 c 0.17551,2.8392097 0.15265,4.6295497 -0.0801,6.2673197 -0.0974,0.68487 -0.1021,1.29283 -0.0109,1.35134 0.0913,0.0585 0.14971,1.00689 0.12971,2.10737 -0.02,1.10048 -0.10052,1.96086 -0.1788,1.91254 -0.0783,-0.0483 -0.0551,0.21721 0.0517,0.58963 0.10681,0.37241 0.19278,0.86444 0.19121,1.09348 -0.002,0.34489 -0.0379,0.36323 -0.20464,0.10542 -0.14757,-0.22835 -0.19805,-0.0901 -0.18966,0.51883 0.008,0.61688 0.0529,0.72393 0.1726,0.41754 0.0973,-0.2491 0.17468,0.35212 0.19586,1.51877 0.0229,1.261733 -0.0376,1.885983 -0.17519,1.800933 -0.13071,-0.0808 -0.21084,0.22879 -0.21084,0.81597 v 0.94619 l 2.02314,-0.0429 2.02365,-0.0429 -1.91978,-0.0687 c -1.65511,-0.0591 -1.91685,-0.11733 -1.90273,-0.42375 0.01,-0.2164 0.0566,-0.25404 0.12041,-0.0961 0.0703,0.17424 0.60201,0.25941 1.61799,0.25941 h 1.51256 l 0.14005,-0.88212 c 0.0771,-0.48511 0.18385,-1.11558 0.23719,-1.40094 0.0874,-0.46718 0.0761,-0.47762 -0.11575,-0.10387 -0.16774,0.32687 -0.1881,0.24673 -0.0951,-0.37776 0.065,-0.436153 0.16827,-0.949883 0.22945,-1.141533 0.0951,-0.29811 0.0789,-0.30305 -0.11266,-0.0367 -0.18515,0.25738 -0.22501,0.2268 -0.22737,-0.17622 -0.005,-0.67844 0.76118,-1.33171 4.30102,-3.67006 2.7647,-1.82633 3.96355,-2.7408 3.75895,-2.86753 -1.61434,-0.99994 -3.0825,-2.05576 -3.0825,-2.21692 0,-0.11579 -0.77036,-0.72021 -1.71204,-1.34307 -2.92048,-1.93166 -3.01511,-2.04548 -3.1502,-3.7868497 -0.0642,-0.82755 -0.0407,-1.50481 0.0522,-1.50481 0.0929,0 0.11584,-0.39701 0.0512,-0.88212 l -0.11783,-0.8816 -1.73322,-0.0413 z m 1.43299,0.31006 c 0.10344,0.0142 0.20792,0.0483 0.28835,0.0992 0.21286,0.13476 0.13683,0.18627 -0.27853,0.18862 -0.61974,0.004 -0.73084,-0.0982 -0.29198,-0.26665 0.0765,-0.0294 0.17871,-0.0354 0.28216,-0.0212 z m 0.3731,0.39481 0.46716,0.39481 c 0.25683,0.21744 0.46663,0.42778 0.46663,0.46715 0,0.16608 -0.16641,0.0435 -0.53795,-0.39532 z m -1.22938,1.01338 c 0.01,0.014 0.0203,0.0728 0.0315,0.17983 0.0448,0.42805 0.0448,1.12845 0,1.55649 -0.0448,0.4280397 -0.0811,0.0778 -0.0811,-0.77824 0,-0.64205 0.0203,-1.00003 0.0496,-0.95808 z m 2.63963,6.6388697 c 0.0377,-0.0166 0.0892,-0.009 0.14624,0.0263 0.11414,0.0706 0.20774,0.16927 0.20774,0.21963 0,0.0503 -0.0936,0.092 -0.20774,0.092 -0.11415,0 -0.20722,-0.0993 -0.20722,-0.22014 0,-0.0604 0.0234,-0.10123 0.061,-0.11782 z m 5.95726,0.33744 c -0.0107,0.0107 0.0523,0.0948 0.18138,0.25942 0.27112,0.34569 0.44132,0.45555 0.44132,0.28474 0,-0.0431 -0.16353,-0.20663 -0.36328,-0.36329 -0.16458,-0.12907 -0.24871,-0.19158 -0.25942,-0.18087 z m -5.23121,0.42272 c 0.028,0.003 0.0339,0.0865 0.0367,0.25218 0.004,0.21473 0.16594,0.36328 0.39636,0.36328 0.21438,0 0.54494,0.20981 0.73536,0.46664 0.19045,0.25687 0.28927,0.34974 0.21962,0.20619 -0.10015,-0.20646 -0.0147,-0.2104 0.40618,-0.0186 0.55196,0.25149 0.76165,0.72298 0.23099,0.51935 -0.17853,-0.0685 -0.26465,-0.0139 -0.21187,0.13384 0.049,0.13687 -0.39201,0.57455 -0.97978,0.97307 -0.58778,0.39851 -1.19281,0.84914 -1.34463,1.00097 -0.22968,0.22969 -0.27595,0.20593 -0.27595,-0.14159 0,-0.22971 0.0812,-0.46791 0.18035,-0.52917 0.0992,-0.0613 0.19293,-0.68335 0.20878,-1.38235 0.0158,-0.69899 0.11855,-1.42468 0.22841,-1.61282 0.0911,-0.1561 0.14146,-0.23385 0.16949,-0.23099 z m 6.25699,0.19999 c -0.12086,0 -0.16251,0.0931 -0.092,0.20722 0.0705,0.11414 0.16978,0.20774 0.22014,0.20774 0.0504,0 0.0915,-0.0936 0.0915,-0.20774 0,-0.11415 -0.0987,-0.20722 -0.21962,-0.20722 z m -10.30687,1.53117 c -0.0218,0.0218 -0.0364,0.0946 -0.0413,0.21549 -0.009,0.21873 0.0396,0.34128 0.10852,0.27233 0.069,-0.069 0.0765,-0.24809 0.0165,-0.3979 -0.0331,-0.0828 -0.0618,-0.11173 -0.0837,-0.0899 z m 0,7.886343 c -0.0218,0.0218 -0.0364,0.0947 -0.0413,0.21549 -0.009,0.21874 0.0396,0.34128 0.10852,0.27234 0.069,-0.0689 0.0765,-0.24809 0.0165,-0.39791 -0.0331,-0.0828 -0.0618,-0.11173 -0.0837,-0.0899 z m 3.73569,2.07533 c -0.0218,0.0218 -0.0364,0.0947 -0.0413,0.21549 -0.009,0.21881 0.0396,0.34127 0.10852,0.27233 0.0689,-0.069 0.0764,-0.24808 0.0165,-0.3979 -0.0331,-0.0828 -0.0618,-0.11172 -0.0837,-0.0899 z" /></g></svg>
