<?xml version="1.0" encoding="UTF-8" standalone="no"?>
<!-- Created with Inkscape (http://www.inkscape.org/) -->

<svg
   width="128"
   height="128"
   viewBox="0 0 33.866666 33.866666"
   version="1.1"
   id="svg1"
   xml:space="preserve"
   inkscape:version="1.3.2 (091e20e, 2023-11-25, custom)"
   sodipodi:docname="7.svg"
   xmlns:inkscape="http://www.inkscape.org/namespaces/inkscape"
   xmlns:sodipodi="http://sodipodi.sourceforge.net/DTD/sodipodi-0.dtd"
   xmlns="http://www.w3.org/2000/svg"
   xmlns:svg="http://www.w3.org/2000/svg"><sodipodi:namedview
     id="namedview1"
     pagecolor="#ffffff"
     bordercolor="#666666"
     borderopacity="1.0"
     inkscape:showpageshadow="2"
     inkscape:pageopacity="0.0"
     inkscape:pagecheckerboard="0"
     inkscape:deskcolor="#d1d1d1"
     inkscape:document-units="mm"
     inkscape:zoom="2.7758979"
     inkscape:cx="-0.1801219"
     inkscape:cy="50.614254"
     inkscape:window-width="1920"
     inkscape:window-height="1017"
     inkscape:window-x="-8"
     inkscape:window-y="-8"
     inkscape:window-maximized="1"
     inkscape:current-layer="layer1" /><defs
     id="defs1" /><g
     inkscape:label="Layer 1"
     inkscape:groupmode="layer"
     id="layer1"><path
       id="path1-1-6"
       style="fill:#000000;stroke-width:0.784387"
       d="m 22.206403,6.5570168 c -0.11403,0 -0.41448,0.28027 -0.66766,0.6227 -0.25316,0.34243 -0.42826,0.62218 -0.38912,0.62218 0.0391,0 0.33959,-0.27975 0.66766,-0.62218 0.32805,-0.34243 0.50316,-0.6227 0.38912,-0.6227 z m -10.54096,0.002 c -0.29195,-0.004 -3.2344297,1.87196 -3.2344297,2.061893 0,0.0921 0.13285,0.27722 0.29508,0.41186 0.2411,0.20009 0.27535,0.17034 0.1881,-0.16329 -0.0837,-0.32006 0.1514,-0.573073 1.0893397,-1.173063 0.65794,-0.42089 1.30794,-0.80862 1.44435,-0.86093 0.20472,-0.0786 1.15352,1.04042 1.83142,2.159563 0.37589,0.62056 -0.0951,0.17449 -0.82166,-0.778253 -0.43524,-0.57073 -0.85789,-1.03766 -0.93948,-1.03766 -0.27944,0 -2.4563897,1.348763 -2.4603097,1.524463 -0.002,0.0965 0.18824,0.44595 0.42375,0.77669 0.23555,0.33073 0.36149,0.7097802 0.27957,0.8423302 -0.0885,0.14323 -0.0588,0.18503 0.0734,0.10335 0.3280197,-0.20273 2.2442197,2.4094 2.0262297,2.76211 -0.0577,0.0933 0.0578,0.29706 0.25631,0.45268 0.33371,0.26161 0.33777,0.25202 0.0532,-0.13177 -0.30458,-0.41085 -0.30316,-0.41113 0.15503,-0.0202 0.2546,0.21722 0.97644,1.14508 1.60404,2.06241 0.97386,1.42347 1.10333,1.72046 0.88263,2.02468 -0.47593,0.65605 -1.94617,2.76759 -2.9099,4.17907 -0.52473,0.76851 -1.18127,1.70239 -1.45883,2.07533 -0.27756,0.37293 -0.6641297,0.92967 -0.8593697,1.23713 l -0.35502,0.55863 1.0614297,0.53795 c 0.58392,0.2959 1.141,0.489 1.23817,0.42891 0.0972,-0.0601 0.91085,-1.13629 1.80816,-2.39158 0.89733,-1.25528 1.73772,-2.28305 1.86707,-2.28462 0.12935,-0.002 0.54948,-0.41982 0.93379,-0.92966 0.7431,-0.98585 0.95254,-1.05154 1.3069,-0.40979 0.12229,0.2215 0.29535,0.4572 0.38499,0.52348 0.0897,0.0663 0.35683,0.48645 0.59376,0.93379 0.50512,0.95369 2.30709,3.56459 3.15588,4.57234 0.32572,0.38672 0.63396,0.70279 0.68471,0.70279 0.0507,0 0.57825,-0.31133 1.17202,-0.69194 1.17738,-0.75469 1.81541,-1.38338 1.40405,-1.38338 -0.13486,0 -0.19623,-0.0797 -0.13591,-0.17725 0.0603,-0.0975 -0.12702,-0.39929 -0.41599,-0.67076 -0.28897,-0.27147 -0.72383,-0.82225 -0.96687,-1.2237 -0.24304,-0.40146 -0.7358,-1.10354 -1.09502,-1.56011 -0.35923,-0.45658 -0.99588,-1.40421 -1.4149,-2.10582 -0.41901,-0.70161 -0.90216,-1.32909 -1.07332,-1.39474 -0.17118,-0.0657 -0.29517,-0.19233 -0.27595,-0.28112 0.0192,-0.0888 -0.0405,-0.33444 -0.1323,-0.54571 -0.11024,-0.25362 -0.0687,-0.4463 0.12248,-0.5674 0.15928,-0.10088 0.20693,-0.18498 0.10593,-0.18655 -0.101,-0.002 0.0584,-0.19334 0.35399,-0.42582 0.29556,-0.2325 0.49217,-0.5399 0.43718,-0.68316 -0.055,-0.14326 0.17373,-0.4629 0.50798,-0.71003 0.61912,-0.45774 1.78703,-1.92763 1.28519,-1.61748 -0.1884,0.11642 -0.24222,0.0794 -0.17053,-0.11782 0.0576,-0.15856 0.1987,-0.26903 0.31368,-0.24495 0.115,0.0241 0.19703,-0.11581 0.1819,-0.31109 -0.0151,-0.19527 0.0958,-0.32955 0.24701,-0.29817 0.15105,0.0314 0.22144,-0.0303 0.15555,-0.13694 -0.18328,-0.29656 0.10311,-0.87208 0.51108,-1.02681 0.20054,-0.0761 0.74443,-0.64518 1.20922,-1.2650402 l 0.84543,-1.12707 -0.66766,-0.419093 c -0.36731,-0.23047 -0.7459,-0.3976 -0.84129,-0.37156 -0.0954,0.026 -0.50631,-0.15836 -0.91312,-0.40979 l -0.73949,-0.45734 -0.38964,0.50282 c -0.21419,0.2767 -0.83075,0.99756 -1.36995,1.601453 -0.53919,0.60389 -1.08936,1.3973802 -1.22266,1.7637202 -0.13332,0.36633 -0.34167,0.64346 -0.46354,0.61546 -0.12187,-0.028 -0.44689,0.39313 -0.72192,0.93586 -0.27501,0.54273 -0.68462,1.21457 -0.91002,1.49293 l -0.40979,0.50592 -0.14625,-0.45992 c -0.0803,-0.25303 -0.42023,-0.76097 -0.75602,-1.12862 -0.34837,-0.38141 -0.56022,-0.80039 -0.493,-0.97565 0.0648,-0.16899 0.0511,-0.2403 -0.03,-0.15916 -0.17319,0.17319 -0.70435,-0.22087 -0.70435,-0.52245 0,-0.11413 0.16353,-0.084 0.36329,0.0672 0.31353,0.23728 0.32647,0.23379 0.0935,-0.0264 -0.14839,-0.16571 -0.37045,-0.30127 -0.49351,-0.30127 -0.12305,0 -0.37219,-0.23347 -0.55345,-0.51883 l -0.3297,-0.5188302 0.50178,0.4149602 c 0.40907,0.33827 0.376,0.24229 -0.1788,-0.5188302 -0.37441,-0.51366 -1.02362,-1.423173 -1.44281,-2.021073 -0.41919,-0.59792 -0.84731,-1.08778 -0.95188,-1.08934 z m 11.60705,1.34049 c 0.0348,-0.0145 0.10196,-0.005 0.1943,0.03 0.17715,0.068 0.32194,0.16029 0.32194,0.20516 0,0.16809 -0.39541,0.0737 -0.51728,-0.12351 -0.0364,-0.0588 -0.0336,-0.097 10e-4,-0.11162 z m -12.9279,3.2344332 c -0.013,0.0129 0.0517,0.12353 0.18294,0.3421 0.15111,0.25164 0.31902,0.4127 0.37362,0.35811 0.0546,-0.0546 -0.0692,-0.26081 -0.27492,-0.45785 -0.17868,-0.17113 -0.26867,-0.25532 -0.28164,-0.24236 z m 11.54969,2.06809 c 0.026,0.008 -0.0333,0.12114 -0.15193,0.34726 -0.26458,0.50449 -0.65164,0.81513 -0.65164,0.52297 0,-0.10318 0.20056,-0.36547 0.44545,-0.58291 0.22109,-0.19629 0.33214,-0.29488 0.35812,-0.28732 z m -4.83847,0.20309 c -0.0503,0 -0.1491,0.0936 -0.21962,0.20774 -0.0706,0.11415 -0.0294,0.20774 0.0915,0.20774 0.12088,0 0.21963,-0.0936 0.21963,-0.20774 0,-0.11414 -0.0411,-0.20774 -0.0915,-0.20774 z m 2.3952,2.38693 -0.3023,0.62632 c -0.2577,0.53438 -0.26049,0.72541 -0.0202,1.29708 0.32869,0.78171 0.25119,0.86082 -0.20515,0.20929 -0.43399,-0.61961 -0.40672,-1.05694 0.10232,-1.64331 z m -0.0207,2.8019 c 0.0107,-0.0108 0.0948,0.0513 0.25942,0.18035 0.19975,0.15665 0.36328,0.32022 0.36328,0.36328 0,0.17081 -0.17019,0.0615 -0.44131,-0.28422 -0.12907,-0.16459 -0.1921,-0.24869 -0.18139,-0.25941 z m 0.6227,0.82992 c 0.0107,-0.0108 0.0948,0.0518 0.25942,0.18087 0.19976,0.15665 0.36328,0.31971 0.36328,0.36277 0,0.17081 -0.1702,0.0615 -0.44131,-0.28422 -0.12907,-0.16458 -0.1921,-0.2487 -0.18139,-0.25942 z m 1.13637,1.4702 c 0.0374,-0.0171 0.22425,0.18443 0.53227,0.61701 0.24852,0.34901 0.41753,0.66871 0.37517,0.71107 -0.0423,0.0424 -0.28711,-0.24273 -0.54364,-0.63407 -0.2892,-0.44117 -0.40122,-0.67691 -0.3638,-0.69401 z m -6.5934,2.3399 c -0.0376,-0.0144 -0.0892,-0.005 -0.14624,0.03 -0.11415,0.0705 -0.20774,0.22174 -0.20774,0.33589 0,0.11417 0.0936,0.15015 0.20774,0.0796 0.11414,-0.0705 0.20722,-0.22228 0.20722,-0.33642 0,-0.0571 -0.0234,-0.0947 -0.061,-0.10904 z m -0.79633,0.98031 c -0.0132,-0.0249 -0.0935,0.0357 -0.25012,0.16484 -0.18989,0.15666 -0.34519,0.36647 -0.34519,0.46664 0,0.31701 0.18451,0.19871 0.44183,-0.28422 0.11281,-0.21171 0.16666,-0.32238 0.15348,-0.34726 z" /></g></svg>
