<?xml version="1.0" encoding="UTF-8" standalone="no"?>
<!-- Created with Inkscape (http://www.inkscape.org/) -->

<svg
   width="128"
   height="128"
   viewBox="0 0 33.866666 33.866666"
   version="1.1"
   id="svg1"
   xml:space="preserve"
   inkscape:version="1.3.2 (091e20e, 2023-11-25, custom)"
   sodipodi:docname="8.svg"
   xmlns:inkscape="http://www.inkscape.org/namespaces/inkscape"
   xmlns:sodipodi="http://sodipodi.sourceforge.net/DTD/sodipodi-0.dtd"
   xmlns="http://www.w3.org/2000/svg"
   xmlns:svg="http://www.w3.org/2000/svg"><sodipodi:namedview
     id="namedview1"
     pagecolor="#ffffff"
     bordercolor="#666666"
     borderopacity="1.0"
     inkscape:showpageshadow="2"
     inkscape:pageopacity="0.0"
     inkscape:pagecheckerboard="0"
     inkscape:deskcolor="#d1d1d1"
     inkscape:document-units="mm"
     inkscape:zoom="2.7758979"
     inkscape:cx="-0.1801219"
     inkscape:cy="50.614254"
     inkscape:window-width="1920"
     inkscape:window-height="1017"
     inkscape:window-x="-8"
     inkscape:window-y="-8"
     inkscape:window-maximized="1"
     inkscape:current-layer="layer1" /><defs
     id="defs1" /><g
     inkscape:label="Layer 1"
     inkscape:groupmode="layer"
     id="layer1"><path
       id="path1-1-1"
       style="fill:#000000;stroke-width:0.784387"
       d="m 11.764177,5.6226683 c -0.11954,0 -0.14353,1.11059 -0.0625,2.85357 0.0729,1.5694897 0.12506,3.0402497 0.11627,3.2685297 -0.009,0.22829 -0.0226,1.6651 -0.031,3.19257 -0.0104,1.88252 -0.0811,2.68469 -0.21963,2.49029 -0.19776,-0.27749 -0.12296,0.0422 0.18811,0.80305 0.0584,0.14268 0.002,0.25942 -0.12351,0.25942 -0.12635,0 -0.22996,0.15121 -0.22996,0.33641 0,0.28888 0.0488,0.29674 0.34158,0.0537 0.30556,-0.2536 0.32383,-0.22974 0.17777,0.23047 -0.2122,0.66856 -0.25446,3.52992 -0.0522,3.53002 0.0856,5e-5 0.15555,0.13987 0.15555,0.31109 0,0.17122 -0.0936,0.31109 -0.20774,0.31109 -0.11414,0 -0.20075,0.39701 -0.19275,0.88212 0.0113,0.68311 0.0546,0.78861 0.19275,0.46715 0.11859,-0.27603 0.18355,0.19335 0.19327,1.40095 l 0.0145,1.81591 0.88212,0.0248 c 0.48512,0.0135 1.16186,0.0953 1.5043,0.18242 v 5.1e-4 c 0.85691,0.21804 1.30408,0.23945 1.01286,0.0486 -0.14148,-0.0927 -0.24834,-0.96595 -0.27234,-2.22777 -0.0217,-1.14145 -0.0637,-3.03234 -0.093,-4.20233 -0.0402,-1.60049 0.0115,-2.12752 0.20826,-2.12752 0.14379,0 0.3127,0.0836 0.37569,0.18552 0.0959,0.15526 0.89183,0.76797 4.43332,3.41529 0.27295,0.20405 0.50786,-0.0341 1.3286,-1.34927 l 0.3514,-0.56379 -2.06396,-1.58284 c -1.13523,-0.87017 -2.06395,-1.70171 -2.06395,-1.84847 0,-0.14675 -0.56002,-0.71625 -1.24489,-1.26556 -0.68486,-0.54931 -1.2454,-1.13591 -1.2454,-1.30328 0,-0.25862 -0.0546,-0.26227 -0.36329,-0.0232 -0.34589,0.26786 -0.34589,0.2607 0,-0.14676 0.19976,-0.23531 0.36329,-0.72374 0.36329,-1.08572 0,-0.36199 0.0699,-0.65555 0.15554,-0.65319 0.27176,0.008 3.47628,2.47834 3.47628,2.67942 0,0.10592 0.32707,0.41663 0.72657,0.6904 l 0.72605,0.49764 1.2051,-1.23507 c 1.19911,-1.22906 1.20367,-1.23702 0.78755,-1.6247 -0.23003,-0.21431 -0.52134,-0.38964 -0.64699,-0.38964 -0.12568,0 -0.17506,-0.0873 -0.10956,-0.19327 0.0655,-0.10593 -0.065,-0.25057 -0.2899,-0.32195 -0.22493,-0.0714 -0.63219,-0.3952 -0.90537,-0.71985 -0.27317,-0.32465 -0.67447,-0.62894 -0.89142,-0.67593 -0.21695,-0.047 -0.37117,-0.19689 -0.34262,-0.33279 0.0285,-0.13591 -0.0908,-0.24702 -0.26561,-0.24702 -0.1748,0 -0.37177,-0.13949 -0.43719,-0.31006 -0.0654,-0.17058 -0.21932,-0.24793 -0.34209,-0.17208 -0.13108,0.081 0.28496,0.60343 1.00769,1.26607 0.98173,0.9001 1.03298,0.97365 0.25373,0.36226 -0.57276,-0.44938 -1.07957,-0.70292 -1.22525,-0.61289 -0.14944,0.0923 -0.19411,0.066 -0.11214,-0.0667 0.075,-0.12129 -0.35443,-0.66076 -0.95395,-1.19786 -0.90708,-0.8126597 -0.9404,-0.8634397 -0.19843,-0.30489 0.49037,0.36915 0.94982,0.61287 1.02112,0.54157 0.17218,-0.17218 -0.78483,-1.1818097 -0.99632,-1.0510997 -0.0905,0.056 -0.24017,-0.0265 -0.33279,-0.18345 -0.0926,-0.15696 -0.38128,-0.39728 -0.64131,-0.53382 -0.26002,-0.13654 -0.4218,-0.33045 -0.35967,-0.43098 0.0621,-0.10053 0.004,-0.2502 -0.13022,-0.3328 -0.15177,-0.0938 -0.18751,-0.0608 -0.0951,0.0889 0.0815,0.13177 0.0547,0.23978 -0.0594,0.23978 -0.11414,0 -0.2664,-0.0952 -0.33848,-0.21188 -0.0721,-0.11668 -0.64546,-0.59206 -1.27383,-1.05626 -0.62836,-0.4642 -1.08837,-0.89808 -1.02216,-0.96429 0.14654,-0.14653 -0.48968,-0.88056 -0.76326,-0.88056 z m 2.06344,1.66088 c -0.12071,6.6e-4 -0.0402,0.1372 0.18087,0.30437 0.5206,0.39344 0.62237,0.39611 0.2992,0.007 -0.1421,-0.17122 -0.35809,-0.31109 -0.48007,-0.31109 z m 3.17758,5.6027597 c 0.0107,0.0107 -0.0518,0.0948 -0.18086,0.25941 -0.27111,0.3457 -0.44132,0.45556 -0.44132,0.28474 0,-0.0431 0.16301,-0.20611 0.36277,-0.36277 0.16458,-0.12907 0.24869,-0.1921 0.25941,-0.18138 z m 3.83956,1.01337 0.57103,0.34727 c 0.31389,0.19111 0.57051,0.42455 0.57051,0.51883 0,0.0943 -0.10799,0.23792 -0.23978,0.31936 -0.15045,0.093 -0.18306,0.057 -0.0879,-0.0971 0.0874,-0.14143 -0.053,-0.42367 -0.33125,-0.66663 z m -7.61452,2.72232 c 0.0571,0 -0.0652,0.18666 -0.27182,0.41496 -0.2066,0.22829 -0.42244,0.41496 -0.47955,0.41496 -0.0571,0 0.0652,-0.18667 0.27181,-0.41496 0.20659,-0.2283 0.42246,-0.41496 0.47956,-0.41496 z m 5.57899,1.66346 c -0.14848,0.002 -0.12292,0.0832 0.0641,0.20412 0.39869,0.25767 0.47033,0.25767 0.31109,0 -0.0705,-0.11414 -0.23922,-0.20569 -0.37517,-0.20412 z m 0.94826,0.90072 c -0.0114,0.027 0.0397,0.10093 0.14935,0.23306 0.29889,0.36012 0.41909,0.39762 0.41909,0.13074 0,-0.10194 -0.15319,-0.24434 -0.34055,-0.31626 -0.14242,-0.0547 -0.21649,-0.0744 -0.22789,-0.0475 z m -4.33875,4.6793 c -0.0188,0.0463 -0.0311,0.16055 -0.0331,0.33176 -0.004,0.34243 0.0387,0.50742 0.0956,0.36691 0.057,-0.1405 0.0606,-0.42079 0.008,-0.62271 -0.0263,-0.10096 -0.0516,-0.12227 -0.0703,-0.076 z m -3.6959,1.68 c -0.0379,-0.0891 -0.0663,0.27186 -0.0822,1.09037 -0.0171,0.88462 0.0389,1.6081 0.12454,1.60817 0.0856,7e-5 0.12924,-0.49001 0.0966,-1.08933 -0.0534,-0.9811 -0.10109,-1.52012 -0.13901,-1.60921 z m 3.6959,0.81029 c -0.0188,0.0463 -0.0311,0.16054 -0.0331,0.33176 -0.004,0.34243 0.0387,0.50741 0.0956,0.3669 0.057,-0.14051 0.0606,-0.42077 0.008,-0.6227 -0.0263,-0.10095 -0.0516,-0.12226 -0.0703,-0.076 z m -2.61586,1.75079 c -0.14268,0.0576 -0.026,0.10491 0.25941,0.10491 0.28538,0 0.4021,-0.0474 0.25942,-0.10491 -0.14268,-0.0576 -0.37615,-0.0576 -0.51883,0 z" /></g></svg>
