<?xml version="1.0" encoding="UTF-8" standalone="no"?>
<!-- Created with Inkscape (http://www.inkscape.org/) -->

<svg
   width="128"
   height="128"
   viewBox="0 0 33.866666 33.866666"
   version="1.1"
   id="svg1"
   xml:space="preserve"
   inkscape:version="1.3.2 (091e20e, 2023-11-25, custom)"
   sodipodi:docname="9.svg"
   xmlns:inkscape="http://www.inkscape.org/namespaces/inkscape"
   xmlns:sodipodi="http://sodipodi.sourceforge.net/DTD/sodipodi-0.dtd"
   xmlns="http://www.w3.org/2000/svg"
   xmlns:svg="http://www.w3.org/2000/svg"><sodipodi:namedview
     id="namedview1"
     pagecolor="#ffffff"
     bordercolor="#666666"
     borderopacity="1.0"
     inkscape:showpageshadow="2"
     inkscape:pageopacity="0.0"
     inkscape:pagecheckerboard="0"
     inkscape:deskcolor="#d1d1d1"
     inkscape:document-units="mm"
     inkscape:zoom="2.7758979"
     inkscape:cx="-0.1801219"
     inkscape:cy="50.614254"
     inkscape:window-width="1920"
     inkscape:window-height="1017"
     inkscape:window-x="-8"
     inkscape:window-y="-8"
     inkscape:window-maximized="1"
     inkscape:current-layer="layer1" /><defs
     id="defs1" /><g
     inkscape:label="Layer 1"
     inkscape:groupmode="layer"
     id="layer1"><path
       id="path1-1-30"
       style="fill:#000000;stroke-width:0.784387"
       d="m 11.544759,6.5882305 v 1.75442 c 0,1.00177 -0.0936,1.8124205 -0.21807,1.8892905 -0.11987,0.0741 -0.21373,0.75702 -0.20981,1.51722 0.0239,4.23886 -0.14515,12.02944 -0.2651,12.22354 -0.0768,0.1243 -0.0225,0.28094 0.12092,0.34778 0.20926,0.0975 0.20926,0.14486 0,0.24237 -0.1434,0.0668 -0.19606,0.22674 -0.11679,0.35501 0.0793,0.12828 0.11897,0.64726 0.0879,1.1529 -0.0363,0.58993 0.0425,0.98479 0.22014,1.1033 0.15227,0.10135 0.54569,0.13456 0.87385,0.0744 0.32816,-0.0602 0.95811,-0.10904 1.40043,-0.10904 0.75863,0 0.80461,-0.0361 0.80461,-0.6351 0,-0.3909 0.0838,-0.58271 0.21807,-0.49971 0.25144,0.15542 0.20686,-3.25568 -0.045,-3.437 -0.0838,-0.0603 -0.0525,-0.504 0.0698,-0.98599 0.16921,-0.66655 0.16079,-0.95086 -0.0357,-1.18752 -0.17844,-0.21503 -0.18584,-0.31109 -0.0248,-0.31109 0.12812,0 0.23255,-0.17533 0.23255,-0.38964 0,-0.21432 0.15775,-0.51771 0.35088,-0.67438 0.27957,-0.22674 0.31752,-0.22857 0.185,-0.008 -0.12149,0.20191 0.008,0.18632 0.47904,-0.0574 0.66309,-0.3429 0.89922,-0.67206 0.3235,-0.45114 -0.1847,0.0709 -0.26805,0.0361 -0.19534,-0.0816 0.0697,-0.11284 0.25636,-0.20516 0.41496,-0.20516 0.1586,0 0.54062,-0.23347 0.84853,-0.51883 0.55489,-0.51426 1.05571,-0.70796 0.81235,-0.31419 -0.0696,0.11256 0.90456,-0.46395 2.16525,-1.28106 1.26068,-0.81711 2.25813,-1.51994 2.2164,-1.56167 -0.0418,-0.0417 -0.62507,0.28502 -1.29605,0.72606 -1.8039,1.18569 -1.9044,1.23757 -1.54874,0.79943 0.16169,-0.1992 0.92611,-0.7317 1.6986,-1.18287 1.84744,-1.07895 2.17742,-1.40634 1.79834,-1.78542 -0.15719,-0.15719 -0.49074,-0.32538 -0.74104,-0.37362 -0.60609,-0.11672 -1.32029,-0.62996 -1.13481,-0.81546 0.0814,-0.0811 -0.0279,-0.0804 -0.24288,0.002 -0.29296,0.11243 -0.34849,0.081 -0.22117,-0.12506 0.11485,-0.18587 0.09,-0.22519 -0.077,-0.12195 -0.24842,0.15353 -0.9318,-0.22988 -4.10414,-2.3032205 -0.9308,-0.60834 -1.75373,-1.10536 -1.82935,-1.10536 -0.0756,0 -0.44027,-0.23132 -0.80977,-0.51315 -0.3695,-0.28183 -1.01626,-0.65622 -1.43816,-0.8325 z m 2.96881,5.3784905 c 0.13535,-0.0558 0.50973,0.11139 1.33739,0.56999 0.77048,0.42692 1.44771,0.8379 1.50481,0.91312 0.0571,0.0752 0.24375,0.18641 0.41497,0.2465 0.19918,0.07 0.0873,0.15984 -0.3111,0.25063 -0.34244,0.0781 -0.78519,0.22968 -0.9834,0.33693 -0.19821,0.10725 -0.47188,0.19533 -0.60875,0.19533 -0.13687,0 -0.45531,0.1936 -0.70745,0.43047 -0.25255,0.23692 -0.5133,0.34137 -0.58084,0.23203 -0.15491,-0.25067 0.007,-2.45367 0.20361,-2.77193 0.0907,-0.14668 0.0548,-0.18073 -0.093,-0.0894 -0.14317,0.0885 -0.23978,0.0133 -0.23978,-0.18603 0,-0.0657 0.0185,-0.10903 0.0636,-0.12764 z m 7.63209,0.87901 c 0.0249,-0.0132 0.13504,0.0413 0.34675,0.154 0.25682,0.13685 0.46664,0.29217 0.46664,0.3452 0,0.21981 -0.38387,0.0728 -0.64906,-0.24857 -0.12913,-0.15655 -0.18921,-0.23744 -0.16433,-0.25063 z m -8.0641,2.52905 c 0.029,-0.0297 0.0741,0.011 0.14107,0.11678 0.0996,0.1573 0.28495,0.22159 0.41186,0.14315 0.1269,-0.0784 0.231,-0.0939 0.231,-0.0341 0,0.0598 -0.18719,0.20907 -0.41548,0.33125 -0.35902,0.19213 -0.415,0.15803 -0.41186,-0.25218 10e-4,-0.17538 0.0143,-0.27523 0.0434,-0.30489 z m 4.85293,1.03611 c 0.0462,-3.7e-4 0.0416,0.0406 -0.009,0.12195 -0.0772,0.12493 -0.33324,0.33017 -0.56895,0.45631 -0.30709,0.16446 -0.38894,0.16523 -0.28836,0.002 0.0772,-0.12491 0.33326,-0.33015 0.56896,-0.4563 0.15356,-0.0822 0.25091,-0.12364 0.29714,-0.12402 z m -7.52357,5.3113 h 5.1e-4 c 0.0187,-0.0463 0.0435,-0.0245 0.0698,0.0765 0.0525,0.20192 0.0489,0.48219 -0.008,0.6227 -0.0568,0.1405 -0.0995,-0.0245 -0.0956,-0.3669 0.002,-0.17122 0.0149,-0.28598 0.0336,-0.33228 z m 0.0434,1.9911 c 0.0378,0.10693 0.0842,0.75068 0.13642,1.92184 0.0318,0.71361 -0.0126,1.29729 -0.0982,1.29708 -0.0856,-2.1e-4 -0.14024,-0.86394 -0.12196,-1.91978 0.0169,-0.97589 0.0459,-1.40607 0.0837,-1.29914 z" /></g></svg>
