<?xml version="1.0" encoding="UTF-8" standalone="no"?>
<!-- Created with Inkscape (http://www.inkscape.org/) -->

<svg
   width="64"
   height="64"
   viewBox="0 0 16.933332 16.933334"
   version="1.1"
   id="svg1"
   inkscape:version="1.3.2 (091e20e, 2023-11-25, custom)"
   sodipodi:docname="ae_pools.svg"
   xmlns:inkscape="http://www.inkscape.org/namespaces/inkscape"
   xmlns:sodipodi="http://sodipodi.sourceforge.net/DTD/sodipodi-0.dtd"
   xmlns="http://www.w3.org/2000/svg"
   xmlns:svg="http://www.w3.org/2000/svg">
  <sodipodi:namedview
     id="namedview1"
     pagecolor="#ffffff"
     bordercolor="#666666"
     borderopacity="1.0"
     inkscape:showpageshadow="2"
     inkscape:pageopacity="0.0"
     inkscape:pagecheckerboard="0"
     inkscape:deskcolor="#d1d1d1"
     inkscape:document-units="mm"
     inkscape:zoom="7.8514249"
     inkscape:cx="51.774042"
     inkscape:cy="58.906505"
     inkscape:window-width="1920"
     inkscape:window-height="1017"
     inkscape:window-x="-8"
     inkscape:window-y="-8"
     inkscape:window-maximized="1"
     inkscape:current-layer="layer1" />
  <defs
     id="defs1">
    <clipPath
       clipPathUnits="userSpaceOnUse"
       id="clipPath3-6-1-3">
      <rect
         style="fill:#f9f9f9;fill-opacity:1;stroke:none;stroke-width:2.488;stroke-opacity:0.593607"
         id="rect4-8-02-3"
         width="181.63065"
         height="150.9751"
         x="756.50903"
         y="69.41671"
         ry="3.4473965" />
    </clipPath>
    <clipPath
       clipPathUnits="userSpaceOnUse"
       id="clipPath3-4-3-0">
      <rect
         style="fill:#f9f9f9;fill-opacity:1;stroke:none;stroke-width:2.488;stroke-opacity:0.593607"
         id="rect4-86-0-1"
         width="181.63065"
         height="150.9751"
         x="756.50903"
         y="69.41671"
         ry="3.4473965" />
    </clipPath>
    <clipPath
       clipPathUnits="userSpaceOnUse"
       id="clipPath3-4-7-6">
      <rect
         style="fill:#f9f9f9;fill-opacity:1;stroke:none;stroke-width:2.488;stroke-opacity:0.593607"
         id="rect4-86-2-9"
         width="181.63065"
         height="150.9751"
         x="756.50903"
         y="69.41671"
         ry="3.4473965" />
    </clipPath>
  </defs>
  <g
     inkscape:label="Layer 1"
     inkscape:groupmode="layer"
     id="layer1">
    <circle
       style="fill:#ffffff;fill-opacity:1;stroke:none;stroke-width:0.4;stroke-opacity:1"
       id="path13-6-9-7-5-0-3"
       cx="-8.4666662"
       cy="8.4666662"
       r="5.8539062"
       transform="scale(-1,1)" />
    <circle
       style="fill:#000000;fill-opacity:1;stroke:none;stroke-width:0.312111;stroke-opacity:1"
       id="path13-0-4-5-2-4-5-2"
       cx="-8.4666662"
       cy="8.4666662"
       r="4.5676718"
       transform="scale(-1,1)" />
    <g
       style="fill:#f9f9f9;fill-opacity:1"
       id="g506"
       transform="matrix(0.26817151,0,0,0.26817151,5.2486085,5.2477064)">
      <path
         d="M 18,18 V 5 A 3,3 0 0 0 15,2 3,3 0 0 0 12,5 v 1 h 2 V 5 A 1,1 0 0 1 15,4 1,1 0 0 1 15.71,4.31 1,1 0 0 1 16,5 V 7 H 8 V 5 A 2.92,2.92 0 0 0 7.13,2.89 2.94,2.94 0 0 0 5,2 3,3 0 0 0 2,5 V 6 H 4 V 5 A 1,1 0 0 1 5,4 1,1 0 0 1 5.71,4.31 1,1 0 0 1 6,5 v 15 0 C 5.44,20 5.2,19.78 4.71,19.29 A 3.56,3.56 0 0 0 2,18 v 2 c 0.56,0 0.8,0.22 1.29,0.71 A 3.56,3.56 0 0 0 6,22 3.56,3.56 0 0 0 8.7,20.71 C 9.19,20.22 9.43,20 9.99,20 c 0.56,0 0.8,0.22 1.29,0.71 a 3.48,3.48 0 0 0 5.42,0 C 17.19,20.22 17.43,20 18,20 c 0.57,0 0.8,0.22 1.29,0.71 A 3.57,3.57 0 0 0 22,22 v -2 c -0.56,0 -0.8,-0.22 -1.29,-0.71 A 3.57,3.57 0 0 0 18,18 Z M 16,15 H 8 v -2 h 8 z m 0,-6 v 2 H 8 V 9 Z m -2,11 c -0.56,0 -0.8,-0.22 -1.29,-0.71 A 3.56,3.56 0 0 0 10,18 3.2,3.2 0 0 0 8,18.65 V 17 h 8 v 1.65 a 6.48,6.48 0 0 0 -0.71,0.64 C 14.79,19.78 14.55,20 14,20 Z"
         id="path1-39"
         style="fill:#f9f9f9;fill-opacity:1;stroke-width:1.00682;stroke-dasharray:none" />
    </g>
  </g>
</svg>
