<?xml version="1.0" encoding="UTF-8" standalone="no"?>
<!-- Created with Inkscape (http://www.inkscape.org/) -->

<svg
   width="106.63071mm"
   height="36.396748mm"
   viewBox="0 0 106.63071 36.396748"
   version="1.1"
   id="svg1"
   inkscape:version="1.3.2 (091e20e, 2023-11-25, custom)"
   sodipodi:docname="logolong.svg"
   xmlns:inkscape="http://www.inkscape.org/namespaces/inkscape"
   xmlns:sodipodi="http://sodipodi.sourceforge.net/DTD/sodipodi-0.dtd"
   xmlns="http://www.w3.org/2000/svg"
   xmlns:svg="http://www.w3.org/2000/svg">
  <sodipodi:namedview
     id="namedview1"
     pagecolor="#ffffff"
     bordercolor="#666666"
     borderopacity="1.0"
     inkscape:showpageshadow="2"
     inkscape:pageopacity="0.0"
     inkscape:pagecheckerboard="0"
     inkscape:deskcolor="#d1d1d1"
     inkscape:document-units="mm"
     inkscape:zoom="1.9628562"
     inkscape:cx="256.51395"
     inkscape:cy="191.81232"
     inkscape:window-width="1920"
     inkscape:window-height="1017"
     inkscape:window-x="-8"
     inkscape:window-y="-8"
     inkscape:window-maximized="1"
     inkscape:current-layer="layer1" />
  <defs
     id="defs1" />
  <g
     inkscape:label="Layer 1"
     inkscape:groupmode="layer"
     id="layer1"
     transform="translate(-14.494253,-41.527693)">
    <path
       style="fill:none;stroke:#ffffff;stroke-width:1.73097;stroke-linecap:butt;stroke-linejoin:miter;stroke-miterlimit:4;stroke-dasharray:none;stroke-opacity:1"
       d="m 52.340963,61.35286 -3.588431,-1.043295 -10.43718,8.649954 9.775677,5.365863 -27.348335,0.05739 7.986974,-6.166079 9.925735,-7.662851 -0.06839,-8.106834 3.265275,-8.390036 9.33206,0.0038 -0.05889,8.390798 -8.6397,0.0094 -4.851596,-8.457826 -11.570607,-0.02164 -6.450353,8.346234 v 7.348689 l 13.472735,0.01562"
       id="path2933"
       inkscape:connector-curvature="0"
       sodipodi:nodetypes="ccccccccccccccccc" />
    <g
       id="text3016-2-6-2"
       style="font-weight:500;font-size:20.0687px;line-height:0.8;font-family:Montserrat;-inkscape-font-specification:'Montserrat Medium';letter-spacing:0px;word-spacing:0px;fill:#ffffff;stroke-width:1.50515"
       aria-label="Rune&#10;Apes">
      <path
         d="M 67.335447,57.406929 V 43.358838 h 5.478755 q 1.846321,0 3.150786,0.581993 1.304466,0.581992 2.00687,1.685771 0.702405,1.103778 0.702405,2.628999 0,1.525222 -0.702405,2.629 -0.702404,1.08371 -2.00687,1.665702 -1.304465,0.581993 -3.150786,0.581993 h -4.374977 l 0.903092,-0.92316 v 5.197793 z m 9.392152,0 -3.572229,-5.09745 h 2.147351 l 3.612366,5.09745 z m -7.385282,-4.997106 -0.903092,-0.983367 h 4.314771 q 1.926595,0 2.909962,-0.822817 1.003435,-0.842885 1.003435,-2.348038 0,-1.505152 -1.003435,-2.327969 -0.983367,-0.822817 -2.909962,-0.822817 h -4.314771 l 0.903092,-1.003435 z m 16.77742,5.117518 q -1.364672,0 -2.408244,-0.501717 -1.023504,-0.501718 -1.605496,-1.525222 -0.561924,-1.043572 -0.561924,-2.608931 v -6.120953 h 1.926595 v 5.900198 q 0,1.565358 0.742542,2.348038 0.762611,0.782679 2.127283,0.782679 1.003435,0 1.745977,-0.401374 0.742541,-0.421443 1.143915,-1.204122 0.401375,-0.802748 0.401375,-1.926595 v -5.498824 h 1.926595 v 10.636411 h -1.826252 v -2.869824 l 0.301031,0.76261 q -0.521787,1.063642 -1.565359,1.645634 -1.043573,0.581992 -2.348038,0.581992 z M 100.91037,46.670174 q 1.30447,0 2.28783,0.501718 1.00344,0.501717 1.56536,1.525221 0.56192,1.023504 0.56192,2.588862 v 6.120954 h -1.92659 v -5.900198 q 0,-1.54529 -0.76261,-2.327969 -0.74254,-0.78268 -2.10721,-0.78268 -1.023509,0 -1.786119,0.401374 -0.762611,0.401374 -1.184053,1.184054 -0.401375,0.782679 -0.401375,1.946664 v 5.478755 H 95.230928 V 46.770518 h 1.846321 v 2.869824 l -0.301031,-0.762611 q 0.521786,-1.043572 1.605496,-1.625565 1.08371,-0.581992 2.528656,-0.581992 z m 12.72355,10.857167 q -1.70584,0 -3.0103,-0.702404 -1.2844,-0.702405 -2.00687,-1.926596 -0.70241,-1.22419 -0.70241,-2.809618 0,-1.585427 0.68234,-2.809618 0.7024,-1.224191 1.90652,-1.906526 1.2242,-0.702405 2.74942,-0.702405 1.54529,0 2.72934,0.682336 1.18405,0.682336 1.84632,1.926595 0.68234,1.224191 0.68234,2.869824 0,0.120413 -0.0201,0.280962 0,0.16055 -0.0201,0.301031 h -9.05099 v -1.384741 h 8.04755 l -0.78268,0.481649 q 0.0201,-1.023504 -0.42144,-1.826252 -0.44151,-0.802748 -1.22419,-1.244259 -0.76261,-0.46158 -1.78611,-0.46158 -1.00344,0 -1.78612,0.46158 -0.78268,0.441511 -1.22419,1.264328 -0.44151,0.802748 -0.44151,1.846321 v 0.321099 q 0,1.063641 0.48165,1.906526 0.50172,0.822817 1.38474,1.284397 0.88302,0.46158 2.02694,0.46158 0.94323,0 1.70584,-0.321099 0.78268,-0.321099 1.36467,-0.963297 l 1.06364,1.244259 q -0.72247,0.842885 -1.80618,1.284397 -1.06364,0.441511 -2.38818,0.441511 z"
         id="path1" />
      <path
         style="letter-spacing:0.032166px"
         d="m 65.208165,73.46189 6.361778,-14.048091 h 1.986801 L 79.938591,73.46189 H 77.831377 L 72.151935,60.537647 h 0.802748 L 67.275241,73.46189 Z m 2.709274,-3.512023 0.541855,-1.605496 h 7.907068 l 0.581993,1.605496 z m 19.498813,3.632435 q -1.324535,0 -2.428313,-0.602061 -1.08371,-0.62213 -1.745977,-1.826252 -0.642198,-1.204122 -0.642198,-3.010305 0,-1.806183 0.622129,-3.010305 0.642199,-1.204122 1.725909,-1.806183 1.103778,-0.602061 2.46845,-0.602061 1.565358,0 2.76948,0.682336 1.204122,0.682336 1.906527,1.906526 0.702405,1.204122 0.702405,2.829687 0,1.625565 -0.702405,2.849756 -0.702405,1.22419 -1.906527,1.906526 -1.204122,0.682336 -2.76948,0.682336 z m -5.639305,3.772916 v -14.52974 h 1.84632 v 2.869825 l -0.120412,2.46845 0.200687,2.46845 v 6.723015 z m 5.478755,-5.458687 q 1.023504,0 1.826252,-0.46158 0.822817,-0.46158 1.284397,-1.304465 0.481649,-0.862955 0.481649,-1.986802 0,-1.143916 -0.481649,-1.966732 -0.46158,-0.842886 -1.284397,-1.304466 -0.802748,-0.46158 -1.826252,-0.46158 -1.003435,0 -1.826252,0.46158 -0.802748,0.46158 -1.284396,1.304466 -0.461581,0.822816 -0.461581,1.966732 0,1.123847 0.461581,1.986802 0.481648,0.842885 1.284396,1.304465 0.822817,0.46158 1.826252,0.46158 z m 12.976458,1.685771 q -1.705836,0 -3.010301,-0.702404 -1.284397,-0.702405 -2.00687,-1.926596 -0.702405,-1.22419 -0.702405,-2.809618 0,-1.585427 0.682336,-2.809618 0.702405,-1.224191 1.906527,-1.906527 1.22419,-0.702404 2.749412,-0.702404 1.545291,0 2.729341,0.682336 1.18406,0.682336 1.84632,1.926595 0.68234,1.224191 0.68234,2.869824 0,0.120412 -0.0201,0.280962 0,0.16055 -0.0201,0.301031 h -9.050983 v -1.384741 h 8.047553 l -0.78268,0.481649 q 0.0201,-1.023504 -0.42145,-1.826252 -0.44151,-0.802748 -1.22419,-1.244259 -0.76261,-0.46158 -1.786111,-0.46158 -1.003435,0 -1.786115,0.46158 -0.782679,0.441511 -1.224191,1.264328 -0.441511,0.802748 -0.441511,1.84632 v 0.3211 q 0,1.063641 0.481649,1.906526 0.501717,0.822817 1.38474,1.284397 0.883023,0.46158 2.026939,0.46158 0.94323,0 1.70584,-0.321099 0.78268,-0.321099 1.36467,-0.963298 l 1.06364,1.24426 q -0.72247,0.842885 -1.80618,1.284397 -1.06364,0.441511 -2.38818,0.441511 z m 10.62844,0 q -1.32454,0 -2.52866,-0.361237 -1.18405,-0.361236 -1.86639,-0.883022 l 0.80275,-1.525222 q 0.68233,0.461581 1.68577,0.78268 1.00343,0.321099 2.04701,0.321099 1.3446,0 1.92659,-0.381305 0.60206,-0.381306 0.60206,-1.063642 0,-0.501717 -0.36123,-0.782679 -0.36124,-0.280962 -0.9633,-0.421443 -0.58199,-0.14048 -1.30447,-0.240824 -0.72247,-0.120412 -1.44494,-0.280962 -0.72248,-0.180618 -1.32454,-0.481649 -0.60206,-0.321099 -0.96329,-0.862954 -0.36124,-0.561923 -0.36124,-1.485084 0,-0.963297 0.54185,-1.68577 0.54186,-0.722474 1.52522,-1.103779 1.00344,-0.401374 2.36811,-0.401374 1.04357,0 2.10722,0.260893 1.08371,0.240824 1.76604,0.702405 l -0.82282,1.525221 q -0.72247,-0.481649 -1.50515,-0.662267 -0.78268,-0.180619 -1.56536,-0.180619 -1.26433,0 -1.88645,0.421443 -0.62213,0.401374 -0.62213,1.043573 0,0.541855 0.36123,0.842885 0.38131,0.280962 0.9633,0.441511 0.60206,0.16055 1.32453,0.280962 0.72248,0.100344 1.44495,0.280962 0.72247,0.16055 1.30447,0.46158 0.60206,0.301031 0.96329,0.842886 0.38131,0.541855 0.38131,1.444946 0,0.963298 -0.56192,1.665702 -0.56193,0.702405 -1.58543,1.103779 -1.02351,0.381305 -2.44838,0.381305 z"
         id="path2" />
    </g>
  </g>
</svg>
