<?xml version="1.0" encoding="UTF-8" standalone="no"?>
<!-- Created with Inkscape (http://www.inkscape.org/) -->

<svg
   width="106.63071mm"
   height="36.396748mm"
   viewBox="0 0 106.63071 36.396748"
   version="1.1"
   id="svg1"
   inkscape:version="1.3.2 (091e20e, 2023-11-25, custom)"
   sodipodi:docname="logo_white.svg"
   xmlns:inkscape="http://www.inkscape.org/namespaces/inkscape"
   xmlns:sodipodi="http://sodipodi.sourceforge.net/DTD/sodipodi-0.dtd"
   xmlns="http://www.w3.org/2000/svg"
   xmlns:svg="http://www.w3.org/2000/svg">
  <sodipodi:namedview
     id="namedview1"
     pagecolor="#ffffff"
     bordercolor="#666666"
     borderopacity="1.0"
     inkscape:showpageshadow="2"
     inkscape:pageopacity="0.0"
     inkscape:pagecheckerboard="0"
     inkscape:deskcolor="#d1d1d1"
     inkscape:document-units="mm"
     inkscape:zoom="2.7758979"
     inkscape:cx="185.8858"
     inkscape:cy="109.69424"
     inkscape:window-width="1920"
     inkscape:window-height="1017"
     inkscape:window-x="-8"
     inkscape:window-y="-8"
     inkscape:window-maximized="1"
     inkscape:current-layer="layer1"
     showgrid="false" />
  <defs
     id="defs1" />
  <g
     inkscape:label="Layer 1"
     inkscape:groupmode="layer"
     id="layer1"
     transform="translate(-14.494253,-41.527693)">
    <path
       style="fill:none;stroke:#ffffff;stroke-width:1.835;stroke-linecap:butt;stroke-linejoin:miter;stroke-miterlimit:4;stroke-dasharray:none;stroke-opacity:1"
       d="m 53.336424,61.45166 -2.734584,-0.795047 -7.953707,6.591742 7.449606,4.089085 -20.840943,0.04374 6.086515,-4.698893 7.563959,-5.839516 -0.05213,-6.177856 2.488322,-6.393673 7.111544,0.0029 -0.04488,6.394251 -6.583927,0.0071 -3.697185,-6.445332 -8.81744,-0.0165 -4.915528,6.360294 v 5.600106 l 9.609844,0.01188"
       id="path2933"
       inkscape:connector-curvature="0"
       sodipodi:nodetypes="ccccccccccccccccc" />
    <g
       id="text1"
       style="font-weight:600;font-size:17.9018px;line-height:0.7;font-family:'Hellix TRIAL';-inkscape-font-specification:'Hellix TRIAL Semi-Bold';letter-spacing:0px;word-spacing:0px;fill:#ffffff;stroke-width:1.34263"
       aria-label="Rune&#10;Apes">
      <path
         d="m 66.441728,59.716713 h 2.094511 v -5.030406 h 1.843885 l 3.114913,5.030406 h 2.542056 l -3.419244,-5.263129 c 1.467948,-0.501251 2.38094,-1.808082 2.38094,-3.544557 0,-2.09451 -1.754377,-3.723574 -3.848887,-3.723574 h -4.708174 z m 2.094511,-7.035408 v -3.472949 h 2.542055 c 1.038305,0 1.808082,0.716072 1.808082,1.700671 0,1.020403 -0.769777,1.772278 -1.808082,1.772278 z m 14.554137,7.035408 h 2.005002 v -8.75398 h -2.005002 v 5.728576 c -0.447545,0.751875 -1.306831,1.217322 -2.184019,1.217322 -1.253126,0 -2.076609,-0.859286 -2.076609,-2.273528 v -4.67237 h -1.9871 v 4.994602 c 0,2.416743 1.378439,3.938396 3.58036,3.938396 1.09201,0 2.148216,-0.519152 2.667368,-1.360537 z m 6.104499,-8.75398 h -2.005002 v 8.75398 h 2.005002 v -5.746478 c 0.465447,-0.733974 1.288929,-1.199421 2.166118,-1.199421 1.253126,0 2.076608,0.859287 2.076608,2.273529 v 4.67237 h 1.9871 v -4.994602 c 0,-2.416743 -1.378438,-3.938396 -3.58036,-3.938396 -1.09201,0 -2.112412,0.519152 -2.649466,1.342635 z m 12.423835,8.932998 c 1.80808,0 3.29393,-0.716072 3.93839,-1.897591 l -1.57536,-0.966697 c -0.39384,0.680268 -1.32473,1.127813 -2.29143,1.127813 -1.45004,0 -2.452543,-0.877188 -2.667364,-2.345135 h 6.713174 c 0.0358,-0.268527 0.0716,-0.626563 0.0716,-0.859287 0,-2.345136 -1.84389,-4.171119 -4.20692,-4.171119 -2.524159,0 -4.511259,1.969198 -4.511259,4.511253 0,2.631565 2.022904,4.600763 4.529159,4.600763 z m -2.542059,-5.513754 c 0.286429,-1.181519 1.163619,-1.915493 2.434649,-1.915493 1.18151,0 2.13031,0.805581 2.27352,1.915493 z"
         id="path3" />
      <path
         d="m 72.206108,59.716713 h -1.754377 l -4.994602,12.53126 h 2.219823 l 0.984599,-2.506252 h 5.298933 l 0.966697,2.506252 h 2.273529 z m -2.828485,8.163221 1.933395,-4.940897 1.915492,4.940897 z m 9.040405,7.447148 h 1.9871 V 71.03065 c 0.429643,0.805581 1.611162,1.396341 2.792681,1.396341 2.380939,0 4.206923,-2.005002 4.206923,-4.547057 0,-2.559958 -1.825984,-4.564959 -4.206923,-4.564959 -1.181519,0 -2.363038,0.590759 -2.792681,1.39634 v -1.217322 h -1.9871 z m 1.9871,-6.158219 V 66.5552 c 0.429643,-0.769777 1.378439,-1.342635 2.38094,-1.342635 1.503751,0 2.667368,1.145716 2.667368,2.667369 0,1.521653 -1.163617,2.649466 -2.667368,2.649466 -1.002501,0 -1.969198,-0.572858 -2.38094,-1.360537 z m 12.58494,3.258128 c 1.808082,0 3.293931,-0.716072 3.938396,-1.897591 l -1.575359,-0.966697 c -0.393839,0.680268 -1.324733,1.127813 -2.29143,1.127813 -1.450046,0 -2.452547,-0.877188 -2.667368,-2.345136 h 6.713175 c 0.0358,-0.268527 0.07161,-0.626563 0.07161,-0.859286 0,-2.345136 -1.843885,-4.171119 -4.206923,-4.171119 -2.524154,0 -4.511254,1.969198 -4.511254,4.511253 0,2.631565 2.022904,4.600763 4.529156,4.600763 z m -2.542056,-5.513755 c 0.286429,-1.181518 1.163617,-1.915492 2.434645,-1.915492 1.181519,0 2.130314,0.805581 2.273529,1.915492 z m 11.546678,5.531657 c 2.005,0 3.41925,-1.145716 3.41925,-2.721074 0,-3.240226 -4.9051,-2.327234 -4.9051,-3.813083 0,-0.572858 0.48335,-0.930894 1.21733,-0.930894 0.73397,0 1.9871,0.322232 2.68527,0.930894 l 0.78768,-1.539555 c -0.78768,-0.716072 -2.05871,-1.056206 -3.27603,-1.056206 -2.005006,0 -3.401346,1.127813 -3.401346,2.756877 0,3.240226 4.869286,2.112412 4.869286,3.723574 0,0.554956 -0.57285,0.966697 -1.45004,0.966697 -0.9846,0 -2.273531,-0.447545 -2.953799,-1.092009 l -0.787679,1.503751 c 0.859286,0.769777 2.380938,1.271028 3.795178,1.271028 z"
         id="path4" />
    </g>
  </g>
</svg>
