<?xml version="1.0" encoding="UTF-8" standalone="no"?>
<!-- Created with Inkscape (http://www.inkscape.org/) -->

<svg
   width="154.21936mm"
   height="19.550451mm"
   viewBox="0 0 154.21936 19.550451"
   version="1.1"
   id="svg1"
   sodipodi:docname="longlogo.svg"
   inkscape:version="1.3.2 (091e20e, 2023-11-25, custom)"
   xmlns:inkscape="http://www.inkscape.org/namespaces/inkscape"
   xmlns:sodipodi="http://sodipodi.sourceforge.net/DTD/sodipodi-0.dtd"
   xmlns="http://www.w3.org/2000/svg"
   xmlns:svg="http://www.w3.org/2000/svg">
  <sodipodi:namedview
     id="namedview1"
     pagecolor="#ffffff"
     bordercolor="#666666"
     borderopacity="1.0"
     inkscape:showpageshadow="2"
     inkscape:pageopacity="0.0"
     inkscape:pagecheckerboard="0"
     inkscape:deskcolor="#d1d1d1"
     inkscape:document-units="mm"
     inkscape:zoom="1.4200196"
     inkscape:cx="317.24913"
     inkscape:cy="-0.35210781"
     inkscape:window-width="1920"
     inkscape:window-height="1017"
     inkscape:window-x="-8"
     inkscape:window-y="-8"
     inkscape:window-maximized="1"
     inkscape:current-layer="layer1" />
  <defs
     id="defs1" />
  <g
     inkscape:label="Layer 1"
     inkscape:groupmode="layer"
     id="layer1"
     transform="translate(-26.987525,-98.954201)">
    <path
       style="fill:#7bff5c;fill-opacity:1;stroke:#7bff5c;stroke-width:2.25993;stroke-linecap:butt;stroke-linejoin:miter;stroke-miterlimit:4;stroke-dasharray:none;stroke-opacity:1"
       d="m 51.927232,109.5359 -1.5663,-0.45542 -4.555687,3.77566 4.266998,2.34208 -11.937282,0.0253 3.486246,-2.69147 4.332498,-3.34475 -0.02986,-3.53854 1.425258,-3.66221 h 4.073394 l -0.02624,3.66257 h -3.771135 l -2.117712,-3.6917 -5.050465,-0.009 -2.815505,3.64303 v 3.20769 l 8.439818,0.009"
       id="path2933-5"
       inkscape:connector-curvature="0"
       sodipodi:nodetypes="ccccccccccccccccc" />
    <g
       id="text3016-2-6-2-9"
       style="font-weight:800;font-size:19.2997px;line-height:0.8;font-family:Montserrat;-inkscape-font-specification:'Montserrat Ultra-Bold';letter-spacing:0px;word-spacing:0px;fill:#7bff5c;stroke-width:1.44748;fill-opacity:1"
       aria-label="Rune Apes">
      <path
         d="m 65.256592,114.76051 v -13.50979 h 6.175904 q 1.852771,0 3.18445,0.59829 1.350979,0.59829 2.084368,1.73698 0.733388,1.11938 0.733388,2.66336 0,1.52467 -0.733388,2.64405 -0.733389,1.10009 -2.084368,1.69838 -1.331679,0.57899 -3.18445,0.57899 h -4.052937 l 1.698373,-1.60188 v 5.19162 z m 8.35677,0 -3.358148,-4.92142 h 4.072237 l 3.377447,4.92142 z m -4.53543,-4.78632 -1.698373,-1.75627 h 3.82134 q 1.196582,0 1.775573,-0.5211 0.598291,-0.52109 0.598291,-1.44747 0,-0.94569 -0.598291,-1.46678 -0.578991,-0.52109 -1.775573,-0.52109 h -3.82134 l 1.698373,-1.75628 z M 83.765,114.93421 q -1.27378,0 -2.296665,-0.50179 -1.003584,-0.50179 -1.582575,-1.56328 -0.559691,-1.08078 -0.559691,-2.72125 v -5.84781 h 3.666943 v 5.24951 q 0,1.21589 0.443893,1.73698 0.463193,0.52109 1.29308,0.52109 0.540391,0 0.984284,-0.2509 0.443894,-0.25089 0.714089,-0.79128 0.270196,-0.5597 0.270196,-1.42818 v -5.03722 h 3.666943 v 10.46043 h -3.493246 v -2.95285 l 0.67549,0.82989 q -0.540392,1.15798 -1.563276,1.73697 -1.022884,0.55969 -2.219465,0.55969 z m 15.767842,-10.80783 q 1.215878,0 2.200168,0.50179 0.98428,0.48249 1.54397,1.50538 0.579,1.02288 0.579,2.64406 v 5.9829 h -3.66695 v -5.38461 q 0,-1.11939 -0.463191,-1.62118 -0.443893,-0.52109 -1.25448,-0.52109 -0.578991,0 -1.061484,0.2702 -0.482492,0.25089 -0.752688,0.79128 -0.270196,0.5404 -0.270196,1.40888 v 5.05652 h -3.666943 v -10.46043 h 3.493246 v 2.97215 l -0.67549,-0.86849 q 0.598291,-1.13868 1.640475,-1.69837 1.042184,-0.57899 2.354563,-0.57899 z m 12.235998,10.80783 q -1.85278,0 -3.24235,-0.69479 -1.37028,-0.71409 -2.14227,-1.92997 -0.75269,-1.23518 -0.75269,-2.79846 0,-1.56327 0.73339,-2.77915 0.75269,-1.23518 2.06507,-1.91067 1.31238,-0.69479 2.95285,-0.69479 1.54398,0 2.81776,0.63689 1.27378,0.61759 2.02647,1.83347 0.75268,1.21588 0.75268,2.95285 0,0.193 -0.0193,0.4439 -0.0193,0.25089 -0.0386,0.46319 h -8.27958 v -1.92997 h 6.33031 l -1.38958,0.54039 q 0.0193,-0.71409 -0.2702,-1.23518 -0.27019,-0.52109 -0.77199,-0.81059 -0.48249,-0.28949 -1.13868,-0.28949 -0.65619,0 -1.15798,0.28949 -0.48249,0.2895 -0.75269,0.82989 -0.27019,0.52109 -0.27019,1.23518 v 0.55969 q 0,0.77199 0.30879,1.33168 0.3281,0.55969 0.92639,0.86849 0.59829,0.28949 1.42817,0.28949 0.77199,0 1.31238,-0.21229 0.55969,-0.2316 1.10009,-0.69479 l 1.92997,2.00717 q -0.75269,0.82988 -1.85277,1.27378 -1.10009,0.42459 -2.60546,0.42459 z"
         id="path1"
         style="fill:#7bff5c;fill-opacity:1" />
      <path
         style="letter-spacing:0.0309335px;fill:#7bff5c;fill-opacity:1"
         d="m 122.84687,114.76051 5.96361,-13.50979 h 3.76344 l 5.98291,13.50979 h -3.97574 l -4.67053,-11.63772 h 1.50538 l -4.67053,11.63772 z m 3.26165,-2.62476 0.98429,-2.81775 h 6.60049 l 0.98429,2.81775 z m 19.96751,2.79846 q -1.33168,0 -2.27736,-0.57899 -0.94569,-0.59829 -1.44748,-1.77557 -0.48249,-1.19658 -0.48249,-3.04936 0,-1.87207 0.46319,-3.04935 0.46319,-1.19658 1.38958,-1.77557 0.94569,-0.57899 2.35456,-0.57899 1.42818,0 2.58616,0.67549 1.17729,0.65619 1.85277,1.87207 0.69479,1.19658 0.69479,2.85635 0,1.65978 -0.69479,2.87566 -0.67548,1.21588 -1.85277,1.87207 -1.15798,0.65619 -2.58616,0.65619 z m -6.58119,3.57045 v -14.20458 h 3.49324 v 1.77557 l -0.0193,3.45464 0.193,3.47395 v 5.50042 z m 5.80921,-6.4847 q 0.61759,0 1.10008,-0.2895 0.50179,-0.2895 0.79129,-0.84919 0.30879,-0.55969 0.30879,-1.35098 0,-0.79128 -0.30879,-1.35097 -0.2895,-0.5597 -0.79129,-0.84919 -0.48249,-0.2895 -1.10008,-0.2895 -0.61759,0 -1.11939,0.2895 -0.48249,0.28949 -0.79128,0.84919 -0.2895,0.55969 -0.2895,1.35097 0,0.79129 0.2895,1.35098 0.30879,0.55969 0.79128,0.84919 0.5018,0.2895 1.11939,0.2895 z m 13.11612,2.91425 q -1.85277,0 -3.24235,-0.69479 -1.37028,-0.71409 -2.14226,-1.92997 -0.75269,-1.23518 -0.75269,-2.79846 0,-1.56327 0.73339,-2.77915 0.75268,-1.23518 2.06506,-1.91067 1.31238,-0.69479 2.95286,-0.69479 1.54397,0 2.81775,0.63689 1.27378,0.61759 2.02647,1.83347 0.75269,1.21588 0.75269,2.95285 0,0.193 -0.0193,0.4439 -0.0193,0.25089 -0.0386,0.46319 h -8.27957 v -1.92997 h 6.3303 l -1.38958,0.54039 q 0.0193,-0.71409 -0.27019,-1.23518 -0.2702,-0.52109 -0.77199,-0.81059 -0.48249,-0.28949 -1.13868,-0.28949 -0.65619,0 -1.15798,0.28949 -0.4825,0.2895 -0.75269,0.82989 -0.2702,0.52109 -0.2702,1.23518 v 0.55969 q 0,0.77199 0.3088,1.33168 0.32809,0.55969 0.92638,0.86849 0.59829,0.28949 1.42818,0.28949 0.77199,0 1.31238,-0.21229 0.55969,-0.2316 1.10008,-0.69479 l 1.92997,2.00717 q -0.75269,0.82988 -1.85277,1.27378 -1.10008,0.42459 -2.60546,0.42459 z m 10.74227,0 q -1.33168,0 -2.60546,-0.30879 -1.25448,-0.3088 -2.02647,-0.77199 l 1.10008,-2.50896 q 0.73339,0.44389 1.71768,0.71409 0.98428,0.25089 1.92997,0.25089 0.92638,0 1.27378,-0.193 0.36669,-0.19299 0.36669,-0.52109 0,-0.30879 -0.34739,-0.44389 -0.3281,-0.1544 -0.88779,-0.2316 -0.54039,-0.0772 -1.19658,-0.17369 -0.65619,-0.0965 -1.33168,-0.2509 -0.65619,-0.1737 -1.21588,-0.50179 -0.54039,-0.3474 -0.86849,-0.92639 -0.32809,-0.57899 -0.32809,-1.46678 0,-1.00358 0.57899,-1.77557 0.59829,-0.79129 1.73697,-1.23518 1.13868,-0.46319 2.77916,-0.46319 1.10008,0 2.21946,0.2316 1.13869,0.21229 1.91067,0.65618 l -1.10008,2.48967 q -0.77199,-0.4439 -1.54397,-0.59829 -0.77199,-0.1737 -1.46678,-0.1737 -0.92639,0 -1.31238,0.21229 -0.3667,0.2123 -0.3667,0.5211 0,0.30879 0.3281,0.48249 0.32809,0.1544 0.86849,0.2509 0.55969,0.0772 1.21588,0.17369 0.65619,0.0772 1.31238,0.2509 0.67549,0.1737 1.21588,0.52109 0.55969,0.3281 0.88778,0.90709 0.3281,0.55969 0.3281,1.44747 0,0.96499 -0.59829,1.73698 -0.57899,0.77199 -1.73697,1.23518 -1.13869,0.46319 -2.83706,0.46319 z"
         id="path2" />
    </g>
  </g>
</svg>
