<?xml version="1.0" encoding="UTF-8" standalone="no"?>
<!-- Created with Inkscape (http://www.inkscape.org/) -->

<svg
   width="106.63071mm"
   height="36.396748mm"
   viewBox="0 0 106.63071 36.396748"
   version="1.1"
   id="svg1"
   inkscape:version="1.3.2 (091e20e, 2023-11-25, custom)"
   sodipodi:docname="logo_black.svg"
   xmlns:inkscape="http://www.inkscape.org/namespaces/inkscape"
   xmlns:sodipodi="http://sodipodi.sourceforge.net/DTD/sodipodi-0.dtd"
   xmlns="http://www.w3.org/2000/svg"
   xmlns:svg="http://www.w3.org/2000/svg">
  <sodipodi:namedview
     id="namedview1"
     pagecolor="#ffffff"
     bordercolor="#666666"
     borderopacity="1.0"
     inkscape:showpageshadow="2"
     inkscape:pageopacity="0.0"
     inkscape:pagecheckerboard="0"
     inkscape:deskcolor="#d1d1d1"
     inkscape:document-units="mm"
     inkscape:zoom="2.7758979"
     inkscape:cx="186.06592"
     inkscape:cy="-5.5837789"
     inkscape:window-width="1920"
     inkscape:window-height="1017"
     inkscape:window-x="-8"
     inkscape:window-y="-8"
     inkscape:window-maximized="1"
     inkscape:current-layer="layer1"
     showgrid="false" />
  <defs
     id="defs1" />
  <g
     inkscape:label="Layer 1"
     inkscape:groupmode="layer"
     id="layer1"
     transform="translate(-14.494253,-41.527693)">
    <path
       style="fill:none;stroke:#000000;stroke-width:2.535;stroke-linecap:butt;stroke-linejoin:miter;stroke-miterlimit:4;stroke-dasharray:none;stroke-opacity:1"
       d="m 53.336424,61.45166 -2.734584,-0.795047 -7.953707,6.591742 7.449606,4.089085 -20.840943,0.04374 6.086515,-4.698893 7.563959,-5.839516 -0.05213,-6.177856 2.488322,-6.393673 7.111544,0.0029 -0.04488,6.394251 -6.583927,0.0071 -3.697185,-6.445332 -8.81744,-0.0165 -4.915528,6.360294 v 5.600106 l 9.609844,0.01188"
       id="path2933"
       inkscape:connector-curvature="0"
       sodipodi:nodetypes="ccccccccccccccccc" />
    <g
       id="text1"
       style="font-weight:bold;font-size:17.9018px;line-height:0.7;font-family:'Hellix TRIAL';-inkscape-font-specification:'Hellix TRIAL Bold';letter-spacing:0px;word-spacing:0px;stroke-width:1.34263"
       aria-label="Rune&#10;Apes">
      <path
         d="m 66.244808,59.716713 h 2.649467 v -4.779781 h 1.360537 l 2.828484,4.779781 h 3.222324 l -3.276029,-5.191522 c 1.235224,-0.608661 2.005001,-1.861787 2.005001,-3.472949 0,-2.148216 -1.843885,-3.866789 -3.956298,-3.866789 h -4.833486 z m 2.649467,-7.321836 V 49.74541 h 2.09451 c 0.769778,0 1.360537,0.554956 1.360537,1.306832 0,0.751875 -0.590759,1.342635 -1.360537,1.342635 z m 13.855976,7.321836 h 2.524154 v -8.789784 h -2.524154 v 5.460049 c -0.358036,0.608661 -1.056206,1.002501 -1.754376,1.002501 -1.038305,0 -1.700671,-0.69817 -1.700671,-1.915493 V 50.926929 H 76.77105 v 4.976701 c 0,2.470448 1.360537,3.992101 3.58036,3.992101 0.984599,0 1.915493,-0.465447 2.398841,-1.217322 z m 6.838476,-8.789784 h -2.524154 v 8.789784 h 2.524154 v -5.460049 c 0.358036,-0.608661 1.056206,-1.002501 1.754376,-1.002501 1.038305,0 1.700671,0.69817 1.700671,1.915493 v 4.547057 h 2.524154 v -4.9767 c 0,-2.470449 -1.360537,-3.992102 -3.58036,-3.992102 -0.984599,0 -1.915492,0.465447 -2.398841,1.217322 z m 11.976293,8.968802 c 1.84389,0 3.31183,-0.680268 3.9563,-1.843885 l -1.9871,-1.217323 c -0.28643,0.537054 -1.10991,0.89509 -1.89759,0.89509 -1.18152,0 -1.987101,-0.608661 -2.237726,-1.754376 h 6.301436 c 0.0537,-0.340134 0.0716,-0.733974 0.0716,-1.038305 0,-2.345136 -1.86178,-4.189021 -4.24272,-4.189021 -2.55996,0 -4.564961,1.969198 -4.564961,4.529156 0,2.613662 2.040805,4.618664 4.600761,4.618664 z m -2.130313,-5.603263 c 0.250625,-0.930894 0.912993,-1.467948 1.969203,-1.467948 0.93089,0 1.70067,0.608661 1.84388,1.467948 z"
         id="path1" />
      <path
         d="m 72.52834,59.716713 h -2.148216 l -4.9767,12.53126 h 2.810582 l 0.805581,-2.094511 h 4.833486 l 0.78768,2.094511 h 2.882189 z m -2.613663,8.127417 1.539555,-3.9742 1.503751,3.9742 z m 8.610752,7.303934 h 2.524153 v -3.938396 c 0.429644,0.716072 1.48585,1.217323 2.595762,1.217323 2.29143,0 4.099512,-2.022904 4.099512,-4.564959 0,-2.542056 -1.808082,-4.582861 -4.099512,-4.582861 -1.109912,0 -2.166118,0.50125 -2.595762,1.217322 v -1.038304 h -2.524153 z m 2.524153,-6.229826 v -2.148216 c 0.375938,-0.626563 1.163618,-1.09201 2.040806,-1.09201 1.235224,0 2.184019,0.930894 2.184019,2.18402 0,1.253126 -0.948795,2.184019 -2.184019,2.184019 -0.877188,0 -1.664868,-0.483348 -2.040806,-1.127813 z m 12.226953,3.508753 c 1.843885,0 3.311833,-0.680269 3.956298,-1.843886 l -1.9871,-1.217322 c -0.286429,0.537054 -1.109912,0.89509 -1.897591,0.89509 -1.181519,0 -1.9871,-0.608661 -2.237725,-1.754376 h 6.301434 c 0.05371,-0.340135 0.07161,-0.733974 0.07161,-1.038305 0,-2.345136 -1.861787,-4.189021 -4.242727,-4.189021 -2.559957,0 -4.564959,1.969198 -4.564959,4.529155 0,2.613663 2.040805,4.618665 4.600763,4.618665 z m -2.130314,-5.603264 c 0.250625,-0.930893 0.912991,-1.467947 1.969198,-1.467947 0.930893,0 1.700671,0.608661 1.843885,1.467947 z m 11.116999,5.621166 c 2.05871,0 3.52666,-1.199421 3.52666,-2.828485 0,-3.150717 -4.65447,-2.595761 -4.65447,-3.651967 0,-0.358036 0.32223,-0.590759 0.80558,-0.590759 0.64446,0 1.9871,0.286428 2.75688,0.859286 l 0.93089,-1.951296 c -0.87719,-0.69817 -2.20192,-1.002501 -3.41924,-1.002501 -2.11242,0 -3.580365,1.199421 -3.580365,2.917993 0,3.240226 4.618665,2.363038 4.618665,3.508753 0,0.358036 -0.42964,0.626563 -1.0383,0.626563 -0.9846,0 -2.345141,-0.429643 -3.007507,-1.038304 l -0.948796,1.879689 c 0.912992,0.769777 2.506253,1.271028 4.010003,1.271028 z"
         id="path2" />
    </g>
  </g>
</svg>
